{"glyphs":{"0":{"ha":789,"x_min":0,"x_max":0,"o":"m 46 356 b 394 738 46 568 203 738 b 743 360 601 738 743 572 b 394 -22 743 146 594 -22 b 46 356 193 -22 46 142 m 535 353 b 389 715 535 579 479 717 b 253 363 321 714 253 632 b 396 -1 253 136 310 -1 b 535 353 467 -1 535 78 "},"1":{"ha":465,"x_min":0,"x_max":0,"o":"m 40 13 b 149 132 103 17 149 43 l 149 485 b 10 594 149 575 128 604 l 10 607 l 317 744 l 335 742 l 335 132 b 443 13 335 43 379 17 l 443 0 l 40 0 "},"2":{"ha":668,"x_min":0,"x_max":0,"o":"m 26 0 l 17 22 l 208 204 b 383 490 347 336 383 421 b 235 636 383 585 328 636 b 67 540 160 636 100 601 l 49 547 b 331 738 81 656 183 738 b 578 564 506 738 578 649 b 378 300 578 485 511 415 l 215 160 l 374 160 b 611 283 521 160 572 185 l 635 283 l 565 0 "},"3":{"ha":681,"x_min":0,"x_max":0,"o":"m 268 -221 b 8 -82 92 -221 8 -158 b 86 -1 8 -33 42 -1 b 172 -74 128 -1 158 -26 b 282 -196 200 -151 222 -196 b 447 35 371 -196 447 -103 b 222 260 447 172 365 260 l 157 260 l 157 289 b 392 486 269 296 392 353 b 235 639 392 583 329 639 b 72 543 156 639 101 604 l 53 550 b 336 738 79 663 199 738 b 586 543 476 738 586 658 b 429 325 586 464 533 374 b 642 75 557 297 642 200 b 268 -221 642 -101 469 -221 "},"4":{"ha":832,"x_min":0,"x_max":0,"o":"m 607 29 l 607 -194 l 422 -194 l 422 29 l 38 29 l 24 69 l 450 732 l 607 732 l 607 178 b 767 294 699 186 746 222 l 786 294 l 739 29 m 422 175 l 422 636 l 129 175 "},"5":{"ha":694,"x_min":0,"x_max":0,"o":"m 289 -221 b 29 -82 107 -221 29 -150 b 107 -1 29 -35 63 -1 b 192 -75 149 -1 179 -28 b 301 -197 218 -156 239 -197 b 467 33 390 -197 467 -106 b 276 243 467 172 389 243 b 103 193 210 243 147 222 l 72 218 l 138 715 l 500 715 b 600 768 542 715 582 725 l 621 768 l 571 557 l 149 557 l 121 346 b 331 397 182 378 253 397 b 657 100 513 397 657 290 b 289 -221 657 -81 489 -221 "},"6":{"ha":758,"x_min":0,"x_max":0,"o":"m 385 -22 b 47 390 206 -22 47 132 b 618 947 47 704 315 944 l 618 926 b 256 467 396 906 275 744 b 478 596 307 540 385 596 b 713 321 615 596 713 481 b 385 -22 713 125 551 -22 m 390 1 b 518 243 464 1 518 88 b 365 489 518 399 461 489 b 254 431 322 489 286 471 b 253 382 253 415 253 399 b 390 1 253 119 306 1 "},"7":{"ha":682,"x_min":0,"x_max":0,"o":"m 169 -194 l 169 -179 b 558 557 204 76 325 321 l 246 557 b 61 433 144 557 88 513 l 40 433 l 104 715 l 658 715 l 658 657 b 394 -194 419 338 372 88 "},"8":{"ha":724,"x_min":0,"x_max":0,"o":"m 358 -22 b 38 221 147 -22 38 90 b 233 465 38 335 124 425 b 89 706 153 529 89 603 b 368 942 89 839 208 942 b 629 746 526 942 629 853 b 463 536 629 665 569 586 b 683 244 572 460 683 376 b 358 -22 683 103 557 -22 m 238 797 b 435 556 238 694 332 626 b 482 717 465 589 482 646 b 349 919 482 840 429 919 b 238 797 289 919 238 872 m 375 1 b 522 143 463 1 522 58 b 313 407 522 239 443 313 b 265 440 297 418 281 429 b 196 243 222 404 196 336 b 375 1 196 89 268 1 "},"9":{"ha":753,"x_min":0,"x_max":0,"o":"m 133 -208 b 493 239 353 -187 472 -33 b 278 119 443 169 367 119 b 43 394 139 119 43 235 b 367 738 43 590 203 738 b 707 325 547 738 707 582 b 133 -229 707 13 436 -226 m 385 225 b 496 282 428 225 464 243 b 497 333 497 299 497 315 b 361 714 497 593 447 714 b 233 472 288 714 233 628 b 385 225 233 310 290 225 "},"\u0000":{"ha":257,"x_min":0,"x_max":0,"o":""},"\r":{"ha":0,"x_min":0,"x_max":0,"o":""}," ":{"ha":257,"x_min":0,"x_max":0,"o":""}," ":{"ha":257,"x_min":0,"x_max":0,"o":""},"A":{"ha":1007,"x_min":0,"x_max":0,"o":"m 417 724 l 275 340 l 558 340 m 356 0 l 10 0 l 10 13 b 221 285 86 25 149 94 l 486 983 l 540 983 l 851 169 b 997 13 889 72 939 22 l 997 0 l 551 0 l 551 13 b 611 196 635 24 660 65 l 568 311 l 264 311 b 356 13 194 117 236 25 "},"B":{"ha":913,"x_min":0,"x_max":0,"o":"m 31 0 l 31 13 b 142 147 86 18 142 43 l 142 825 b 31 960 142 928 86 954 l 31 972 l 464 972 b 821 750 700 972 821 883 b 603 535 821 647 749 565 b 871 276 783 506 871 399 b 478 0 871 128 738 0 m 356 538 l 404 538 b 603 740 539 538 603 608 b 400 946 603 861 544 946 l 356 946 m 418 26 b 647 272 582 26 647 117 b 415 510 647 428 574 510 l 356 510 l 356 26 "},"":{"ha":913,"x_min":0,"x_max":0,"o":"m 478 0 b 871 276 738 0 871 128 b 603 535 871 399 783 506 b 821 750 749 565 821 647 b 464 972 821 883 700 972 l 31 972 l 31 960 b 142 825 86 954 142 928 l 142 147 b 31 13 142 43 86 18 l 31 0 m 356 946 l 400 946 b 603 740 544 946 603 861 b 404 538 603 608 539 538 l 356 538 m 356 26 l 356 510 l 415 510 b 647 272 574 510 647 428 b 418 26 647 117 582 26 "},"C":{"ha":965,"x_min":0,"x_max":0,"o":"m 832 681 b 565 968 803 853 700 968 b 275 531 413 968 275 814 b 608 103 275 244 418 103 b 882 257 719 103 824 154 l 903 250 b 518 -24 843 90 707 -24 b 46 478 243 -24 46 208 b 594 997 46 782 293 997 b 913 933 718 997 838 972 l 856 678 "},"D":{"ha":1050,"x_min":0,"x_max":0,"o":"m 31 13 b 142 147 86 18 142 43 l 142 825 b 31 960 142 929 86 954 l 31 972 l 492 972 b 1004 494 790 972 1004 769 b 482 0 1004 231 789 0 l 31 0 m 356 946 l 356 26 l 451 26 b 765 485 649 26 765 188 b 440 946 765 797 628 946 "},"E":{"ha":908,"x_min":0,"x_max":0,"o":"m 817 0 l 31 0 l 31 13 b 142 146 88 18 142 42 l 142 822 b 31 960 142 926 88 954 l 31 972 l 782 972 l 821 725 l 801 725 b 454 946 717 871 582 946 l 356 946 l 356 522 l 428 522 b 661 692 554 522 642 581 l 679 692 l 679 324 l 661 324 b 428 494 640 438 551 494 l 356 494 l 356 26 l 464 26 b 833 297 622 26 782 135 l 856 297 "},"":{"ha":908,"x_min":0,"x_max":0,"o":"m 856 297 l 833 297 b 464 26 782 135 622 26 l 356 26 l 356 494 l 428 494 b 661 324 551 494 640 438 l 679 324 l 679 692 l 661 692 b 428 522 642 581 554 522 l 356 522 l 356 946 l 454 946 b 801 725 582 946 717 871 l 821 725 l 782 972 l 31 972 l 31 960 b 142 822 88 954 142 926 l 142 146 b 31 13 142 42 88 18 l 31 0 l 817 0 "},"F":{"ha":858,"x_min":0,"x_max":0,"o":"m 475 0 l 31 0 l 31 13 b 142 147 88 18 142 44 l 142 822 b 31 960 142 926 88 954 l 31 972 l 793 972 l 821 676 l 797 676 b 450 946 722 860 596 946 l 357 946 l 357 522 l 404 522 b 638 693 531 522 618 581 l 657 693 l 657 324 l 638 324 b 404 496 617 439 529 496 l 357 496 l 357 147 b 475 13 357 44 415 18 "},"G":{"ha":1092,"x_min":0,"x_max":0,"o":"m 967 79 b 582 -26 883 25 729 -26 b 46 485 294 -26 46 183 b 611 997 46 801 294 997 b 946 935 738 997 874 971 l 881 675 l 858 678 b 579 969 831 861 721 969 b 283 503 403 969 283 808 b 588 3 283 169 415 3 b 760 156 689 3 760 54 l 760 308 b 633 443 760 411 692 438 l 633 456 l 1065 456 l 1065 443 b 967 308 1013 438 967 411 "},"H":{"ha":1067,"x_min":0,"x_max":0,"o":"m 467 0 l 31 0 l 31 13 b 142 147 86 18 142 44 l 142 825 b 31 960 142 928 86 954 l 31 972 l 467 972 l 467 960 b 357 828 411 954 357 931 l 357 518 l 710 518 l 710 828 b 600 960 710 931 654 954 l 600 972 l 1036 972 l 1036 960 b 924 825 979 954 924 928 l 924 147 b 1036 13 924 44 979 18 l 1036 0 l 600 0 l 600 13 b 710 144 654 18 710 42 l 710 489 l 357 489 l 357 144 b 467 13 357 42 411 18 "},"I":{"ha":499,"x_min":0,"x_max":0,"o":"m 468 960 b 357 825 413 954 357 928 l 357 147 b 468 13 357 44 413 18 l 468 0 l 31 0 l 31 13 b 142 147 88 18 142 44 l 142 825 b 31 960 142 928 88 954 l 31 972 l 468 972 "},"J":{"ha":582,"x_min":0,"x_max":0,"o":"m 449 74 b 104 -286 449 -131 294 -286 b -92 -151 -10 -286 -92 -229 b -1 -58 -92 -94 -50 -58 b 90 -150 44 -58 90 -90 b 79 -222 90 -179 79 -200 b 125 -260 79 -250 99 -260 b 246 -89 178 -260 246 -218 b 235 197 246 1 235 97 l 235 824 b 119 960 235 926 178 954 l 119 972 l 557 972 l 557 960 b 449 824 503 954 449 926 "},"K":{"ha":1029,"x_min":0,"x_max":0,"o":"m 471 960 b 356 825 413 954 356 928 l 356 147 b 471 13 356 44 413 18 l 471 0 l 31 0 l 31 13 b 142 147 96 18 142 51 l 142 825 b 31 960 142 928 89 954 l 31 972 l 471 972 m 700 0 l 401 442 l 401 454 l 653 754 b 632 960 751 874 715 947 l 632 972 l 990 972 l 990 958 b 694 758 910 951 817 904 l 556 593 l 835 182 b 1017 14 914 64 968 25 l 1017 0 "},"L":{"ha":886,"x_min":0,"x_max":0,"o":"m 357 26 l 468 26 b 836 318 606 26 781 126 l 858 318 l 817 0 l 31 0 l 31 13 b 142 147 86 18 142 43 l 142 824 b 31 960 142 928 86 954 l 31 972 l 476 972 l 476 960 b 357 824 415 954 357 928 "},"M":{"ha":1403,"x_min":0,"x_max":0,"o":"m 893 815 l 619 -18 l 596 -18 l 353 813 l 247 282 b 378 13 215 117 260 18 l 378 0 l 10 0 l 10 13 b 213 275 106 18 176 97 l 308 738 b 171 960 332 858 288 953 l 171 972 l 522 972 l 707 350 l 911 972 l 1254 972 l 1254 960 b 1121 738 1138 953 1100 858 l 1221 197 b 1396 13 1242 79 1307 18 l 1396 0 l 889 0 l 889 13 b 1001 193 989 18 1021 75 "},"N":{"ha":1049,"x_min":0,"x_max":0,"o":"m 840 -18 l 207 783 l 208 272 b 393 13 210 86 297 18 l 393 0 l 17 0 l 17 13 b 171 260 101 17 169 75 l 175 714 b 19 960 176 854 121 950 l 19 972 l 333 972 l 847 319 l 843 717 b 672 960 842 878 772 951 l 672 972 l 1032 972 l 1032 960 b 881 717 932 954 882 879 l 876 -18 "},"O":{"ha":1117,"x_min":0,"x_max":0,"o":"m 556 -26 b 46 486 267 -26 46 200 b 563 999 46 772 278 999 b 1072 486 850 999 1072 772 b 556 -26 1072 199 840 -26 m 563 0 b 831 479 707 0 831 160 b 551 972 831 829 688 972 b 283 490 411 972 283 811 b 563 0 283 140 428 0 "},"P":{"ha":907,"x_min":0,"x_max":0,"o":"m 471 0 l 31 0 l 31 13 b 142 147 85 18 142 44 l 142 828 b 31 960 142 932 85 954 l 31 972 l 472 972 b 871 682 743 972 871 843 b 463 375 871 507 718 375 l 356 375 l 356 144 b 471 13 356 43 414 18 m 356 404 l 413 404 b 651 675 572 404 651 507 b 428 946 651 849 585 946 l 356 946 "},"Q":{"ha":1117,"x_min":0,"x_max":0,"o":"m 719 -393 b 308 -278 544 -393 453 -278 b 197 -321 261 -278 231 -292 l 182 -314 b 531 -26 264 -172 410 -56 b 46 486 256 -14 46 208 b 563 999 46 772 279 999 b 1072 486 850 999 1072 772 b 685 -11 1072 249 914 50 b 382 -135 556 -46 467 -69 b 810 -249 569 -122 633 -249 b 971 -129 883 -249 935 -221 l 992 -135 b 719 -393 947 -275 861 -393 m 283 490 b 563 0 283 140 428 0 b 831 479 707 0 831 160 b 551 972 831 829 688 972 b 283 490 411 972 283 811 "},"R":{"ha":990,"x_min":0,"x_max":0,"o":"m 356 438 l 407 438 b 635 694 558 438 635 533 b 422 946 635 856 569 946 l 356 946 m 465 0 l 31 0 l 31 13 b 142 149 86 18 142 46 l 142 825 b 31 960 142 928 86 954 l 31 972 l 471 972 b 856 703 724 972 856 850 b 658 444 856 588 782 493 l 817 167 b 982 13 874 63 928 24 l 982 0 l 669 0 l 444 410 l 356 410 l 356 149 b 465 13 356 46 410 18 "},"S":{"ha":819,"x_min":0,"x_max":0,"o":"m 757 283 b 385 -26 757 115 606 -26 b 57 47 260 -26 128 11 l 115 317 l 136 314 b 399 0 178 94 264 0 b 592 164 525 0 592 72 b 378 385 592 281 490 332 b 74 707 235 450 74 515 b 417 997 74 864 200 997 b 715 931 526 997 635 972 l 658 694 l 636 697 b 403 972 608 879 532 972 b 213 818 292 972 213 913 b 442 608 213 711 321 661 b 757 283 590 543 757 474 "},"":{"ha":819,"x_min":0,"x_max":0,"o":"m 757 283 b 442 608 757 474 590 543 b 213 818 321 661 213 711 b 403 972 213 913 292 972 b 636 697 532 972 608 879 l 658 694 l 715 931 b 417 997 635 972 526 997 b 74 707 200 997 74 864 b 378 385 74 515 235 450 b 592 164 490 332 592 281 b 399 0 592 72 525 0 b 136 314 264 0 178 94 l 115 317 l 57 47 b 385 -26 128 11 260 -26 b 757 283 606 -26 757 115 "},"T":{"ha":907,"x_min":0,"x_max":0,"o":"m 858 972 l 894 678 l 876 678 l 842 743 b 590 946 761 899 696 946 l 563 946 l 563 150 b 678 13 563 43 619 18 l 678 0 l 232 0 l 232 13 b 347 150 290 18 347 43 l 347 946 l 325 946 b 61 740 214 946 135 889 l 31 678 l 13 678 l 54 972 "},"U":{"ha":1024,"x_min":0,"x_max":0,"o":"m 858 360 b 508 -26 856 132 744 -26 b 138 319 257 -26 138 119 l 138 825 b 22 960 138 928 78 954 l 22 972 l 467 972 l 467 960 b 351 825 408 954 351 928 l 351 285 b 576 39 351 142 433 39 b 826 375 718 39 825 143 l 828 674 b 661 960 829 838 782 954 l 661 972 l 1006 972 l 1006 960 b 863 671 894 954 864 838 "},"V":{"ha":1007,"x_min":0,"x_max":0,"o":"m 467 -12 l 151 811 b 10 960 118 900 67 950 l 10 972 l 454 972 l 454 960 b 396 776 372 950 350 903 l 589 249 l 739 651 b 651 960 815 854 778 949 l 651 972 l 997 972 l 997 960 b 785 688 925 951 860 883 l 521 -12 "},"W":{"ha":1476,"x_min":0,"x_max":0,"o":"m 736 610 l 510 -12 l 461 -12 l 160 781 b 10 960 115 899 75 950 l 10 972 l 439 972 l 439 960 b 386 792 371 950 342 913 l 581 272 l 719 654 l 664 804 b 533 960 631 899 588 950 l 533 972 l 953 972 l 953 960 b 899 793 886 951 856 911 l 1083 288 l 1199 629 b 1113 960 1272 851 1225 950 l 1113 972 l 1465 972 l 1465 960 b 1257 704 1389 954 1317 881 l 1014 -12 l 967 -12 "},"X":{"ha":1007,"x_min":0,"x_max":0,"o":"m 386 0 l 14 0 l 14 13 b 292 253 88 24 178 82 l 417 440 l 192 811 b 29 960 136 900 88 950 l 29 972 l 468 972 l 468 960 b 424 829 393 953 381 901 l 568 586 l 660 726 b 619 960 744 854 714 940 l 619 972 l 967 972 l 967 960 b 686 715 889 950 796 882 l 583 560 l 825 161 b 993 13 881 69 935 19 l 993 0 l 549 0 l 549 13 b 589 150 618 19 635 71 l 433 413 l 328 251 b 386 13 239 117 283 28 "},"Y":{"ha":950,"x_min":0,"x_max":0,"o":"m 239 0 l 239 13 b 354 147 297 18 354 44 l 354 421 l 143 825 b 10 960 97 911 60 947 l 10 972 l 438 972 l 438 960 b 381 819 363 951 342 896 l 553 467 l 672 697 b 614 960 756 858 725 944 l 614 972 l 942 972 l 942 960 b 731 743 881 954 808 890 l 568 431 l 568 147 b 683 13 568 44 625 18 l 683 0 "},"Z":{"ha":889,"x_min":0,"x_max":0,"o":"m 38 17 l 582 949 l 474 949 b 96 692 294 949 164 843 l 74 692 l 125 972 l 813 972 l 815 956 l 281 24 l 429 24 b 804 324 585 24 729 139 l 825 324 l 789 0 l 40 0 "},"Á":{"ha":1007,"x_min":0,"x_max":0,"o":"m 582 1249 b 640 1275 601 1267 621 1275 b 703 1213 675 1275 703 1247 b 636 1139 703 1182 679 1151 l 424 1076 l 404 1076 m 417 724 l 275 340 l 558 340 m 356 0 l 10 0 l 10 13 b 221 285 86 25 149 94 l 486 983 l 540 983 l 851 169 b 997 13 889 72 939 22 l 997 0 l 551 0 l 551 13 b 611 196 635 24 660 65 l 568 311 l 264 311 b 356 13 194 117 236 25 "},"Ă":{"ha":1007,"x_min":0,"x_max":0,"o":"m 511 1086 b 318 1264 408 1086 318 1146 l 338 1264 b 511 1179 349 1208 413 1179 b 685 1264 610 1179 674 1208 l 703 1264 b 511 1086 703 1146 613 1086 m 417 724 l 275 340 l 558 340 m 356 0 l 10 0 l 10 13 b 221 285 86 25 149 94 l 486 983 l 540 983 l 851 169 b 997 13 889 72 939 22 l 997 0 l 551 0 l 551 13 b 611 196 635 24 660 65 l 568 311 l 264 311 b 356 13 194 117 236 25 "},"Â":{"ha":1007,"x_min":0,"x_max":0,"o":"m 513 1163 l 311 1081 l 294 1081 l 467 1258 l 561 1258 l 728 1081 l 707 1081 m 417 724 l 275 340 l 558 340 m 356 0 l 10 0 l 10 13 b 221 285 86 25 149 94 l 486 983 l 540 983 l 851 169 b 997 13 889 72 939 22 l 997 0 l 551 0 l 551 13 b 611 196 635 24 660 65 l 568 311 l 264 311 b 356 13 194 117 236 25 "},"Ä":{"ha":1007,"x_min":0,"x_max":0,"o":"m 379 1081 b 281 1179 325 1081 281 1125 b 379 1276 281 1231 325 1276 b 479 1179 435 1276 479 1232 b 379 1081 479 1125 435 1081 m 639 1081 b 539 1179 583 1081 539 1125 b 639 1276 539 1231 583 1276 b 738 1179 693 1276 738 1232 b 639 1081 738 1125 693 1081 m 417 724 l 275 340 l 558 340 m 356 0 l 10 0 l 10 13 b 221 285 86 25 149 94 l 486 983 l 540 983 l 851 169 b 997 13 889 72 939 22 l 997 0 l 551 0 l 551 13 b 611 196 635 24 660 65 l 568 311 l 264 311 b 356 13 194 117 236 25 "},"Æ":{"ha":1413,"x_min":0,"x_max":0,"o":"m 647 832 l 349 349 l 647 349 m 349 0 l 7 0 l 7 13 b 306 338 85 29 157 96 l 640 878 b 529 960 622 936 576 956 l 529 972 l 1286 972 l 1326 725 l 1306 725 b 960 946 1222 871 1088 946 l 863 946 l 863 522 l 933 522 b 1167 692 1060 522 1151 581 l 1186 692 l 1186 324 l 1167 324 b 933 494 1150 438 1058 494 l 863 494 l 863 26 l 969 26 b 1339 297 1128 26 1289 135 l 1361 297 l 1324 0 l 536 0 l 536 13 b 647 146 592 18 647 42 l 647 318 l 331 318 l 324 307 b 349 13 213 124 258 18 "},"À":{"ha":1007,"x_min":0,"x_max":0,"o":"m 585 1076 l 372 1139 b 306 1213 329 1151 306 1182 b 368 1275 306 1247 333 1275 b 426 1249 388 1275 407 1267 l 604 1076 m 417 724 l 275 340 l 558 340 m 356 0 l 10 0 l 10 13 b 221 285 86 25 149 94 l 486 983 l 540 983 l 851 169 b 997 13 889 72 939 22 l 997 0 l 551 0 l 551 13 b 611 196 635 24 660 65 l 568 311 l 264 311 b 356 13 194 117 236 25 "},"Ā":{"ha":1007,"x_min":0,"x_max":0,"o":"m 708 1172 l 708 1132 l 318 1132 l 318 1172 m 417 724 l 275 340 l 558 340 m 356 0 l 10 0 l 10 13 b 221 285 86 25 149 94 l 486 983 l 540 983 l 851 169 b 997 13 889 72 939 22 l 997 0 l 551 0 l 551 13 b 611 196 635 24 660 65 l 568 311 l 264 311 b 356 13 194 117 236 25 "},"Ą":{"ha":1007,"x_min":0,"x_max":0,"o":"m 931 -269 b 800 -337 901 -311 858 -337 b 664 -201 713 -337 664 -278 b 822 0 664 -118 724 -37 l 551 0 l 551 13 b 611 196 635 24 660 65 l 568 311 l 264 311 b 356 13 194 117 236 25 l 356 0 l 10 0 l 10 13 b 221 285 86 25 149 94 l 486 983 l 540 983 l 851 169 b 997 13 889 72 939 22 l 997 0 l 860 0 b 775 -161 808 -22 775 -79 b 858 -285 775 -244 810 -285 b 919 -261 881 -285 903 -278 l 931 -269 m 417 724 l 275 340 l 558 340 "},"Å":{"ha":1007,"x_min":0,"x_max":0,"o":"m 514 1199 b 414 1090 458 1199 414 1149 b 514 983 414 1031 458 983 b 615 1090 569 983 615 1031 b 514 1199 615 1149 569 1199 m 417 724 l 275 340 l 558 340 m 356 0 l 10 0 l 10 13 b 221 285 86 25 149 94 l 476 960 b 379 1090 421 975 379 1028 b 514 1226 379 1165 439 1226 b 650 1090 589 1226 650 1165 b 550 958 650 1028 607 975 l 851 169 b 997 13 889 72 939 22 l 997 0 l 551 0 l 551 13 b 611 196 635 24 660 65 l 568 311 l 264 311 b 356 13 194 117 236 25 "},"Ã":{"ha":1007,"x_min":0,"x_max":0,"o":"m 721 1249 b 594 1089 708 1149 658 1089 b 393 1143 519 1089 464 1143 b 314 1088 356 1143 328 1126 l 301 1090 b 431 1247 313 1185 364 1247 b 629 1192 496 1247 565 1192 b 708 1251 663 1192 692 1207 l 721 1249 m 417 724 l 275 340 l 558 340 m 356 0 l 10 0 l 10 13 b 221 285 86 25 149 94 l 486 983 l 540 983 l 851 169 b 997 13 889 72 939 22 l 997 0 l 551 0 l 551 13 b 611 196 635 24 660 65 l 568 311 l 264 311 b 356 13 194 117 236 25 "},"Ć":{"ha":965,"x_min":0,"x_max":0,"o":"m 639 1249 b 697 1275 658 1267 678 1275 b 760 1213 732 1275 760 1247 b 693 1139 760 1182 736 1151 l 481 1076 l 461 1076 m 832 681 b 565 968 803 853 700 968 b 275 531 413 968 275 814 b 608 103 275 244 418 103 b 882 257 719 103 824 154 l 903 250 b 518 -24 843 90 707 -24 b 46 478 243 -24 46 208 b 594 997 46 782 293 997 b 913 933 718 997 838 972 l 856 678 "},"Č":{"ha":965,"x_min":0,"x_max":0,"o":"m 567 1176 l 768 1258 l 785 1258 l 613 1081 l 518 1081 l 351 1258 l 372 1258 m 832 681 b 565 968 803 853 700 968 b 275 531 413 968 275 814 b 608 103 275 244 418 103 b 882 257 719 103 824 154 l 903 250 b 518 -24 843 90 707 -24 b 46 478 243 -24 46 208 b 594 997 46 782 293 997 b 913 933 718 997 838 972 l 856 678 "},"Ç":{"ha":965,"x_min":0,"x_max":0,"o":"m 524 -368 b 374 -324 460 -368 410 -350 l 381 -307 b 489 -339 413 -331 451 -339 b 618 -243 561 -339 618 -312 b 461 -165 618 -178 569 -150 l 457 -160 l 528 -25 l 518 -25 b 46 478 243 -25 46 207 b 594 997 46 782 293 997 b 913 933 718 997 838 972 l 856 678 l 832 681 b 565 968 803 853 700 968 b 275 531 413 968 275 814 b 608 101 275 243 418 101 b 882 257 719 101 824 153 l 903 250 b 556 -24 847 100 725 -10 l 518 -97 b 574 -92 535 -94 553 -92 b 728 -218 661 -92 728 -137 b 524 -368 728 -304 647 -368 "},"Ĉ":{"ha":965,"x_min":0,"x_max":0,"o":"m 569 1163 l 368 1081 l 351 1081 l 524 1258 l 618 1258 l 785 1081 l 764 1081 m 832 681 b 565 968 803 853 700 968 b 275 531 413 968 275 814 b 608 103 275 244 418 103 b 882 257 719 103 824 154 l 903 250 b 518 -24 843 90 707 -24 b 46 478 243 -24 46 208 b 594 997 46 782 293 997 b 913 933 718 997 838 972 l 856 678 "},"Ċ":{"ha":965,"x_min":0,"x_max":0,"o":"m 567 1081 b 467 1179 513 1081 467 1125 b 567 1276 467 1231 513 1276 b 665 1179 621 1276 665 1232 b 567 1081 665 1125 621 1081 m 832 681 b 565 968 803 853 700 968 b 275 531 413 968 275 814 b 608 103 275 244 418 103 b 882 257 719 103 824 154 l 903 250 b 518 -24 843 90 707 -24 b 46 478 243 -24 46 208 b 594 997 46 782 293 997 b 913 933 718 997 838 972 l 856 678 "},"Ď":{"ha":1050,"x_min":0,"x_max":0,"o":"m 522 1176 l 724 1258 l 740 1258 l 568 1081 l 474 1081 l 307 1258 l 328 1258 m 31 13 b 142 147 86 18 142 43 l 142 825 b 31 960 142 929 86 954 l 31 972 l 492 972 b 1004 494 790 972 1004 769 b 482 0 1004 231 789 0 l 31 0 m 356 946 l 356 26 l 451 26 b 765 485 649 26 765 188 b 440 946 765 797 628 946 "},"Đ":{"ha":1050,"x_min":0,"x_max":0,"o":"m 31 0 l 31 13 b 142 147 86 18 142 43 l 142 500 l 32 500 l 32 529 l 142 529 l 142 825 b 31 960 142 929 86 954 l 31 972 l 492 972 b 1004 494 790 972 1004 769 b 482 0 1004 231 789 0 m 451 26 b 765 485 649 26 765 188 b 440 946 765 797 628 946 l 356 946 l 356 529 l 510 529 l 510 500 l 356 500 l 356 26 "},"É":{"ha":908,"x_min":0,"x_max":0,"o":"m 544 1249 b 603 1275 564 1267 583 1275 b 665 1213 638 1275 665 1247 b 599 1139 665 1182 642 1151 l 386 1076 l 367 1076 m 817 0 l 31 0 l 31 13 b 142 146 88 18 142 42 l 142 822 b 31 960 142 926 88 954 l 31 972 l 782 972 l 821 725 l 801 725 b 454 946 717 871 582 946 l 356 946 l 356 522 l 428 522 b 661 692 554 522 642 581 l 679 692 l 679 324 l 661 324 b 428 494 640 438 551 494 l 356 494 l 356 26 l 464 26 b 833 297 622 26 782 135 l 856 297 "},"Ĕ":{"ha":908,"x_min":0,"x_max":0,"o":"m 474 1086 b 281 1264 371 1086 281 1146 l 300 1264 b 474 1179 311 1208 375 1179 b 647 1264 572 1179 636 1208 l 665 1264 b 474 1086 665 1146 575 1086 m 817 0 l 31 0 l 31 13 b 142 146 88 18 142 42 l 142 822 b 31 960 142 926 88 954 l 31 972 l 782 972 l 821 725 l 801 725 b 454 946 717 871 582 946 l 356 946 l 356 522 l 428 522 b 661 692 554 522 642 581 l 679 692 l 679 324 l 661 324 b 428 494 640 438 551 494 l 356 494 l 356 26 l 464 26 b 833 297 622 26 782 135 l 856 297 "},"Ě":{"ha":908,"x_min":0,"x_max":0,"o":"m 472 1176 l 674 1258 l 690 1258 l 518 1081 l 424 1081 l 257 1258 l 278 1258 m 817 0 l 31 0 l 31 13 b 142 146 88 18 142 42 l 142 822 b 31 960 142 926 88 954 l 31 972 l 782 972 l 821 725 l 801 725 b 454 946 717 871 582 946 l 356 946 l 356 522 l 428 522 b 661 692 554 522 642 581 l 679 692 l 679 324 l 661 324 b 428 494 640 438 551 494 l 356 494 l 356 26 l 464 26 b 833 297 622 26 782 135 l 856 297 "},"Ê":{"ha":908,"x_min":0,"x_max":0,"o":"m 475 1163 l 274 1081 l 257 1081 l 429 1258 l 524 1258 l 690 1081 l 669 1081 m 817 0 l 31 0 l 31 13 b 142 146 88 18 142 42 l 142 822 b 31 960 142 926 88 954 l 31 972 l 782 972 l 821 725 l 801 725 b 454 946 717 871 582 946 l 356 946 l 356 522 l 428 522 b 661 692 554 522 642 581 l 679 692 l 679 324 l 661 324 b 428 494 640 438 551 494 l 356 494 l 356 26 l 464 26 b 833 297 622 26 782 135 l 856 297 "},"Ë":{"ha":908,"x_min":0,"x_max":0,"o":"m 342 1081 b 243 1179 288 1081 243 1125 b 342 1276 243 1231 288 1276 b 442 1179 397 1276 442 1232 b 342 1081 442 1125 397 1081 m 601 1081 b 501 1179 546 1081 501 1125 b 601 1276 501 1231 546 1276 b 700 1179 656 1276 700 1232 b 601 1081 700 1125 656 1081 m 817 0 l 31 0 l 31 13 b 142 146 88 18 142 42 l 142 822 b 31 960 142 926 88 954 l 31 972 l 782 972 l 821 725 l 801 725 b 454 946 717 871 582 946 l 356 946 l 356 522 l 428 522 b 661 692 554 522 642 581 l 679 692 l 679 324 l 661 324 b 428 494 640 438 551 494 l 356 494 l 356 26 l 464 26 b 833 297 622 26 782 135 l 856 297 "},"Ė":{"ha":908,"x_min":0,"x_max":0,"o":"m 472 1081 b 372 1179 418 1081 372 1125 b 472 1276 372 1231 418 1276 b 571 1179 526 1276 571 1232 b 472 1081 571 1125 526 1081 m 817 0 l 31 0 l 31 13 b 142 146 88 18 142 42 l 142 822 b 31 960 142 926 88 954 l 31 972 l 782 972 l 821 725 l 801 725 b 454 946 717 871 582 946 l 356 946 l 356 522 l 428 522 b 661 692 554 522 642 581 l 679 692 l 679 324 l 661 324 b 428 494 640 438 551 494 l 356 494 l 356 26 l 464 26 b 833 297 622 26 782 135 l 856 297 "},"È":{"ha":908,"x_min":0,"x_max":0,"o":"m 547 1076 l 335 1139 b 268 1213 292 1151 268 1182 b 331 1275 268 1247 296 1275 b 389 1249 350 1275 369 1267 l 567 1076 m 817 0 l 31 0 l 31 13 b 142 146 88 18 142 42 l 142 822 b 31 960 142 926 88 954 l 31 972 l 782 972 l 821 725 l 801 725 b 454 946 717 871 582 946 l 356 946 l 356 522 l 428 522 b 661 692 554 522 642 581 l 679 692 l 679 324 l 661 324 b 428 494 640 438 551 494 l 356 494 l 356 26 l 464 26 b 833 297 622 26 782 135 l 856 297 "},"Ē":{"ha":908,"x_min":0,"x_max":0,"o":"m 671 1172 l 671 1132 l 281 1132 l 281 1172 m 817 0 l 31 0 l 31 13 b 142 146 88 18 142 42 l 142 822 b 31 960 142 926 88 954 l 31 972 l 782 972 l 821 725 l 801 725 b 454 946 717 871 582 946 l 356 946 l 356 522 l 428 522 b 661 692 554 522 642 581 l 679 692 l 679 324 l 661 324 b 428 494 640 438 551 494 l 356 494 l 356 26 l 464 26 b 833 297 622 26 782 135 l 856 297 "},"Ŋ":{"ha":1049,"x_min":0,"x_max":0,"o":"m 628 -331 b 454 -214 528 -331 454 -285 b 540 -128 454 -164 490 -128 b 622 -208 588 -128 622 -158 b 610 -278 622 -237 610 -260 b 649 -301 610 -296 622 -301 b 839 -15 743 -301 838 -200 l 207 782 l 208 272 b 393 13 210 76 306 18 l 393 0 l 17 0 l 17 13 b 171 260 101 17 169 75 l 175 714 b 19 960 176 854 121 950 l 19 972 l 333 972 l 847 326 l 843 717 b 672 960 842 882 768 951 l 672 972 l 1032 972 l 1032 960 b 881 717 925 954 882 869 l 878 7 b 628 -331 876 -186 797 -331 "},"Ę":{"ha":908,"x_min":0,"x_max":0,"o":"m 772 -269 b 642 -337 743 -311 700 -337 b 506 -201 554 -337 506 -278 b 664 0 506 -118 565 -37 l 31 0 l 31 13 b 142 146 88 18 142 42 l 142 822 b 31 960 142 926 88 954 l 31 972 l 782 972 l 821 725 l 801 725 b 454 946 717 871 582 946 l 356 946 l 356 522 l 428 522 b 661 692 554 522 642 581 l 679 692 l 679 324 l 661 324 b 428 494 640 438 551 494 l 356 494 l 356 26 l 464 26 b 833 297 622 26 782 135 l 856 297 l 817 0 l 701 0 b 617 -161 650 -22 617 -79 b 700 -285 617 -244 651 -285 b 761 -261 722 -285 744 -278 l 772 -269 "},"Ð":{"ha":1050,"x_min":0,"x_max":0,"o":"m 31 0 l 31 13 b 142 147 86 18 142 43 l 142 500 l 32 500 l 32 529 l 142 529 l 142 825 b 31 960 142 929 86 954 l 31 972 l 492 972 b 1004 494 790 972 1004 769 b 482 0 1004 231 789 0 m 451 26 b 765 485 649 26 765 188 b 440 946 765 797 628 946 l 356 946 l 356 529 l 510 529 l 510 500 l 356 500 l 356 26 "},"Ğ":{"ha":1092,"x_min":0,"x_max":0,"o":"m 581 1086 b 388 1264 478 1086 388 1146 l 407 1264 b 581 1179 418 1208 482 1179 b 754 1264 679 1179 743 1208 l 772 1264 b 581 1086 772 1146 682 1086 m 967 79 b 582 -26 883 25 729 -26 b 46 485 294 -26 46 183 b 611 997 46 801 294 997 b 946 935 738 997 874 971 l 881 675 l 858 678 b 579 969 831 861 721 969 b 283 503 403 969 283 808 b 588 3 283 169 415 3 b 760 156 689 3 760 54 l 760 308 b 633 443 760 411 692 438 l 633 456 l 1065 456 l 1065 443 b 967 308 1013 438 967 411 "},"Ĝ":{"ha":1092,"x_min":0,"x_max":0,"o":"m 582 1163 l 381 1081 l 364 1081 l 536 1258 l 631 1258 l 797 1081 l 776 1081 m 967 79 b 582 -26 883 25 729 -26 b 46 485 294 -26 46 183 b 611 997 46 801 294 997 b 946 935 738 997 874 971 l 881 675 l 858 678 b 579 969 831 861 721 969 b 283 503 403 969 283 808 b 588 3 283 169 415 3 b 760 156 689 3 760 54 l 760 308 b 633 443 760 411 692 438 l 633 456 l 1065 456 l 1065 443 b 967 308 1013 438 967 411 "},"Ģ":{"ha":1092,"x_min":0,"x_max":0,"o":"m 967 79 b 582 -26 883 25 729 -26 b 46 485 294 -26 46 183 b 611 997 46 801 294 997 b 946 935 738 997 874 971 l 881 675 l 858 678 b 579 969 831 861 721 969 b 283 503 403 969 283 808 b 588 3 283 169 415 3 b 760 156 689 3 760 54 l 760 308 b 633 443 760 411 692 438 l 633 456 l 1065 456 l 1065 443 b 967 308 1013 438 967 411 m 613 -346 b 553 -292 613 -314 588 -306 b 486 -204 514 -278 486 -244 b 583 -111 486 -153 525 -111 b 683 -231 638 -111 683 -150 b 518 -468 683 -337 625 -444 l 513 -451 b 613 -346 565 -437 613 -385 "},"Ġ":{"ha":1092,"x_min":0,"x_max":0,"o":"m 579 1081 b 479 1179 525 1081 479 1125 b 579 1276 479 1231 525 1276 b 678 1179 633 1276 678 1232 b 579 1081 678 1125 633 1081 m 967 79 b 582 -26 883 25 729 -26 b 46 485 294 -26 46 183 b 611 997 46 801 294 997 b 946 935 738 997 874 971 l 881 675 l 858 678 b 579 969 831 861 721 969 b 283 503 403 969 283 808 b 588 3 283 169 415 3 b 760 156 689 3 760 54 l 760 308 b 633 443 760 411 692 438 l 633 456 l 1065 456 l 1065 443 b 967 308 1013 438 967 411 "},"Ħ":{"ha":1067,"x_min":0,"x_max":0,"o":"m 710 689 l 357 689 l 357 518 l 710 518 m 467 0 l 31 0 l 31 13 b 142 147 86 18 142 44 l 142 689 l 21 689 l 21 717 l 142 717 l 142 825 b 31 960 142 928 86 954 l 31 972 l 467 972 l 467 960 b 357 828 411 954 357 931 l 357 717 l 710 717 l 710 828 b 600 960 710 931 654 954 l 600 972 l 1036 972 l 1036 960 b 924 825 979 954 924 928 l 924 717 l 1044 717 l 1044 689 l 924 689 l 924 147 b 1036 13 924 44 979 18 l 1036 0 l 600 0 l 600 13 b 710 144 654 18 710 42 l 710 489 l 357 489 l 357 144 b 467 13 357 42 411 18 "},"Ĥ":{"ha":1067,"x_min":0,"x_max":0,"o":"m 533 1163 l 332 1081 l 315 1081 l 488 1258 l 582 1258 l 749 1081 l 728 1081 m 467 0 l 31 0 l 31 13 b 142 147 86 18 142 44 l 142 825 b 31 960 142 928 86 954 l 31 972 l 467 972 l 467 960 b 357 828 411 954 357 931 l 357 518 l 710 518 l 710 828 b 600 960 710 931 654 954 l 600 972 l 1036 972 l 1036 960 b 924 825 979 954 924 928 l 924 147 b 1036 13 924 44 979 18 l 1036 0 l 600 0 l 600 13 b 710 144 654 18 710 42 l 710 489 l 357 489 l 357 144 b 467 13 357 42 411 18 "},"Í":{"ha":499,"x_min":0,"x_max":0,"o":"m 326 1249 b 385 1275 346 1267 365 1275 b 447 1213 419 1275 447 1247 b 381 1139 447 1182 424 1151 l 168 1076 l 149 1076 m 468 960 b 357 825 413 954 357 928 l 357 147 b 468 13 357 44 413 18 l 468 0 l 31 0 l 31 13 b 142 147 88 18 142 44 l 142 825 b 31 960 142 928 88 954 l 31 972 l 468 972 "},"Ĭ":{"ha":499,"x_min":0,"x_max":0,"o":"m 254 1086 b 61 1264 151 1086 61 1146 l 81 1264 b 254 1179 92 1208 156 1179 b 428 1264 353 1179 417 1208 l 446 1264 b 254 1086 446 1146 356 1086 m 468 960 b 357 825 413 954 357 928 l 357 147 b 468 13 357 44 413 18 l 468 0 l 31 0 l 31 13 b 142 147 88 18 142 44 l 142 825 b 31 960 142 928 88 954 l 31 972 l 468 972 "},"Î":{"ha":499,"x_min":0,"x_max":0,"o":"m 256 1163 l 54 1081 l 38 1081 l 210 1258 l 304 1258 l 471 1081 l 450 1081 m 468 960 b 357 825 413 954 357 928 l 357 147 b 468 13 357 44 413 18 l 468 0 l 31 0 l 31 13 b 142 147 88 18 142 44 l 142 825 b 31 960 142 928 88 954 l 31 972 l 468 972 "},"Ï":{"ha":499,"x_min":0,"x_max":0,"o":"m 124 1081 b 25 1179 69 1081 25 1125 b 124 1276 25 1231 69 1276 b 224 1179 179 1276 224 1232 b 124 1081 224 1125 179 1081 m 383 1081 b 283 1179 328 1081 283 1125 b 383 1276 283 1231 328 1276 b 482 1179 438 1276 482 1232 b 383 1081 482 1125 438 1081 m 468 960 b 357 825 413 954 357 928 l 357 147 b 468 13 357 44 413 18 l 468 0 l 31 0 l 31 13 b 142 147 88 18 142 44 l 142 825 b 31 960 142 928 88 954 l 31 972 l 468 972 "},"İ":{"ha":499,"x_min":0,"x_max":0,"o":"m 253 1081 b 153 1179 199 1081 153 1125 b 253 1276 153 1231 199 1276 b 351 1179 307 1276 351 1232 b 253 1081 351 1125 307 1081 m 468 960 b 357 825 413 954 357 928 l 357 147 b 468 13 357 44 413 18 l 468 0 l 31 0 l 31 13 b 142 147 88 18 142 44 l 142 825 b 31 960 142 928 88 954 l 31 972 l 468 972 "},"Ì":{"ha":499,"x_min":0,"x_max":0,"o":"m 329 1076 l 117 1139 b 50 1213 74 1151 50 1182 b 113 1275 50 1247 78 1275 b 171 1249 132 1275 151 1267 l 349 1076 m 468 960 b 357 825 413 954 357 928 l 357 147 b 468 13 357 44 413 18 l 468 0 l 31 0 l 31 13 b 142 147 88 18 142 44 l 142 825 b 31 960 142 928 88 954 l 31 972 l 468 972 "},"Ĳ":{"ha":1078,"x_min":0,"x_max":0,"o":"m 468 960 b 357 825 413 954 357 928 l 357 147 b 468 13 357 44 413 18 l 468 0 l 31 0 l 31 13 b 142 147 88 18 142 44 l 142 825 b 31 960 142 928 88 954 l 31 972 l 468 972 m 947 74 b 603 -286 947 -131 793 -286 b 407 -151 489 -286 407 -229 b 497 -58 407 -94 449 -58 b 589 -150 543 -58 589 -90 b 578 -222 589 -179 578 -200 b 624 -260 578 -250 597 -260 b 744 -89 676 -260 744 -218 b 733 197 744 1 733 97 l 733 824 b 618 960 733 926 676 954 l 618 972 l 1056 972 l 1056 960 b 947 824 1001 954 947 926 "},"Ī":{"ha":499,"x_min":0,"x_max":0,"o":"m 453 1172 l 453 1132 l 63 1132 l 63 1172 m 468 960 b 357 825 413 954 357 928 l 357 147 b 468 13 357 44 413 18 l 468 0 l 31 0 l 31 13 b 142 147 88 18 142 44 l 142 825 b 31 960 142 928 88 954 l 31 972 l 468 972 "},"Į":{"ha":499,"x_min":0,"x_max":0,"o":"m 404 -269 b 274 -337 375 -311 332 -337 b 138 -201 186 -337 138 -278 b 296 0 138 -118 197 -37 l 31 0 l 31 13 b 142 147 88 18 142 44 l 142 825 b 31 960 142 928 88 954 l 31 972 l 468 972 l 468 960 b 357 825 413 954 357 928 l 357 147 b 468 13 357 44 413 18 l 468 0 l 333 0 b 249 -161 282 -22 249 -79 b 332 -285 249 -244 283 -285 b 393 -261 354 -285 376 -278 l 404 -269 "},"Ĩ":{"ha":499,"x_min":0,"x_max":0,"o":"m 465 1249 b 339 1089 453 1149 403 1089 b 138 1143 264 1089 208 1143 b 58 1088 100 1143 72 1126 l 46 1090 b 175 1247 57 1185 108 1247 b 374 1192 240 1247 310 1192 b 453 1251 407 1192 436 1207 l 465 1249 m 468 960 b 357 825 413 954 357 928 l 357 147 b 468 13 357 44 413 18 l 468 0 l 31 0 l 31 13 b 142 147 88 18 142 44 l 142 825 b 31 960 142 928 88 954 l 31 972 l 468 972 "},"Ĵ":{"ha":582,"x_min":0,"x_max":0,"o":"m 343 1163 l 142 1081 l 125 1081 l 297 1258 l 392 1258 l 558 1081 l 538 1081 m 449 74 b 104 -286 449 -131 294 -286 b -92 -151 -10 -286 -92 -229 b -1 -58 -92 -94 -50 -58 b 90 -150 44 -58 90 -90 b 79 -222 90 -179 79 -200 b 125 -260 79 -250 99 -260 b 246 -89 178 -260 246 -218 b 235 197 246 1 235 97 l 235 824 b 119 960 235 926 178 954 l 119 972 l 557 972 l 557 960 b 449 824 503 954 449 926 "},"Ķ":{"ha":1029,"x_min":0,"x_max":0,"o":"m 471 960 b 356 825 413 954 356 928 l 356 147 b 471 13 356 44 413 18 l 471 0 l 31 0 l 31 13 b 142 147 96 18 142 51 l 142 825 b 31 960 142 928 89 954 l 31 972 l 471 972 m 700 0 l 401 442 l 401 454 l 653 754 b 632 960 751 874 715 947 l 632 972 l 990 972 l 990 958 b 694 758 910 951 817 904 l 556 593 l 835 182 b 1017 14 914 64 968 25 l 1017 0 m 551 -346 b 492 -292 551 -314 526 -306 b 425 -204 453 -278 425 -244 b 522 -111 425 -153 464 -111 b 622 -231 576 -111 622 -150 b 457 -468 622 -337 564 -444 l 451 -451 b 551 -346 504 -437 551 -385 "},"Ĺ":{"ha":886,"x_min":0,"x_max":0,"o":"m 324 1249 b 382 1275 343 1267 363 1275 b 444 1213 417 1275 444 1247 b 378 1139 444 1182 421 1151 l 165 1076 l 146 1076 m 357 26 l 468 26 b 836 318 606 26 781 126 l 858 318 l 817 0 l 31 0 l 31 13 b 142 147 86 18 142 43 l 142 824 b 31 960 142 928 86 954 l 31 972 l 476 972 l 476 960 b 357 824 415 954 357 928 "},"Ľ":{"ha":886,"x_min":0,"x_max":0,"o":"m 582 639 l 578 917 b 654 1006 578 978 613 1006 b 724 933 689 1006 724 981 b 707 869 724 917 719 894 l 593 639 m 357 26 l 468 26 b 836 318 606 26 781 126 l 858 318 l 817 0 l 31 0 l 31 13 b 142 147 86 18 142 43 l 142 824 b 31 960 142 928 86 954 l 31 972 l 476 972 l 476 960 b 357 824 415 954 357 928 "},"Ļ":{"ha":886,"x_min":0,"x_max":0,"o":"m 357 26 l 468 26 b 836 318 606 26 781 126 l 858 318 l 817 0 l 31 0 l 31 13 b 142 147 86 18 142 43 l 142 824 b 31 960 142 928 86 954 l 31 972 l 476 972 l 476 960 b 357 824 415 954 357 928 m 497 -346 b 438 -292 497 -314 472 -306 b 371 -204 399 -278 371 -244 b 468 -111 371 -153 410 -111 b 568 -231 522 -111 568 -150 b 403 -468 568 -337 510 -444 l 397 -451 b 497 -346 450 -437 497 -385 "},"Ŀ":{"ha":886,"x_min":0,"x_max":0,"o":"m 357 28 l 468 28 b 836 319 606 28 781 128 l 858 319 l 817 1 l 31 1 l 31 14 b 142 149 86 19 142 44 l 142 825 b 31 961 142 929 86 956 l 31 974 l 476 974 l 476 961 b 357 825 415 956 357 929 m 571 525 b 671 622 571 578 617 622 b 769 525 725 622 769 578 b 671 426 769 471 725 426 b 571 525 617 426 571 471 "},"Ł":{"ha":886,"x_min":0,"x_max":0,"o":"m 31 0 l 31 13 b 142 147 86 18 142 43 l 142 281 l 0 183 l 0 221 l 142 318 l 142 824 b 31 960 142 928 86 954 l 31 972 l 476 972 l 476 960 b 357 824 415 954 357 928 l 357 467 l 626 653 l 626 615 l 357 429 l 357 26 l 468 26 b 836 318 606 26 781 126 l 858 318 l 817 0 "},"Ń":{"ha":1049,"x_min":0,"x_max":0,"o":"m 608 1249 b 667 1275 628 1267 647 1275 b 729 1213 701 1275 729 1247 b 663 1139 729 1182 706 1151 l 450 1076 l 431 1076 m 840 -18 l 207 783 l 208 272 b 393 13 210 86 297 18 l 393 0 l 17 0 l 17 13 b 171 260 101 17 169 75 l 175 714 b 19 960 176 854 121 950 l 19 972 l 333 972 l 847 319 l 843 717 b 672 960 842 878 772 951 l 672 972 l 1032 972 l 1032 960 b 881 717 932 954 882 879 l 876 -18 "},"Ň":{"ha":1049,"x_min":0,"x_max":0,"o":"m 536 1176 l 738 1258 l 754 1258 l 582 1081 l 488 1081 l 321 1258 l 342 1258 m 840 -18 l 207 783 l 208 272 b 393 13 210 86 297 18 l 393 0 l 17 0 l 17 13 b 171 260 101 17 169 75 l 175 714 b 19 960 176 854 121 950 l 19 972 l 333 972 l 847 319 l 843 717 b 672 960 842 878 772 951 l 672 972 l 1032 972 l 1032 960 b 881 717 932 954 882 879 l 876 -18 "},"Ņ":{"ha":1049,"x_min":0,"x_max":0,"o":"m 840 -18 l 207 783 l 208 272 b 393 13 210 86 297 18 l 393 0 l 17 0 l 17 13 b 171 260 101 17 169 75 l 175 714 b 19 960 176 854 121 950 l 19 972 l 333 972 l 847 319 l 843 717 b 672 960 842 878 772 951 l 672 972 l 1032 972 l 1032 960 b 881 717 932 954 882 879 l 876 -18 m 551 -346 b 492 -292 551 -314 526 -306 b 425 -204 453 -278 425 -244 b 522 -111 425 -153 464 -111 b 622 -231 576 -111 622 -150 b 457 -468 622 -337 564 -444 l 451 -451 b 551 -346 504 -437 551 -385 "},"Ñ":{"ha":1049,"x_min":0,"x_max":0,"o":"m 749 1249 b 622 1089 736 1149 686 1089 b 421 1143 547 1089 492 1143 b 342 1088 383 1143 356 1126 l 329 1090 b 458 1247 340 1185 392 1247 b 657 1192 524 1247 593 1192 b 736 1251 690 1192 719 1207 l 749 1249 m 840 -18 l 207 783 l 208 272 b 393 13 210 86 297 18 l 393 0 l 17 0 l 17 13 b 171 260 101 17 169 75 l 175 714 b 19 960 176 854 121 950 l 19 972 l 333 972 l 847 319 l 843 717 b 672 960 842 878 772 951 l 672 972 l 1032 972 l 1032 960 b 881 717 932 954 882 879 l 876 -18 "},"Ó":{"ha":1117,"x_min":0,"x_max":0,"o":"m 632 1249 b 690 1275 651 1267 671 1275 b 753 1213 725 1275 753 1247 b 686 1139 753 1182 729 1151 l 474 1076 l 454 1076 m 556 -26 b 46 486 267 -26 46 200 b 563 999 46 772 278 999 b 1072 486 850 999 1072 772 b 556 -26 1072 199 840 -26 m 563 0 b 831 479 707 0 831 160 b 551 972 831 829 688 972 b 283 490 411 972 283 811 b 563 0 283 140 428 0 "},"Ŏ":{"ha":1117,"x_min":0,"x_max":0,"o":"m 560 1086 b 367 1264 457 1086 367 1146 l 386 1264 b 560 1179 397 1208 461 1179 b 733 1264 658 1179 722 1208 l 751 1264 b 560 1086 751 1146 661 1086 m 556 -26 b 46 486 267 -26 46 200 b 563 999 46 772 278 999 b 1072 486 850 999 1072 772 b 556 -26 1072 199 840 -26 m 563 0 b 831 479 707 0 831 160 b 551 972 831 829 688 972 b 283 490 411 972 283 811 b 563 0 283 140 428 0 "},"Ô":{"ha":1117,"x_min":0,"x_max":0,"o":"m 561 1163 l 360 1081 l 343 1081 l 515 1258 l 610 1258 l 776 1081 l 756 1081 m 556 -26 b 46 486 267 -26 46 200 b 563 999 46 772 278 999 b 1072 486 850 999 1072 772 b 556 -26 1072 199 840 -26 m 563 0 b 831 479 707 0 831 160 b 551 972 831 829 688 972 b 283 490 411 972 283 811 b 563 0 283 140 428 0 "},"Ö":{"ha":1117,"x_min":0,"x_max":0,"o":"m 428 1081 b 329 1179 374 1081 329 1125 b 428 1276 329 1231 374 1276 b 528 1179 483 1276 528 1232 b 428 1081 528 1125 483 1081 m 688 1081 b 588 1179 632 1081 588 1125 b 688 1276 588 1231 632 1276 b 786 1179 742 1276 786 1232 b 688 1081 786 1125 742 1081 m 556 -26 b 46 486 267 -26 46 200 b 563 999 46 772 278 999 b 1072 486 850 999 1072 772 b 556 -26 1072 199 840 -26 m 563 0 b 831 479 707 0 831 160 b 551 972 831 829 688 972 b 283 490 411 972 283 811 b 563 0 283 140 428 0 "},"Œ":{"ha":1519,"x_min":0,"x_max":0,"o":"m 565 6 b 754 181 660 6 754 65 l 754 786 b 557 964 754 915 658 964 b 285 490 415 964 285 817 b 565 6 285 138 433 6 m 717 0 b 558 -21 665 -14 611 -21 b 46 485 276 -21 46 203 b 565 990 46 767 285 990 b 710 972 611 990 661 985 l 1393 972 l 1433 725 l 1413 725 b 1067 946 1329 871 1194 946 l 969 946 l 969 522 l 1040 522 b 1274 692 1167 522 1258 581 l 1293 692 l 1293 324 l 1274 324 b 1040 494 1257 438 1165 494 l 969 494 l 969 26 l 1076 26 b 1446 297 1235 26 1396 135 l 1468 297 l 1431 0 "},"Ò":{"ha":1117,"x_min":0,"x_max":0,"o":"m 635 1076 l 422 1139 b 356 1213 379 1151 356 1182 b 418 1275 356 1247 383 1275 b 476 1249 438 1275 457 1267 l 654 1076 m 556 -26 b 46 486 267 -26 46 200 b 563 999 46 772 278 999 b 1072 486 850 999 1072 772 b 556 -26 1072 199 840 -26 m 563 0 b 831 479 707 0 831 160 b 551 972 831 829 688 972 b 283 490 411 972 283 811 b 563 0 283 140 428 0 "},"Ő":{"ha":1117,"x_min":0,"x_max":0,"o":"m 719 1224 b 785 1265 738 1250 761 1265 b 835 1218 814 1265 835 1244 b 776 1149 835 1194 817 1168 l 632 1078 l 618 1078 m 504 1224 b 571 1265 522 1250 546 1265 b 621 1218 599 1265 621 1244 b 563 1149 621 1194 603 1168 l 417 1078 l 403 1078 m 556 -26 b 46 486 267 -26 46 200 b 563 999 46 772 278 999 b 1072 486 850 999 1072 772 b 556 -26 1072 199 840 -26 m 563 0 b 831 479 707 0 831 160 b 551 972 831 829 688 972 b 283 490 411 972 283 811 b 563 0 283 140 428 0 "},"Ō":{"ha":1117,"x_min":0,"x_max":0,"o":"m 758 1172 l 758 1132 l 368 1132 l 368 1172 m 556 -26 b 46 486 267 -26 46 200 b 563 999 46 772 278 999 b 1072 486 850 999 1072 772 b 556 -26 1072 199 840 -26 m 563 0 b 831 479 707 0 831 160 b 551 972 831 829 688 972 b 283 490 411 972 283 811 b 563 0 283 140 428 0 "},"Ø":{"ha":1117,"x_min":0,"x_max":0,"o":"m 556 -26 b 236 83 433 -26 322 14 l 158 -7 l 117 -7 l 211 104 b 46 486 108 197 46 333 b 563 999 46 772 278 999 b 882 889 685 999 794 958 l 958 979 l 1000 979 l 906 868 b 1072 486 1008 775 1072 639 b 556 -26 1072 199 840 -26 m 283 490 b 318 229 283 385 296 299 l 783 775 b 551 972 731 913 639 972 b 283 490 411 972 283 811 m 563 0 b 831 479 707 0 831 160 b 796 740 831 585 818 671 l 331 194 b 563 0 385 58 475 0 "},"Õ":{"ha":1117,"x_min":0,"x_max":0,"o":"m 771 1249 b 644 1089 758 1149 708 1089 b 443 1143 569 1089 514 1143 b 364 1088 406 1143 378 1126 l 351 1090 b 481 1247 363 1185 414 1247 b 679 1192 546 1247 615 1192 b 758 1251 713 1192 742 1207 l 771 1249 m 556 -26 b 46 486 267 -26 46 200 b 563 999 46 772 278 999 b 1072 486 850 999 1072 772 b 556 -26 1072 199 840 -26 m 563 0 b 831 479 707 0 831 160 b 551 972 831 829 688 972 b 283 490 411 972 283 811 b 563 0 283 140 428 0 "},"Ŕ":{"ha":990,"x_min":0,"x_max":0,"o":"m 558 1249 b 617 1275 578 1267 597 1275 b 679 1213 651 1275 679 1247 b 613 1139 679 1182 656 1151 l 400 1076 l 381 1076 m 356 438 l 407 438 b 635 694 558 438 635 533 b 422 946 635 856 569 946 l 356 946 m 465 0 l 31 0 l 31 13 b 142 149 86 18 142 46 l 142 825 b 31 960 142 928 86 954 l 31 972 l 471 972 b 856 703 724 972 856 850 b 658 444 856 588 782 493 l 817 167 b 982 13 874 63 928 24 l 982 0 l 669 0 l 444 410 l 356 410 l 356 149 b 465 13 356 46 410 18 "},"Ř":{"ha":990,"x_min":0,"x_max":0,"o":"m 486 1176 l 688 1258 l 704 1258 l 532 1081 l 438 1081 l 271 1258 l 292 1258 m 356 438 l 407 438 b 635 694 558 438 635 533 b 422 946 635 856 569 946 l 356 946 m 465 0 l 31 0 l 31 13 b 142 149 86 18 142 46 l 142 825 b 31 960 142 928 86 954 l 31 972 l 471 972 b 856 703 724 972 856 850 b 658 444 856 588 782 493 l 817 167 b 982 13 874 63 928 24 l 982 0 l 669 0 l 444 410 l 356 410 l 356 149 b 465 13 356 46 410 18 "},"Ŗ":{"ha":990,"x_min":0,"x_max":0,"o":"m 356 438 l 407 438 b 635 694 558 438 635 533 b 422 946 635 856 569 946 l 356 946 m 465 0 l 31 0 l 31 13 b 142 149 86 18 142 46 l 142 825 b 31 960 142 928 86 954 l 31 972 l 471 972 b 856 703 724 972 856 850 b 658 444 856 588 782 493 l 817 167 b 982 13 874 63 928 24 l 982 0 l 669 0 l 444 410 l 356 410 l 356 149 b 465 13 356 46 410 18 m 538 -346 b 478 -292 538 -314 513 -306 b 411 -204 439 -278 411 -244 b 508 -111 411 -153 450 -111 b 608 -231 563 -111 608 -150 b 443 -468 608 -337 550 -444 l 438 -451 b 538 -346 490 -437 538 -385 "},"Ś":{"ha":819,"x_min":0,"x_max":0,"o":"m 486 1249 b 544 1275 506 1267 525 1275 b 607 1213 579 1275 607 1247 b 540 1139 607 1182 583 1151 l 328 1076 l 308 1076 m 757 283 b 385 -26 757 115 606 -26 b 57 47 260 -26 128 11 l 115 317 l 136 314 b 399 0 178 94 264 0 b 592 164 525 0 592 72 b 378 385 592 281 490 332 b 74 707 235 450 74 515 b 417 997 74 864 200 997 b 715 931 526 997 635 972 l 658 694 l 636 697 b 403 972 608 879 532 972 b 213 818 292 972 213 913 b 442 608 213 711 321 661 b 757 283 590 543 757 474 "},"Š":{"ha":819,"x_min":0,"x_max":0,"o":"m 414 1176 l 615 1258 l 632 1258 l 460 1081 l 365 1081 l 199 1258 l 219 1258 m 757 283 b 385 -26 757 115 606 -26 b 57 47 260 -26 128 11 l 115 317 l 136 314 b 399 0 178 94 264 0 b 592 164 525 0 592 72 b 378 385 592 281 490 332 b 74 707 235 450 74 515 b 417 997 74 864 200 997 b 715 931 526 997 635 972 l 658 694 l 636 697 b 403 972 608 879 532 972 b 213 818 292 972 213 913 b 442 608 213 711 321 661 b 757 283 590 543 757 474 "},"Ş":{"ha":819,"x_min":0,"x_max":0,"o":"m 386 -368 b 236 -324 322 -368 272 -350 l 243 -307 b 351 -339 275 -331 314 -339 b 481 -243 424 -339 481 -312 b 324 -165 481 -178 432 -150 l 319 -160 l 389 -26 l 385 -26 b 57 47 260 -26 128 11 l 115 317 l 136 314 b 399 0 178 94 264 0 b 592 164 525 0 592 72 b 74 707 592 426 74 364 b 417 997 74 864 200 997 b 715 931 526 997 635 972 l 658 694 l 636 697 b 403 972 608 879 532 972 b 213 818 292 972 213 913 b 757 283 213 578 757 626 b 418 -25 757 124 621 -12 l 381 -97 b 436 -92 397 -94 415 -92 b 590 -218 524 -92 590 -137 b 386 -368 590 -304 510 -368 "},"Ŝ":{"ha":819,"x_min":0,"x_max":0,"o":"m 417 1163 l 215 1081 l 199 1081 l 371 1258 l 465 1258 l 632 1081 l 611 1081 m 757 283 b 385 -26 757 115 606 -26 b 57 47 260 -26 128 11 l 115 317 l 136 314 b 399 0 178 94 264 0 b 592 164 525 0 592 72 b 378 385 592 281 490 332 b 74 707 235 450 74 515 b 417 997 74 864 200 997 b 715 931 526 997 635 972 l 658 694 l 636 697 b 403 972 608 879 532 972 b 213 818 292 972 213 913 b 442 608 213 711 321 661 b 757 283 590 543 757 474 "},"Ș":{"ha":819,"x_min":0,"x_max":0,"o":"m 757 283 b 385 -26 757 115 606 -26 b 57 47 260 -26 128 11 l 115 317 l 136 314 b 399 0 178 94 264 0 b 592 164 525 0 592 72 b 378 385 592 281 490 332 b 74 707 235 450 74 515 b 417 997 74 864 200 997 b 715 931 526 997 635 972 l 658 694 l 636 697 b 403 972 608 879 532 972 b 213 818 292 972 213 913 b 442 608 213 711 321 661 b 757 283 590 543 757 474 m 440 -346 b 381 -292 440 -314 415 -306 b 314 -204 342 -278 314 -244 b 411 -111 314 -153 353 -111 b 511 -231 465 -111 511 -150 b 346 -468 511 -337 453 -444 l 340 -451 b 440 -346 393 -437 440 -385 "},"Ŧ":{"ha":907,"x_min":0,"x_max":0,"o":"m 678 0 l 232 0 l 232 13 b 347 150 290 18 347 43 l 347 510 l 118 510 l 118 538 l 347 538 l 347 946 l 325 946 b 61 740 214 946 135 889 l 31 678 l 13 678 l 54 972 l 858 972 l 894 678 l 876 678 l 842 743 b 590 946 761 899 696 946 l 563 946 l 563 538 l 793 538 l 793 510 l 563 510 l 563 150 b 678 13 563 43 619 18 "},"Ť":{"ha":907,"x_min":0,"x_max":0,"o":"m 453 1176 l 654 1258 l 671 1258 l 499 1081 l 404 1081 l 238 1258 l 258 1258 m 858 972 l 894 678 l 876 678 l 842 743 b 590 946 761 899 696 946 l 563 946 l 563 150 b 678 13 563 43 619 18 l 678 0 l 232 0 l 232 13 b 347 150 290 18 347 43 l 347 946 l 325 946 b 61 740 214 946 135 889 l 31 678 l 13 678 l 54 972 "},"Ţ":{"ha":907,"x_min":0,"x_max":0,"o":"m 858 972 l 894 678 l 876 678 l 842 743 b 590 946 761 899 696 946 l 563 946 l 563 150 b 678 13 563 43 619 18 l 678 0 l 232 0 l 232 13 b 347 150 290 18 347 43 l 347 946 l 325 946 b 61 740 214 946 135 889 l 31 678 l 13 678 l 54 972 m 432 -354 b 282 -310 368 -354 318 -336 l 289 -293 b 397 -325 321 -317 360 -325 b 526 -229 469 -325 526 -299 b 369 -151 526 -164 478 -136 l 365 -146 l 442 0 l 469 0 l 426 -83 b 482 -78 443 -81 461 -78 b 636 -204 569 -78 636 -124 b 432 -354 636 -290 556 -354 "},"Ț":{"ha":907,"x_min":0,"x_max":0,"o":"m 858 972 l 894 678 l 876 678 l 842 743 b 590 946 761 899 696 946 l 563 946 l 563 150 b 678 13 563 43 619 18 l 678 0 l 232 0 l 232 13 b 347 150 290 18 347 43 l 347 946 l 325 946 b 61 740 214 946 135 889 l 31 678 l 13 678 l 54 972 m 485 -346 b 425 -292 485 -314 460 -306 b 358 -204 386 -278 358 -244 b 456 -111 358 -153 397 -111 b 556 -231 510 -111 556 -150 b 390 -468 556 -337 497 -444 l 385 -451 b 485 -346 438 -437 485 -385 "},"Þ":{"ha":893,"x_min":0,"x_max":0,"o":"m 468 0 l 31 0 l 31 13 b 142 147 88 18 142 44 l 142 825 b 31 960 142 929 88 954 l 31 972 l 468 972 l 468 960 b 356 825 411 954 356 928 l 356 779 l 463 779 b 853 504 724 779 853 656 b 453 207 853 333 700 207 l 356 207 l 356 147 b 468 13 356 44 411 18 m 356 753 l 356 235 l 403 235 b 635 496 558 235 635 335 b 418 753 635 661 569 753 "},"Ú":{"ha":1024,"x_min":0,"x_max":0,"o":"m 621 1249 b 679 1275 640 1267 660 1275 b 742 1213 714 1275 742 1247 b 675 1139 742 1182 718 1151 l 463 1076 l 443 1076 m 858 360 b 508 -26 856 132 744 -26 b 138 319 257 -26 138 119 l 138 825 b 22 960 138 928 78 954 l 22 972 l 467 972 l 467 960 b 351 825 408 954 351 928 l 351 285 b 576 39 351 142 433 39 b 826 375 718 39 825 143 l 828 674 b 661 960 829 838 782 954 l 661 972 l 1006 972 l 1006 960 b 863 671 894 954 864 838 "},"Ŭ":{"ha":1024,"x_min":0,"x_max":0,"o":"m 550 1086 b 357 1264 447 1086 357 1146 l 376 1264 b 550 1179 388 1208 451 1179 b 724 1264 649 1179 713 1208 l 742 1264 b 550 1086 742 1146 651 1086 m 858 360 b 508 -26 856 132 744 -26 b 138 319 257 -26 138 119 l 138 825 b 22 960 138 928 78 954 l 22 972 l 467 972 l 467 960 b 351 825 408 954 351 928 l 351 285 b 576 39 351 142 433 39 b 826 375 718 39 825 143 l 828 674 b 661 960 829 838 782 954 l 661 972 l 1006 972 l 1006 960 b 863 671 894 954 864 838 "},"Û":{"ha":1024,"x_min":0,"x_max":0,"o":"m 551 1163 l 350 1081 l 333 1081 l 506 1258 l 600 1258 l 767 1081 l 746 1081 m 858 360 b 508 -26 856 132 744 -26 b 138 319 257 -26 138 119 l 138 825 b 22 960 138 928 78 954 l 22 972 l 467 972 l 467 960 b 351 825 408 954 351 928 l 351 285 b 576 39 351 142 433 39 b 826 375 718 39 825 143 l 828 674 b 661 960 829 838 782 954 l 661 972 l 1006 972 l 1006 960 b 863 671 894 954 864 838 "},"Ü":{"ha":1024,"x_min":0,"x_max":0,"o":"m 418 1081 b 319 1179 364 1081 319 1125 b 418 1276 319 1231 364 1276 b 518 1179 474 1276 518 1232 b 418 1081 518 1125 474 1081 m 678 1081 b 578 1179 622 1081 578 1125 b 678 1276 578 1231 622 1276 b 776 1179 732 1276 776 1232 b 678 1081 776 1125 732 1081 m 858 360 b 508 -26 856 132 744 -26 b 138 319 257 -26 138 119 l 138 825 b 22 960 138 928 78 954 l 22 972 l 467 972 l 467 960 b 351 825 408 954 351 928 l 351 285 b 576 39 351 142 433 39 b 826 375 718 39 825 143 l 828 674 b 661 960 829 838 782 954 l 661 972 l 1006 972 l 1006 960 b 863 671 894 954 864 838 "},"Ù":{"ha":1024,"x_min":0,"x_max":0,"o":"m 625 1076 l 413 1139 b 346 1213 369 1151 346 1182 b 408 1275 346 1247 374 1275 b 467 1249 428 1275 447 1267 l 644 1076 m 858 360 b 508 -26 856 132 744 -26 b 138 319 257 -26 138 119 l 138 825 b 22 960 138 928 78 954 l 22 972 l 467 972 l 467 960 b 351 825 408 954 351 928 l 351 285 b 576 39 351 142 433 39 b 826 375 718 39 825 143 l 828 674 b 661 960 829 838 782 954 l 661 972 l 1006 972 l 1006 960 b 863 671 894 954 864 838 "},"Ű":{"ha":1024,"x_min":0,"x_max":0,"o":"m 721 1224 b 786 1265 739 1250 763 1265 b 836 1218 815 1265 836 1244 b 778 1149 836 1194 818 1168 l 633 1078 l 619 1078 m 506 1224 b 572 1265 524 1250 547 1265 b 622 1218 600 1265 622 1244 b 564 1149 622 1194 604 1168 l 418 1078 l 404 1078 m 858 360 b 508 -26 856 132 744 -26 b 138 319 257 -26 138 119 l 138 825 b 22 960 138 928 78 954 l 22 972 l 467 972 l 467 960 b 351 825 408 954 351 928 l 351 285 b 576 39 351 142 433 39 b 826 375 718 39 825 143 l 828 674 b 661 960 829 838 782 954 l 661 972 l 1006 972 l 1006 960 b 863 671 894 954 864 838 "},"Ū":{"ha":1024,"x_min":0,"x_max":0,"o":"m 749 1172 l 749 1132 l 358 1132 l 358 1172 m 858 360 b 508 -26 856 132 744 -26 b 138 319 257 -26 138 119 l 138 825 b 22 960 138 928 78 954 l 22 972 l 467 972 l 467 960 b 351 825 408 954 351 928 l 351 285 b 576 39 351 142 433 39 b 826 375 718 39 825 143 l 828 674 b 661 960 829 838 782 954 l 661 972 l 1006 972 l 1006 960 b 863 671 894 954 864 838 "},"Ų":{"ha":1024,"x_min":0,"x_max":0,"o":"m 597 -337 b 461 -201 510 -337 461 -278 b 574 -22 461 -132 503 -64 b 508 -26 553 -25 532 -26 b 138 319 257 -26 138 119 l 138 825 b 22 960 138 928 78 954 l 22 972 l 467 972 l 467 960 b 351 825 408 954 351 928 l 351 285 b 576 39 351 142 433 39 b 826 375 718 39 825 143 l 828 674 b 661 960 829 838 782 954 l 661 972 l 1006 972 l 1006 960 b 863 671 894 954 864 838 l 858 360 b 654 -1 856 186 790 51 b 572 -161 604 -24 572 -81 b 656 -285 572 -244 607 -285 b 717 -261 678 -285 700 -278 l 728 -269 b 597 -337 699 -311 656 -337 "},"Ů":{"ha":1024,"x_min":0,"x_max":0,"o":"m 549 1332 b 685 1196 624 1332 685 1271 b 549 1060 685 1121 624 1060 b 414 1196 474 1060 414 1121 b 549 1332 414 1271 474 1332 m 549 1304 b 449 1196 493 1304 449 1254 b 549 1089 449 1136 493 1089 b 650 1196 604 1089 650 1136 b 549 1304 650 1254 604 1304 m 858 360 b 508 -26 856 132 744 -26 b 138 319 257 -26 138 119 l 138 825 b 22 960 138 928 78 954 l 22 972 l 467 972 l 467 960 b 351 825 408 954 351 928 l 351 285 b 576 39 351 142 433 39 b 826 375 718 39 825 143 l 828 674 b 661 960 829 838 782 954 l 661 972 l 1006 972 l 1006 960 b 863 671 894 954 864 838 "},"Ũ":{"ha":1024,"x_min":0,"x_max":0,"o":"m 760 1249 b 633 1089 747 1149 697 1089 b 432 1143 558 1089 503 1143 b 353 1088 394 1143 367 1126 l 340 1090 b 469 1247 351 1185 403 1247 b 668 1192 535 1247 604 1192 b 747 1251 701 1192 731 1207 l 760 1249 m 858 360 b 508 -26 856 132 744 -26 b 138 319 257 -26 138 119 l 138 825 b 22 960 138 928 78 954 l 22 972 l 467 972 l 467 960 b 351 825 408 954 351 928 l 351 285 b 576 39 351 142 433 39 b 826 375 718 39 825 143 l 828 674 b 661 960 829 838 782 954 l 661 972 l 1006 972 l 1006 960 b 863 671 894 954 864 838 "},"Ẃ":{"ha":1476,"x_min":0,"x_max":0,"o":"m 818 1249 b 876 1275 838 1267 857 1275 b 939 1213 911 1275 939 1247 b 872 1139 939 1182 915 1151 l 660 1076 l 640 1076 m 736 610 l 510 -12 l 461 -12 l 160 781 b 10 960 115 899 75 950 l 10 972 l 439 972 l 439 960 b 386 792 371 950 342 913 l 581 272 l 719 654 l 664 804 b 533 960 631 899 588 950 l 533 972 l 953 972 l 953 960 b 899 793 886 951 856 911 l 1083 288 l 1199 629 b 1113 960 1272 851 1225 950 l 1113 972 l 1465 972 l 1465 960 b 1257 704 1389 954 1317 881 l 1014 -12 l 967 -12 "},"Ẅ":{"ha":1476,"x_min":0,"x_max":0,"o":"m 615 1081 b 517 1179 561 1081 517 1125 b 615 1276 517 1231 561 1276 b 715 1179 671 1276 715 1232 b 615 1081 715 1125 671 1081 m 875 1081 b 775 1179 819 1081 775 1125 b 875 1276 775 1231 819 1276 b 974 1179 929 1276 974 1232 b 875 1081 974 1125 929 1081 m 736 610 l 510 -12 l 461 -12 l 160 781 b 10 960 115 899 75 950 l 10 972 l 439 972 l 439 960 b 386 792 371 950 342 913 l 581 272 l 719 654 l 664 804 b 533 960 631 899 588 950 l 533 972 l 953 972 l 953 960 b 899 793 886 951 856 911 l 1083 288 l 1199 629 b 1113 960 1272 851 1225 950 l 1113 972 l 1465 972 l 1465 960 b 1257 704 1389 954 1317 881 l 1014 -12 l 967 -12 "},"Ẁ":{"ha":1476,"x_min":0,"x_max":0,"o":"m 822 1076 l 610 1139 b 543 1213 567 1151 543 1182 b 606 1275 543 1247 571 1275 b 664 1249 625 1275 644 1267 l 842 1076 m 736 610 l 510 -12 l 461 -12 l 160 781 b 10 960 115 899 75 950 l 10 972 l 439 972 l 439 960 b 386 792 371 950 342 913 l 581 272 l 719 654 l 664 804 b 533 960 631 899 588 950 l 533 972 l 953 972 l 953 960 b 899 793 886 951 856 911 l 1083 288 l 1199 629 b 1113 960 1272 851 1225 950 l 1113 972 l 1465 972 l 1465 960 b 1257 704 1389 954 1317 881 l 1014 -12 l 967 -12 "},"Ŵ":{"ha":1476,"x_min":0,"x_max":0,"o":"m 749 1163 l 547 1081 l 531 1081 l 703 1258 l 797 1258 l 964 1081 l 943 1081 m 736 610 l 510 -12 l 461 -12 l 160 781 b 10 960 115 899 75 950 l 10 972 l 439 972 l 439 960 b 386 792 371 950 342 913 l 581 272 l 719 654 l 664 804 b 533 960 631 899 588 950 l 533 972 l 953 972 l 953 960 b 899 793 886 951 856 911 l 1083 288 l 1199 629 b 1113 960 1272 851 1225 950 l 1113 972 l 1465 972 l 1465 960 b 1257 704 1389 954 1317 881 l 1014 -12 l 967 -12 "},"Ý":{"ha":950,"x_min":0,"x_max":0,"o":"m 569 1249 b 628 1275 589 1267 608 1275 b 690 1213 663 1275 690 1247 b 624 1139 690 1182 667 1151 l 411 1076 l 392 1076 m 239 0 l 239 13 b 354 147 297 18 354 44 l 354 421 l 143 825 b 10 960 97 911 60 947 l 10 972 l 438 972 l 438 960 b 381 819 363 951 342 896 l 553 467 l 672 697 b 614 960 756 858 725 944 l 614 972 l 942 972 l 942 960 b 731 743 881 954 808 890 l 568 431 l 568 147 b 683 13 568 44 625 18 l 683 0 "},"Ŷ":{"ha":950,"x_min":0,"x_max":0,"o":"m 499 1163 l 297 1081 l 281 1081 l 453 1258 l 547 1258 l 714 1081 l 693 1081 m 239 0 l 239 13 b 354 147 297 18 354 44 l 354 421 l 143 825 b 10 960 97 911 60 947 l 10 972 l 438 972 l 438 960 b 381 819 363 951 342 896 l 553 467 l 672 697 b 614 960 756 858 725 944 l 614 972 l 942 972 l 942 960 b 731 743 881 954 808 890 l 568 431 l 568 147 b 683 13 568 44 625 18 l 683 0 "},"Ÿ":{"ha":950,"x_min":0,"x_max":0,"o":"m 365 1081 b 267 1179 311 1081 267 1125 b 365 1276 267 1231 311 1276 b 465 1179 421 1276 465 1232 b 365 1081 465 1125 421 1081 m 625 1081 b 525 1179 569 1081 525 1125 b 625 1276 525 1231 569 1276 b 724 1179 679 1276 724 1232 b 625 1081 724 1125 679 1081 m 239 0 l 239 13 b 354 147 297 18 354 44 l 354 421 l 143 825 b 10 960 97 911 60 947 l 10 972 l 438 972 l 438 960 b 381 819 363 951 342 896 l 553 467 l 672 697 b 614 960 756 858 725 944 l 614 972 l 942 972 l 942 960 b 731 743 881 954 808 890 l 568 431 l 568 147 b 683 13 568 44 625 18 l 683 0 "},"Ỳ":{"ha":950,"x_min":0,"x_max":0,"o":"m 572 1076 l 360 1139 b 293 1213 317 1151 293 1182 b 356 1275 293 1247 321 1275 b 414 1249 375 1275 394 1267 l 592 1076 m 239 0 l 239 13 b 354 147 297 18 354 44 l 354 421 l 143 825 b 10 960 97 911 60 947 l 10 972 l 438 972 l 438 960 b 381 819 363 951 342 896 l 553 467 l 672 697 b 614 960 756 858 725 944 l 614 972 l 942 972 l 942 960 b 731 743 881 954 808 890 l 568 431 l 568 147 b 683 13 568 44 625 18 l 683 0 "},"Ź":{"ha":889,"x_min":0,"x_max":0,"o":"m 528 1249 b 586 1275 547 1267 567 1275 b 649 1213 621 1275 649 1247 b 582 1139 649 1182 625 1151 l 369 1076 l 350 1076 m 38 17 l 582 949 l 474 949 b 96 692 294 949 164 843 l 74 692 l 125 972 l 813 972 l 815 956 l 281 24 l 429 24 b 804 324 585 24 729 139 l 825 324 l 789 0 l 40 0 "},"Ž":{"ha":889,"x_min":0,"x_max":0,"o":"m 454 1176 l 656 1258 l 672 1258 l 500 1081 l 406 1081 l 239 1258 l 260 1258 m 38 17 l 582 949 l 474 949 b 96 692 294 949 164 843 l 74 692 l 125 972 l 813 972 l 815 956 l 281 24 l 429 24 b 804 324 585 24 729 139 l 825 324 l 789 0 l 40 0 "},"Ż":{"ha":889,"x_min":0,"x_max":0,"o":"m 454 1081 b 354 1179 400 1081 354 1125 b 454 1276 354 1231 400 1276 b 553 1179 508 1276 553 1232 b 454 1081 553 1125 508 1081 m 38 17 l 582 949 l 474 949 b 96 692 294 949 164 843 l 74 692 l 125 972 l 813 972 l 815 956 l 281 24 l 429 24 b 804 324 585 24 729 139 l 825 324 l 789 0 l 40 0 "},"a":{"ha":696,"x_min":0,"x_max":0,"o":"m 304 61 b 390 100 332 61 361 72 b 388 138 389 111 388 124 l 388 367 b 221 168 254 311 221 242 b 304 61 221 93 258 61 m 521 -18 b 394 75 458 -18 413 11 b 197 -22 338 11 267 -22 b 36 125 111 -22 36 32 b 388 389 36 221 106 303 l 388 497 b 315 635 388 597 363 635 b 239 508 261 635 258 586 b 147 426 225 453 189 426 b 68 507 101 426 68 460 b 321 656 68 588 157 656 b 578 439 496 656 578 575 l 578 135 b 621 61 578 85 592 61 b 683 104 643 61 663 74 l 696 96 b 521 -18 650 17 590 -18 "},"b":{"ha":763,"x_min":0,"x_max":0,"o":"m 383 -22 b 188 85 292 -22 222 21 l 114 -12 l 99 -12 l 99 851 b 0 956 99 938 53 958 l 0 969 l 276 1046 l 288 1042 l 288 532 b 490 656 333 606 407 656 b 722 358 625 656 722 531 b 383 -22 722 135 554 -22 m 386 0 b 529 285 461 0 529 96 b 381 542 529 460 468 542 b 288 499 344 542 315 528 l 288 142 b 386 0 288 33 340 0 "},"":{"ha":763,"x_min":0,"x_max":0,"o":"m 383 -22 b 722 358 554 -22 722 135 b 490 656 722 531 625 656 b 288 532 407 656 333 606 l 288 1042 l 276 1046 l 0 969 l 0 956 b 99 851 53 958 99 938 l 99 -12 l 114 -12 l 188 85 b 383 -22 222 21 292 -22 m 386 0 b 288 142 340 0 288 33 l 288 499 b 381 542 315 528 344 542 b 529 285 468 542 529 460 b 386 0 529 96 461 0 "},"c":{"ha":654,"x_min":0,"x_max":0,"o":"m 432 494 b 339 631 413 556 404 631 b 213 394 269 631 213 547 b 436 108 213 210 308 108 b 606 208 508 108 567 142 l 619 201 b 347 -22 576 57 482 -22 b 40 307 174 -22 40 111 b 375 656 40 507 178 656 b 601 513 522 656 601 581 b 517 431 601 468 567 431 b 432 494 479 431 446 451 "},"d":{"ha":768,"x_min":0,"x_max":0,"o":"m 375 92 b 465 133 413 92 443 107 l 465 528 b 364 635 449 604 406 635 b 222 351 290 635 222 532 b 375 92 222 182 286 92 m 469 110 b 269 -22 426 38 354 -22 b 40 276 143 -22 40 99 b 368 656 40 494 199 656 b 465 631 404 656 438 647 l 465 851 b 367 956 465 938 419 958 l 367 969 l 643 1046 l 654 1042 l 654 142 b 746 29 654 53 692 26 l 746 15 l 481 -19 l 469 -15 "},"e":{"ha":657,"x_min":0,"x_max":0,"o":"m 615 203 b 343 -22 574 56 471 -22 b 40 304 172 -22 40 118 b 353 656 40 510 193 656 b 621 381 497 656 615 553 l 213 381 b 428 108 215 213 303 108 b 601 208 500 108 563 142 l 615 203 m 343 631 b 213 408 275 631 219 547 l 442 408 b 343 631 440 569 401 631 "},"f":{"ha":460,"x_min":0,"x_max":0,"o":"m 399 0 l 28 0 l 28 13 b 118 125 76 17 118 43 l 118 604 l 13 604 l 13 631 l 118 631 l 118 674 b 369 993 118 899 254 993 b 531 874 472 993 531 939 b 449 788 531 824 494 788 b 367 867 408 788 367 813 b 381 939 367 893 381 918 b 347 971 381 958 367 971 b 283 840 310 971 283 928 b 307 631 283 775 300 703 l 446 631 l 446 604 l 308 604 l 308 125 b 399 13 308 43 350 17 "},"g":{"ha":708,"x_min":0,"x_max":0,"o":"m 244 426 b 351 219 244 283 297 219 b 458 425 404 219 458 283 b 351 632 458 568 404 632 b 244 426 297 632 244 568 m 703 -89 b 311 -337 703 -212 572 -337 b -10 -182 128 -337 -10 -281 b 138 -40 -10 -114 56 -64 b 56 81 86 -17 56 24 b 181 236 56 147 103 201 b 58 421 107 276 58 343 b 349 656 58 549 190 656 b 478 631 390 656 435 647 l 693 631 l 693 600 l 626 600 b 535 603 593 600 563 601 b 644 428 597 564 644 506 b 347 196 644 292 503 196 b 208 224 297 196 250 206 b 154 157 167 203 154 181 b 254 107 156 128 175 111 l 446 100 b 703 -89 603 93 703 29 m 328 -315 b 564 -171 458 -315 564 -264 b 456 -74 564 -115 531 -76 l 258 -67 b 185 -57 232 -65 207 -62 b 124 -167 142 -82 124 -121 b 328 -315 124 -265 201 -315 "},"h":{"ha":818,"x_min":0,"x_max":0,"o":"m 382 0 l 31 0 l 31 13 b 119 122 75 17 119 40 l 119 851 b 21 956 119 938 74 958 l 21 969 l 297 1046 l 308 1042 l 308 543 b 536 656 367 606 450 656 b 703 481 638 656 703 596 l 703 122 b 793 13 703 40 747 17 l 793 0 l 440 0 l 440 11 b 514 125 486 15 514 43 l 514 443 b 428 571 514 533 483 571 b 308 510 388 571 343 546 l 308 125 b 382 11 308 39 339 15 "},"i":{"ha":432,"x_min":0,"x_max":0,"o":"m 103 860 b 217 974 103 924 154 974 b 333 860 282 974 333 924 b 217 747 333 799 282 747 b 103 860 154 747 103 799 m 35 0 l 35 13 b 125 122 79 17 125 40 l 125 456 b 24 561 125 542 78 564 l 24 574 l 306 653 l 317 649 l 314 479 l 314 122 b 407 13 314 40 361 17 l 407 0 "},"j":{"ha":401,"x_min":0,"x_max":0,"o":"m 93 860 b 208 974 93 924 146 974 b 325 860 274 974 325 924 b 208 747 325 799 274 747 b 93 860 146 747 93 799 m 32 -333 b -149 -214 -72 -333 -149 -286 b -62 -128 -149 -165 -112 -128 b 19 -208 -15 -128 19 -158 b 7 -281 19 -236 7 -261 b 43 -310 7 -301 21 -310 b 119 -167 97 -310 119 -268 b 117 93 119 -121 117 29 l 117 456 b 15 561 117 542 69 564 l 15 574 l 297 653 l 308 649 l 306 479 l 306 24 b 32 -333 306 -203 188 -333 "},"k":{"ha":797,"x_min":0,"x_max":0,"o":"m 308 121 b 397 11 308 49 346 15 l 397 0 l 31 0 l 31 13 b 119 121 75 17 119 39 l 119 851 b 21 956 119 938 74 958 l 21 969 l 297 1046 l 308 1042 m 535 0 l 342 293 l 342 297 l 467 435 b 472 618 557 533 540 610 l 472 631 l 772 631 l 772 618 b 501 431 675 610 606 547 l 483 410 l 661 146 b 792 13 729 44 756 19 l 792 0 "},"l":{"ha":428,"x_min":0,"x_max":0,"o":"m 308 122 b 401 13 308 40 356 17 l 401 0 l 29 0 l 29 13 b 119 122 74 17 119 40 l 119 851 b 21 956 119 938 74 958 l 21 969 l 297 1046 l 308 1042 "},"m":{"ha":1174,"x_min":0,"x_max":0,"o":"m 381 0 l 35 0 l 35 13 b 125 122 81 17 125 40 l 125 456 b 24 561 125 542 78 564 l 24 574 l 300 653 l 311 649 l 311 547 b 524 656 369 610 443 656 b 679 543 603 656 660 617 b 896 656 736 607 813 656 b 1058 481 994 656 1058 596 l 1058 122 b 1150 13 1058 40 1103 17 l 1150 0 l 804 0 l 804 11 b 869 125 850 15 869 43 l 869 443 b 789 571 869 533 842 571 b 685 514 756 571 717 551 b 686 481 686 504 686 493 l 686 125 b 753 11 686 43 707 15 l 753 0 l 431 0 l 431 11 b 497 125 478 15 497 47 l 497 443 b 417 571 497 533 469 571 b 314 518 385 571 347 553 l 314 125 b 381 11 314 43 335 15 "},"n":{"ha":824,"x_min":0,"x_max":0,"o":"m 388 0 l 35 0 l 35 13 b 125 122 79 17 125 40 l 125 456 b 24 561 125 542 78 564 l 24 574 l 300 653 l 311 649 l 311 539 b 542 656 369 603 454 656 b 708 481 643 656 708 596 l 708 122 b 800 13 708 40 753 17 l 800 0 l 446 0 l 446 11 b 519 125 493 15 519 43 l 519 443 b 433 571 519 533 489 571 b 314 510 393 571 349 546 l 314 125 b 388 11 314 43 343 15 "},"o":{"ha":744,"x_min":0,"x_max":0,"o":"m 372 -22 b 40 314 181 -22 40 125 b 372 656 40 501 190 656 b 706 318 571 656 706 507 b 372 -22 706 133 563 -22 m 244 319 b 372 0 244 128 293 0 b 499 314 436 0 499 68 b 367 633 499 510 449 633 b 244 319 304 633 244 560 "},"p":{"ha":778,"x_min":0,"x_max":0,"o":"m 406 0 b 546 285 478 0 546 104 b 400 540 546 460 485 540 b 304 494 361 540 328 524 l 304 117 b 406 0 319 33 365 0 m 400 -321 l 22 -321 l 22 -307 b 115 -199 68 -303 115 -281 l 115 456 b 13 561 115 542 67 564 l 13 574 l 290 653 l 301 649 l 301 526 b 506 656 339 590 410 656 b 739 357 650 656 739 519 b 406 -22 739 135 569 -22 b 304 4 367 -22 332 -12 l 304 -199 b 400 -307 304 -281 351 -303 "},"q":{"ha":750,"x_min":0,"x_max":0,"o":"m 374 -321 l 374 -307 b 465 -189 419 -303 465 -281 l 465 99 b 271 -22 419 26 350 -22 b 40 276 142 -22 40 100 b 376 656 40 493 200 656 b 565 556 447 656 517 626 l 639 642 l 654 642 l 654 -185 b 746 -307 651 -269 696 -304 l 746 -321 m 378 92 b 465 129 417 92 443 106 l 465 497 b 369 635 465 601 417 635 b 222 347 294 635 222 529 b 378 92 222 176 286 92 "},"r":{"ha":621,"x_min":0,"x_max":0,"o":"m 400 0 l 33 0 l 33 13 b 125 121 79 17 125 39 l 125 456 b 24 561 125 540 79 564 l 24 574 l 300 653 l 311 649 l 311 486 b 507 664 358 600 440 664 b 599 572 565 664 599 622 b 511 481 599 521 563 481 b 392 536 453 481 432 536 b 314 442 358 536 333 500 l 314 125 b 400 11 314 43 353 15 "},"s":{"ha":576,"x_min":0,"x_max":0,"o":"m 285 1 b 399 94 357 1 399 40 b 282 214 399 153 346 183 b 53 450 182 263 53 308 b 303 656 53 560 138 656 b 517 603 383 656 461 636 l 469 442 l 457 443 b 281 628 432 561 356 628 b 172 542 213 628 172 592 b 332 400 172 471 249 438 b 535 182 429 354 535 304 b 272 -22 535 61 440 -22 b 33 31 183 -22 85 1 l 86 213 l 101 211 b 285 1 118 82 192 1 "},"":{"ha":576,"x_min":0,"x_max":0,"o":"m 285 1 b 101 211 192 1 118 82 l 86 213 l 33 31 b 272 -22 85 1 183 -22 b 535 182 440 -22 535 61 b 332 400 535 304 429 354 b 172 542 249 438 172 471 b 281 628 172 592 213 628 b 457 443 356 628 432 561 l 469 442 l 517 603 b 303 656 461 636 383 656 b 53 450 138 656 53 560 b 282 214 53 308 182 263 b 399 94 346 183 399 153 b 285 1 399 40 357 1 "},"t":{"ha":469,"x_min":0,"x_max":0,"o":"m 288 604 l 288 181 b 357 88 288 117 315 88 b 444 144 389 88 417 104 l 458 135 b 243 -21 400 32 321 -21 b 99 139 154 -21 99 49 l 99 603 l 10 603 l 10 618 b 268 910 119 649 228 769 l 288 910 l 288 631 l 442 631 l 442 604 "},"u":{"ha":801,"x_min":0,"x_max":0,"o":"m 500 86 b 281 -22 433 14 354 -22 b 118 157 182 -22 118 40 l 118 456 b 19 561 118 542 72 564 l 19 574 l 296 653 l 307 649 l 307 181 b 392 60 307 96 339 60 b 496 111 424 60 461 76 l 496 457 b 404 561 496 543 454 564 l 404 574 l 675 653 l 686 649 l 686 143 b 778 31 686 56 724 28 l 778 17 l 511 -18 l 500 -14 "},"v":{"ha":744,"x_min":0,"x_max":0,"o":"m 346 -11 l 121 482 b 6 619 83 565 49 610 l 6 631 l 385 631 l 385 619 b 329 478 322 615 293 564 l 447 207 l 525 379 b 472 619 586 515 568 608 l 472 631 l 739 631 l 739 619 b 568 403 679 610 635 549 l 383 -11 "},"w":{"ha":1075,"x_min":0,"x_max":0,"o":"m 533 404 l 374 -11 l 328 -11 l 111 483 b 6 618 72 571 49 607 l 6 631 l 336 631 l 336 618 b 314 483 290 614 278 568 l 429 214 l 518 446 l 503 483 b 393 618 464 582 431 611 l 393 631 l 738 631 l 738 618 b 694 506 679 614 668 574 l 800 217 l 865 382 b 807 618 921 522 894 607 l 807 631 l 1069 631 l 1069 618 b 907 404 1018 613 971 564 l 739 -11 l 694 -11 "},"":{"ha":1075,"x_min":0,"x_max":0,"o":"m 694 -11 l 739 -11 l 907 404 b 1069 618 971 564 1018 613 l 1069 631 l 807 631 l 807 618 b 865 382 894 607 921 522 l 800 217 l 694 506 b 738 618 668 574 679 614 l 738 631 l 393 631 l 393 618 b 503 483 431 611 464 582 l 518 446 l 429 214 l 314 483 b 336 618 278 568 290 614 l 336 631 l 6 631 l 6 618 b 111 483 49 607 72 571 l 328 -11 l 374 -11 l 533 404 "},"x":{"ha":747,"x_min":0,"x_max":0,"o":"m 294 0 l 6 0 l 6 13 b 226 189 65 18 142 69 l 294 285 l 149 490 b 18 619 88 576 56 610 l 18 631 l 367 631 l 367 619 b 353 510 314 613 307 579 l 429 393 l 457 432 b 449 618 531 533 519 607 l 449 631 l 721 631 l 721 618 b 504 447 660 613 583 558 l 446 368 l 611 138 b 742 13 675 49 704 22 l 742 0 l 389 0 l 389 13 b 406 121 439 19 456 47 l 311 260 l 271 201 b 294 13 203 104 222 18 "},"y":{"ha":749,"x_min":0,"x_max":0,"o":"m 96 -331 b -35 -224 25 -331 -35 -293 b 54 -132 -35 -169 6 -132 b 136 -192 96 -132 121 -157 b 189 -260 153 -225 160 -260 b 294 -140 224 -260 265 -207 l 347 -19 l 121 482 b 6 619 82 568 49 610 l 6 631 l 385 631 l 385 619 b 333 472 322 615 294 561 l 449 207 l 526 386 b 472 619 585 517 567 610 l 472 631 l 739 631 l 739 619 b 560 383 676 610 633 549 l 322 -151 b 96 -331 267 -276 182 -331 "},"":{"ha":749,"x_min":0,"x_max":0,"o":"m 96 -331 b 322 -151 182 -331 267 -276 l 560 383 b 739 619 633 549 676 610 l 739 631 l 472 631 l 472 619 b 526 386 567 610 585 517 l 449 207 l 333 472 b 385 619 294 561 322 615 l 385 631 l 6 631 l 6 619 b 121 482 49 610 82 568 l 347 -19 l 294 -140 b 189 -260 265 -207 224 -260 b 136 -192 160 -260 153 -225 b 54 -132 121 -157 96 -132 b -35 -224 6 -132 -35 -169 b 96 -331 -35 -293 25 -331 "},"z":{"ha":686,"x_min":0,"x_max":0,"o":"m 36 15 l 425 608 l 331 608 b 78 414 229 608 135 536 l 57 414 l 103 631 l 628 631 l 631 615 l 250 22 l 357 22 b 618 256 468 22 571 114 l 638 256 l 606 0 l 39 0 "},"á":{"ha":696,"x_min":0,"x_max":0,"o":"m 225 726 l 382 928 b 447 963 401 953 425 963 b 508 900 481 963 508 938 b 453 824 508 874 494 843 l 240 726 m 304 61 b 390 100 332 61 361 72 b 388 138 389 111 388 124 l 388 367 b 221 168 254 311 221 242 b 304 61 221 93 258 61 m 521 -18 b 394 75 458 -18 413 11 b 197 -22 338 11 267 -22 b 36 125 111 -22 36 32 b 388 389 36 221 106 303 l 388 497 b 315 635 388 597 363 635 b 239 508 261 635 258 586 b 147 426 225 453 189 426 b 68 507 101 426 68 460 b 321 656 68 588 157 656 b 578 439 496 656 578 575 l 578 135 b 621 61 578 85 592 61 b 683 104 643 61 663 74 l 696 96 b 521 -18 650 17 590 -18 "},"ă":{"ha":696,"x_min":0,"x_max":0,"o":"m 315 753 b 122 936 213 753 122 817 l 142 936 b 315 846 153 879 217 846 b 489 936 414 846 476 879 l 507 936 b 315 753 507 817 417 753 m 304 61 b 390 100 332 61 361 72 b 388 138 389 111 388 124 l 388 367 b 221 168 254 311 221 242 b 304 61 221 93 258 61 m 521 -18 b 394 75 458 -18 413 11 b 197 -22 338 11 267 -22 b 36 125 111 -22 36 32 b 388 389 36 221 106 303 l 388 497 b 315 635 388 597 363 635 b 239 508 261 635 258 586 b 147 426 225 453 189 426 b 68 507 101 426 68 460 b 321 656 68 588 157 656 b 578 439 496 656 578 575 l 578 135 b 621 61 578 85 592 61 b 683 104 643 61 663 74 l 696 96 b 521 -18 650 17 590 -18 "},"â":{"ha":696,"x_min":0,"x_max":0,"o":"m 318 832 l 110 725 l 93 725 l 275 936 l 364 936 l 540 725 l 518 725 m 304 61 b 390 100 332 61 361 72 b 388 138 389 111 388 124 l 388 367 b 221 168 254 311 221 242 b 304 61 221 93 258 61 m 521 -18 b 394 75 458 -18 413 11 b 197 -22 338 11 267 -22 b 36 125 111 -22 36 32 b 388 389 36 221 106 303 l 388 497 b 315 635 388 597 363 635 b 239 508 261 635 258 586 b 147 426 225 453 189 426 b 68 507 101 426 68 460 b 321 656 68 588 157 656 b 578 439 496 656 578 575 l 578 135 b 621 61 578 85 592 61 b 683 104 643 61 663 74 l 696 96 b 521 -18 650 17 590 -18 "},"ä":{"ha":696,"x_min":0,"x_max":0,"o":"m 344 857 b 444 954 344 910 389 954 b 543 857 499 954 543 910 b 444 758 543 803 499 758 b 344 857 389 758 344 803 m 86 857 b 185 954 86 910 131 954 b 285 857 240 954 285 910 b 185 758 285 803 240 758 b 86 857 131 758 86 803 m 304 61 b 390 100 332 61 361 72 b 388 138 389 111 388 124 l 388 367 b 221 168 254 311 221 242 b 304 61 221 93 258 61 m 521 -18 b 394 75 458 -18 413 11 b 197 -22 338 11 267 -22 b 36 125 111 -22 36 32 b 388 389 36 221 106 303 l 388 497 b 315 635 388 597 363 635 b 239 508 261 635 258 586 b 147 426 225 453 189 426 b 68 507 101 426 68 460 b 321 656 68 588 157 656 b 578 439 496 656 578 575 l 578 135 b 621 61 578 85 592 61 b 683 104 643 61 663 74 l 696 96 b 521 -18 650 17 590 -18 "},"æ":{"ha":1004,"x_min":0,"x_max":0,"o":"m 964 201 b 689 -22 921 51 815 -22 b 442 113 589 -22 497 28 b 207 -22 367 24 294 -22 b 36 128 110 -22 36 33 b 388 388 36 219 100 301 l 388 497 b 315 635 388 599 363 635 b 239 508 261 635 258 586 b 147 426 225 453 189 426 b 68 507 100 426 68 460 b 321 656 68 588 157 656 b 508 581 411 656 472 629 b 699 656 561 628 626 656 b 968 381 846 656 961 553 l 560 381 b 776 108 563 213 650 108 b 949 208 850 108 911 146 l 964 201 m 689 631 b 560 408 622 631 567 544 l 789 408 b 689 631 788 564 751 631 m 313 74 b 431 133 353 74 388 89 b 388 306 403 182 388 240 l 388 367 b 221 171 254 311 221 243 b 313 74 221 117 250 74 "},"à":{"ha":696,"x_min":0,"x_max":0,"o":"m 385 726 l 172 825 b 115 900 131 843 115 874 b 178 964 115 936 143 964 b 243 928 200 964 222 954 l 400 726 m 304 61 b 390 100 332 61 361 72 b 388 138 389 111 388 124 l 388 367 b 221 168 254 311 221 242 b 304 61 221 93 258 61 m 521 -18 b 394 75 458 -18 413 11 b 197 -22 338 11 267 -22 b 36 125 111 -22 36 32 b 388 389 36 221 106 303 l 388 497 b 315 635 388 597 363 635 b 239 508 261 635 258 586 b 147 426 225 453 189 426 b 68 507 101 426 68 460 b 321 656 68 588 157 656 b 578 439 496 656 578 575 l 578 135 b 621 61 578 85 592 61 b 683 104 643 61 663 74 l 696 96 b 521 -18 650 17 590 -18 "},"ā":{"ha":696,"x_min":0,"x_max":0,"o":"m 511 872 l 511 831 l 121 831 l 121 872 m 304 61 b 390 100 332 61 361 72 b 388 138 389 111 388 124 l 388 367 b 221 168 254 311 221 242 b 304 61 221 93 258 61 m 521 -18 b 394 75 458 -18 413 11 b 197 -22 338 11 267 -22 b 36 125 111 -22 36 32 b 388 389 36 221 106 303 l 388 497 b 315 635 388 597 363 635 b 239 508 261 635 258 586 b 147 426 225 453 189 426 b 68 507 101 426 68 460 b 321 656 68 588 157 656 b 578 439 496 656 578 575 l 578 135 b 621 61 578 85 592 61 b 683 104 643 61 663 74 l 696 96 b 521 -18 650 17 590 -18 "},"ą":{"ha":696,"x_min":0,"x_max":0,"o":"m 540 -337 b 404 -201 453 -337 404 -278 b 524 -18 404 -129 449 -60 l 521 -18 b 394 75 458 -18 411 13 b 197 -22 336 11 267 -22 b 36 125 111 -22 36 32 b 388 389 36 221 106 303 l 388 497 b 315 635 388 597 363 635 b 239 508 261 635 258 586 b 147 426 225 453 189 426 b 68 507 101 426 68 460 b 321 656 68 588 157 656 b 578 439 496 656 578 575 l 578 135 b 621 61 578 85 592 61 b 683 104 643 61 663 74 l 696 96 b 590 -4 667 44 631 13 b 515 -161 544 -29 515 -85 b 599 -285 515 -244 550 -285 b 660 -261 621 -285 643 -278 l 671 -269 b 540 -337 642 -311 599 -337 m 304 61 b 390 100 332 61 361 72 b 388 133 389 110 388 121 l 388 367 b 221 168 254 311 221 242 b 304 61 221 93 258 61 "},"å":{"ha":696,"x_min":0,"x_max":0,"o":"m 314 986 b 450 850 389 986 450 924 b 314 714 450 774 389 714 b 179 850 239 714 179 774 b 314 986 179 924 239 986 m 314 957 b 214 850 258 957 214 908 b 314 743 214 790 258 743 b 415 850 369 743 415 790 b 314 957 415 908 369 957 m 304 61 b 390 100 332 61 361 72 b 388 138 389 111 388 124 l 388 367 b 221 168 254 311 221 242 b 304 61 221 93 258 61 m 521 -18 b 394 75 458 -18 413 11 b 197 -22 338 11 267 -22 b 36 125 111 -22 36 32 b 388 389 36 221 106 303 l 388 497 b 315 635 388 597 363 635 b 239 508 261 635 258 586 b 147 426 225 453 189 426 b 68 507 101 426 68 460 b 321 656 68 588 157 656 b 578 439 496 656 578 575 l 578 135 b 621 61 578 85 592 61 b 683 104 643 61 663 74 l 696 96 b 521 -18 650 17 590 -18 "},"ã":{"ha":696,"x_min":0,"x_max":0,"o":"m 408 763 b 201 814 331 763 275 814 b 118 753 163 814 133 794 l 107 756 b 239 919 118 854 169 919 b 443 867 307 919 376 867 b 526 931 479 867 508 883 l 539 928 b 408 763 526 825 474 763 m 304 61 b 390 100 332 61 361 72 b 388 138 389 111 388 124 l 388 367 b 221 168 254 311 221 242 b 304 61 221 93 258 61 m 521 -18 b 394 75 458 -18 413 11 b 197 -22 338 11 267 -22 b 36 125 111 -22 36 32 b 388 389 36 221 106 303 l 388 497 b 315 635 388 597 363 635 b 239 508 261 635 258 586 b 147 426 225 453 189 426 b 68 507 101 426 68 460 b 321 656 68 588 157 656 b 578 439 496 656 578 575 l 578 135 b 621 61 578 85 592 61 b 683 104 643 61 663 74 l 696 96 b 521 -18 650 17 590 -18 "},"ć":{"ha":654,"x_min":0,"x_max":0,"o":"m 265 726 l 422 928 b 488 963 442 953 465 963 b 549 900 521 963 549 938 b 493 824 549 874 535 843 l 281 726 m 432 494 b 339 631 413 556 404 631 b 213 394 269 631 213 547 b 436 108 213 210 308 108 b 606 208 508 108 567 142 l 619 201 b 347 -22 576 57 482 -22 b 40 307 174 -22 40 111 b 375 656 40 507 178 656 b 601 513 522 656 601 581 b 517 431 601 468 567 431 b 432 494 479 431 446 451 "},"č":{"ha":654,"x_min":0,"x_max":0,"o":"m 578 946 l 399 733 l 308 733 l 131 946 l 149 946 l 353 838 l 558 946 m 432 494 b 339 631 413 556 404 631 b 213 394 269 631 213 547 b 436 108 213 210 308 108 b 606 208 508 108 567 142 l 619 201 b 347 -22 576 57 482 -22 b 40 307 174 -22 40 111 b 375 656 40 507 178 656 b 601 513 522 656 601 581 b 517 431 601 468 567 431 b 432 494 479 431 446 451 "},"ç":{"ha":654,"x_min":0,"x_max":0,"o":"m 319 -368 b 169 -324 256 -368 206 -350 l 176 -307 b 285 -339 208 -331 247 -339 b 414 -243 357 -339 414 -312 b 257 -165 414 -178 365 -150 l 253 -160 l 325 -21 b 40 307 163 -11 40 119 b 375 656 40 507 178 656 b 601 513 522 656 601 581 b 517 431 601 468 567 431 b 432 494 479 431 446 451 b 339 631 413 556 404 631 b 213 394 269 631 213 547 b 436 108 213 210 308 108 b 606 208 508 108 567 142 l 619 201 b 353 -22 576 57 482 -22 l 314 -97 b 369 -92 331 -94 349 -92 b 524 -218 457 -92 524 -137 b 319 -368 524 -304 443 -368 "},"ĉ":{"ha":654,"x_min":0,"x_max":0,"o":"m 360 832 l 151 725 l 135 725 l 317 936 l 406 936 l 582 725 l 560 725 m 432 494 b 339 631 413 556 404 631 b 213 394 269 631 213 547 b 436 108 213 210 308 108 b 606 208 508 108 567 142 l 619 201 b 347 -22 576 57 482 -22 b 40 307 174 -22 40 111 b 375 656 40 507 178 656 b 601 513 522 656 601 581 b 517 431 601 468 567 431 b 432 494 479 431 446 451 "},"ċ":{"ha":654,"x_min":0,"x_max":0,"o":"m 256 857 b 356 954 256 910 301 954 b 454 857 410 954 454 910 b 356 758 454 803 410 758 b 256 857 301 758 256 803 m 432 494 b 339 631 413 556 404 631 b 213 394 269 631 213 547 b 436 108 213 210 308 108 b 606 208 508 108 567 142 l 619 201 b 347 -22 576 57 482 -22 b 40 307 174 -22 40 111 b 375 656 40 507 178 656 b 601 513 522 656 601 581 b 517 431 601 468 567 431 b 432 494 479 431 446 451 "},"ď":{"ha":925,"x_min":0,"x_max":0,"o":"m 769 685 l 765 963 b 842 1051 765 1024 800 1051 b 911 979 876 1051 911 1026 b 894 915 911 963 907 940 l 781 685 m 375 92 b 465 133 413 92 443 107 l 465 528 b 364 635 449 604 406 635 b 222 351 290 635 222 532 b 375 92 222 182 286 92 m 469 110 b 269 -22 426 38 354 -22 b 40 276 143 -22 40 99 b 368 656 40 494 199 656 b 465 631 404 656 438 647 l 465 851 b 367 956 465 938 419 958 l 367 969 l 643 1046 l 654 1042 l 654 142 b 746 29 654 53 692 26 l 746 15 l 481 -19 l 469 -15 "},"đ":{"ha":768,"x_min":0,"x_max":0,"o":"m 375 92 b 465 133 413 92 443 107 l 465 528 b 364 635 449 604 406 635 b 222 351 290 635 222 532 b 375 92 222 182 286 92 m 469 110 b 269 -22 426 38 354 -22 b 40 276 143 -22 40 99 b 368 656 40 494 199 656 b 465 631 404 656 438 647 l 465 782 l 271 782 l 271 808 l 465 808 l 465 851 b 367 956 465 938 419 958 l 367 969 l 643 1046 l 654 1042 l 654 808 l 758 808 l 758 782 l 654 782 l 654 142 b 746 29 654 53 692 26 l 746 15 l 481 -19 l 469 -15 "},"ı":{"ha":432,"x_min":0,"x_max":0,"o":"m 35 0 l 35 13 b 125 122 79 17 125 40 l 125 456 b 24 561 125 542 78 564 l 24 574 l 306 653 l 317 649 l 314 479 l 314 122 b 407 13 314 40 361 17 l 407 0 "},"ȷ":{"ha":401,"x_min":0,"x_max":0,"o":"m 32 -333 b -149 -214 -72 -333 -149 -286 b -62 -128 -149 -165 -112 -128 b 19 -208 -15 -128 19 -158 b 7 -281 19 -236 7 -261 b 43 -310 7 -301 21 -310 b 119 -167 97 -310 119 -268 b 117 93 119 -121 117 29 l 117 456 b 15 561 117 542 69 564 l 15 574 l 297 653 l 308 649 l 306 479 l 306 24 b 32 -333 306 -203 188 -333 "},"é":{"ha":657,"x_min":0,"x_max":0,"o":"m 253 726 l 410 928 b 475 963 429 953 453 963 b 536 900 508 963 536 938 b 481 824 536 874 522 843 l 268 726 m 615 203 b 343 -22 574 56 471 -22 b 40 304 172 -22 40 118 b 353 656 40 510 193 656 b 621 381 497 656 615 553 l 213 381 b 428 108 215 213 303 108 b 601 208 500 108 563 142 l 615 203 m 343 631 b 213 408 275 631 219 547 l 442 408 b 343 631 440 569 401 631 "},"ĕ":{"ha":657,"x_min":0,"x_max":0,"o":"m 343 753 b 150 936 240 753 150 817 l 169 936 b 343 846 181 879 244 846 b 517 936 442 846 504 879 l 535 936 b 343 753 535 817 444 753 m 615 203 b 343 -22 574 56 471 -22 b 40 304 172 -22 40 118 b 353 656 40 510 193 656 b 621 381 497 656 615 553 l 213 381 b 428 108 215 213 303 108 b 601 208 500 108 563 142 l 615 203 m 343 631 b 213 408 275 631 219 547 l 442 408 b 343 631 440 569 401 631 "},"ě":{"ha":657,"x_min":0,"x_max":0,"o":"m 565 946 l 386 733 l 296 733 l 118 946 l 136 946 l 340 838 l 546 946 m 615 203 b 343 -22 574 56 471 -22 b 40 304 172 -22 40 118 b 353 656 40 510 193 656 b 621 381 497 656 615 553 l 213 381 b 428 108 215 213 303 108 b 601 208 500 108 563 142 l 615 203 m 343 631 b 213 408 275 631 219 547 l 442 408 b 343 631 440 569 401 631 "},"ê":{"ha":657,"x_min":0,"x_max":0,"o":"m 346 832 l 138 725 l 121 725 l 303 936 l 392 936 l 568 725 l 546 725 m 615 203 b 343 -22 574 56 471 -22 b 40 304 172 -22 40 118 b 353 656 40 510 193 656 b 621 381 497 656 615 553 l 213 381 b 428 108 215 213 303 108 b 601 208 500 108 563 142 l 615 203 m 343 631 b 213 408 275 631 219 547 l 442 408 b 343 631 440 569 401 631 "},"ë":{"ha":657,"x_min":0,"x_max":0,"o":"m 372 857 b 472 954 372 910 417 954 b 571 857 526 954 571 910 b 472 758 571 803 526 758 b 372 857 417 758 372 803 m 114 857 b 213 954 114 910 158 954 b 313 857 268 954 313 910 b 213 758 313 803 268 758 b 114 857 158 758 114 803 m 615 203 b 343 -22 574 56 471 -22 b 40 304 172 -22 40 118 b 353 656 40 510 193 656 b 621 381 497 656 615 553 l 213 381 b 428 108 215 213 303 108 b 601 208 500 108 563 142 l 615 203 m 343 631 b 213 408 275 631 219 547 l 442 408 b 343 631 440 569 401 631 "},"ė":{"ha":657,"x_min":0,"x_max":0,"o":"m 243 857 b 343 954 243 910 289 954 b 442 857 397 954 442 910 b 343 758 442 803 397 758 b 243 857 289 758 243 803 m 615 203 b 343 -22 574 56 471 -22 b 40 304 172 -22 40 118 b 353 656 40 510 193 656 b 621 381 497 656 615 553 l 213 381 b 428 108 215 213 303 108 b 601 208 500 108 563 142 l 615 203 m 343 631 b 213 408 275 631 219 547 l 442 408 b 343 631 440 569 401 631 "},"è":{"ha":657,"x_min":0,"x_max":0,"o":"m 413 726 l 200 825 b 143 900 158 843 143 874 b 206 964 143 936 171 964 b 271 928 228 964 250 954 l 428 726 m 615 203 b 343 -22 574 56 471 -22 b 40 304 172 -22 40 118 b 353 656 40 510 193 656 b 621 381 497 656 615 553 l 213 381 b 428 108 215 213 303 108 b 601 208 500 108 563 142 l 615 203 m 343 631 b 213 408 275 631 219 547 l 442 408 b 343 631 440 569 401 631 "},"ē":{"ha":657,"x_min":0,"x_max":0,"o":"m 539 872 l 539 831 l 149 831 l 149 872 m 615 203 b 343 -22 574 56 471 -22 b 40 304 172 -22 40 118 b 353 656 40 510 193 656 b 621 381 497 656 615 553 l 213 381 b 428 108 215 213 303 108 b 601 208 500 108 563 142 l 615 203 m 343 631 b 213 408 275 631 219 547 l 442 408 b 343 631 440 569 401 631 "},"ŋ":{"ha":804,"x_min":0,"x_max":0,"o":"m 435 -333 b 254 -214 331 -333 254 -287 b 340 -129 254 -165 290 -129 b 422 -208 388 -129 422 -158 b 410 -282 422 -236 410 -261 b 446 -310 410 -301 424 -310 b 522 -168 501 -310 522 -269 b 519 92 522 -121 519 28 l 519 443 b 433 571 519 533 488 571 b 314 510 393 571 349 546 l 314 125 b 390 11 314 43 346 15 l 390 0 l 35 0 l 35 13 b 125 122 79 17 125 40 l 125 456 b 24 561 125 542 78 564 l 24 574 l 300 653 l 311 649 l 311 539 b 542 656 369 603 454 656 b 708 481 643 656 708 596 l 708 24 b 435 -333 708 -204 590 -333 "},"ę":{"ha":657,"x_min":0,"x_max":0,"o":"m 524 -269 b 393 -337 494 -311 451 -337 b 257 -201 306 -337 257 -278 b 371 -21 257 -131 300 -62 b 343 -22 363 -22 353 -22 b 40 304 172 -22 40 118 b 353 656 40 510 193 656 b 621 381 497 656 615 553 l 213 381 b 428 108 215 213 303 108 b 601 208 500 108 563 142 l 615 203 b 447 -3 586 99 525 29 b 368 -161 399 -26 368 -82 b 451 -285 368 -244 403 -285 b 513 -261 474 -285 496 -278 l 524 -269 m 343 631 b 213 408 275 631 219 547 l 442 408 b 343 631 440 569 401 631 "},"ð":{"ha":744,"x_min":0,"x_max":0,"o":"m 364 -22 b 40 318 185 -22 40 124 b 361 656 40 494 186 656 b 467 624 406 656 440 644 b 335 833 432 706 390 774 l 213 761 l 201 781 l 319 849 b 153 969 274 894 218 933 l 163 986 b 379 883 243 958 315 924 l 504 956 l 514 938 l 399 871 b 704 364 593 740 704 557 b 364 -22 704 97 521 -22 m 244 318 b 374 0 244 133 288 0 b 500 313 440 0 500 72 b 367 632 500 500 454 633 b 244 318 300 631 244 553 "},"ğ":{"ha":708,"x_min":0,"x_max":0,"o":"m 353 753 b 160 936 250 753 160 817 l 179 936 b 353 846 190 879 254 846 b 526 936 451 846 514 879 l 544 936 b 353 753 544 817 454 753 m 244 426 b 351 219 244 283 297 219 b 458 425 404 219 458 283 b 351 632 458 568 404 632 b 244 426 297 632 244 568 m 703 -89 b 311 -337 703 -212 572 -337 b -10 -182 128 -337 -10 -281 b 138 -40 -10 -114 56 -64 b 56 81 86 -17 56 24 b 181 236 56 147 103 201 b 58 421 107 276 58 343 b 349 656 58 549 190 656 b 478 631 390 656 435 647 l 693 631 l 693 600 l 626 600 b 535 603 593 600 563 601 b 644 428 597 564 644 506 b 347 196 644 292 503 196 b 208 224 297 196 250 206 b 154 157 167 203 154 181 b 254 107 156 128 175 111 l 446 100 b 703 -89 603 93 703 29 m 328 -315 b 564 -171 458 -315 564 -264 b 456 -74 564 -115 531 -76 l 258 -67 b 185 -57 232 -65 207 -62 b 124 -167 142 -82 124 -121 b 328 -315 124 -265 201 -315 "},"ĝ":{"ha":708,"x_min":0,"x_max":0,"o":"m 356 832 l 147 725 l 131 725 l 313 936 l 401 936 l 578 725 l 556 725 m 244 426 b 351 219 244 283 297 219 b 458 425 404 219 458 283 b 351 632 458 568 404 632 b 244 426 297 632 244 568 m 703 -89 b 311 -337 703 -212 572 -337 b -10 -182 128 -337 -10 -281 b 138 -40 -10 -114 56 -64 b 56 81 86 -17 56 24 b 181 236 56 147 103 201 b 58 421 107 276 58 343 b 349 656 58 549 190 656 b 478 631 390 656 435 647 l 693 631 l 693 600 l 626 600 b 535 603 593 600 563 601 b 644 428 597 564 644 506 b 347 196 644 292 503 196 b 208 224 297 196 250 206 b 154 157 167 203 154 181 b 254 107 156 128 175 111 l 446 100 b 703 -89 603 93 703 29 m 328 -315 b 564 -171 458 -315 564 -264 b 456 -74 564 -115 531 -76 l 258 -67 b 185 -57 232 -65 207 -62 b 124 -167 142 -82 124 -121 b 328 -315 124 -265 201 -315 "},"ģ":{"ha":711,"x_min":0,"x_max":0,"o":"m 314 996 b 374 942 314 964 339 956 b 440 854 413 928 440 894 b 343 761 440 803 401 761 b 243 881 289 761 243 800 b 408 1118 243 988 301 1094 l 414 1101 b 314 996 361 1088 314 1035 m 244 426 b 351 219 244 283 297 219 b 458 425 404 219 458 283 b 351 632 458 568 404 632 b 244 426 297 632 244 568 m 703 -89 b 311 -337 703 -212 572 -337 b -10 -182 128 -337 -10 -281 b 138 -40 -10 -114 56 -64 b 56 81 86 -17 56 24 b 181 236 56 147 103 201 b 58 421 107 276 58 343 b 349 656 58 549 190 656 b 478 631 390 656 435 647 l 693 631 l 693 600 l 626 600 b 535 603 593 600 563 601 b 644 428 597 564 644 506 b 347 196 644 292 503 196 b 208 224 297 196 250 206 b 154 157 167 203 154 181 b 254 107 156 128 175 111 l 446 100 b 703 -89 603 93 703 29 m 328 -315 b 564 -171 458 -315 564 -264 b 456 -74 564 -115 531 -76 l 258 -67 b 185 -57 232 -65 207 -62 b 124 -167 142 -82 124 -121 b 328 -315 124 -265 201 -315 "},"ġ":{"ha":708,"x_min":0,"x_max":0,"o":"m 251 857 b 351 954 251 910 297 954 b 450 857 406 954 450 910 b 351 758 450 803 406 758 b 251 857 297 758 251 803 m 244 426 b 351 219 244 283 297 219 b 458 425 404 219 458 283 b 351 632 458 568 404 632 b 244 426 297 632 244 568 m 703 -89 b 311 -337 703 -212 572 -337 b -10 -182 128 -337 -10 -281 b 138 -40 -10 -114 56 -64 b 56 81 86 -17 56 24 b 181 236 56 147 103 201 b 58 421 107 276 58 343 b 349 656 58 549 190 656 b 478 631 390 656 435 647 l 693 631 l 693 600 l 626 600 b 535 603 593 600 563 601 b 644 428 597 564 644 506 b 347 196 644 292 503 196 b 208 224 297 196 250 206 b 154 157 167 203 154 181 b 254 107 156 128 175 111 l 446 100 b 703 -89 603 93 703 29 m 328 -315 b 564 -171 458 -315 564 -264 b 456 -74 564 -115 531 -76 l 258 -67 b 185 -57 232 -65 207 -62 b 124 -167 142 -82 124 -121 b 328 -315 124 -265 201 -315 "},"ß":{"ha":878,"x_min":0,"x_max":0,"o":"m 597 -22 b 379 32 514 -22 432 3 l 433 207 l 447 206 b 608 3 464 97 519 3 b 704 99 665 3 704 44 b 431 435 704 244 431 240 b 581 792 431 582 581 592 b 446 971 581 919 518 971 b 307 771 364 971 307 904 l 307 0 l 22 0 l 22 13 b 118 131 69 17 118 39 l 118 604 l 14 604 l 14 631 l 118 631 b 474 997 119 850 251 997 b 738 825 642 997 738 921 b 542 543 738 689 542 658 b 838 185 542 403 838 404 b 597 -22 838 72 740 -22 "},"ħ":{"ha":818,"x_min":0,"x_max":0,"o":"m 382 0 l 31 0 l 31 13 b 119 122 75 17 119 40 l 119 782 l 8 782 l 8 808 l 119 808 l 119 851 b 21 956 119 938 74 958 l 21 969 l 297 1046 l 308 1042 l 308 808 l 497 808 l 497 782 l 308 782 l 308 543 b 536 656 367 606 450 656 b 703 481 638 656 703 596 l 703 122 b 793 13 703 40 747 17 l 793 0 l 440 0 l 440 11 b 514 125 486 15 514 43 l 514 443 b 428 571 514 533 483 571 b 308 510 388 571 343 546 l 308 125 b 382 11 308 39 339 15 "},"ĥ":{"ha":818,"x_min":0,"x_max":0,"o":"m 404 1175 l 203 1093 l 186 1093 l 358 1271 l 453 1271 l 619 1093 l 599 1093 m 382 0 l 31 0 l 31 13 b 119 122 75 17 119 40 l 119 851 b 21 956 119 938 74 958 l 21 969 l 297 1046 l 308 1042 l 308 543 b 536 656 367 606 450 656 b 703 481 638 656 703 596 l 703 122 b 793 13 703 40 747 17 l 793 0 l 440 0 l 440 11 b 514 125 486 15 514 43 l 514 443 b 428 571 514 533 483 571 b 308 510 388 571 343 546 l 308 125 b 382 11 308 39 339 15 "},"í":{"ha":432,"x_min":0,"x_max":0,"o":"m 115 726 l 272 928 b 338 963 292 953 315 963 b 399 900 371 963 399 938 b 343 824 399 874 385 843 l 131 726 m 35 0 l 35 13 b 125 122 79 17 125 40 l 125 456 b 24 561 125 542 78 564 l 24 574 l 306 653 l 317 649 l 314 479 l 314 122 b 407 13 314 40 361 17 l 407 0 "},"ĭ":{"ha":432,"x_min":0,"x_max":0,"o":"m 219 753 b 26 936 117 753 26 817 l 46 936 b 219 846 57 879 121 846 b 393 936 318 846 381 879 l 411 936 b 219 753 411 817 321 753 m 35 0 l 35 13 b 125 122 79 17 125 40 l 125 456 b 24 561 125 542 78 564 l 24 574 l 306 653 l 317 649 l 314 479 l 314 122 b 407 13 314 40 361 17 l 407 0 "},"î":{"ha":432,"x_min":0,"x_max":0,"o":"m 222 832 l 14 725 l -3 725 l 179 936 l 268 936 l 444 725 l 422 725 m 35 0 l 35 13 b 125 122 79 17 125 40 l 125 456 b 24 561 125 542 78 564 l 24 574 l 306 653 l 317 649 l 314 479 l 314 122 b 407 13 314 40 361 17 l 407 0 "},"ï":{"ha":432,"x_min":0,"x_max":0,"o":"m 250 857 b 350 954 250 910 294 954 b 449 857 404 954 449 910 b 350 758 449 803 404 758 b 250 857 294 758 250 803 m -8 857 b 90 954 -8 910 36 954 b 190 857 146 954 190 910 b 90 758 190 803 146 758 b -8 857 36 758 -8 803 m 35 0 l 35 13 b 125 122 79 17 125 40 l 125 456 b 24 561 125 542 78 564 l 24 574 l 306 653 l 317 649 l 314 479 l 314 122 b 407 13 314 40 361 17 l 407 0 "},"":{"ha":426,"x_min":0,"x_max":0,"o":"m 103 860 b 217 974 103 924 154 974 b 333 860 282 974 333 924 b 217 747 333 799 282 747 b 103 860 154 747 103 799 m 35 0 l 35 13 b 125 122 79 17 125 40 l 125 456 b 24 561 125 542 78 564 l 24 574 l 306 653 l 317 649 l 314 479 l 314 122 b 407 13 314 40 361 17 l 407 0 "},"ì":{"ha":432,"x_min":0,"x_max":0,"o":"m 288 726 l 75 825 b 18 900 33 843 18 874 b 81 964 18 936 46 964 b 146 928 103 964 125 954 l 303 726 m 35 0 l 35 13 b 125 122 79 17 125 40 l 125 456 b 24 561 125 542 78 564 l 24 574 l 306 653 l 317 649 l 314 479 l 314 122 b 407 13 314 40 361 17 l 407 0 "},"ĳ":{"ha":832,"x_min":0,"x_max":0,"o":"m 525 860 b 640 974 525 924 578 974 b 757 860 706 974 757 924 b 640 747 757 799 706 747 b 525 860 578 747 525 799 m 103 860 b 217 974 103 924 154 974 b 333 860 282 974 333 924 b 217 747 333 799 282 747 b 103 860 154 747 103 799 m 35 0 l 35 13 b 125 122 79 17 125 40 l 125 456 b 24 561 125 542 78 564 l 24 574 l 306 653 l 317 649 l 314 479 l 314 122 b 407 13 314 40 361 17 l 407 0 m 464 -333 b 283 -214 360 -333 283 -286 b 369 -128 283 -165 319 -128 b 451 -208 417 -128 451 -158 b 439 -281 451 -236 439 -261 b 475 -310 439 -301 453 -310 b 551 -167 529 -310 551 -268 b 549 93 551 -121 549 29 l 549 456 b 447 561 549 542 501 564 l 447 574 l 729 653 l 740 649 l 738 479 l 738 24 b 464 -333 738 -203 619 -333 "},"ī":{"ha":432,"x_min":0,"x_max":0,"o":"m 415 872 l 415 831 l 25 831 l 25 872 m 35 0 l 35 13 b 125 122 79 17 125 40 l 125 456 b 24 561 125 542 78 564 l 24 574 l 306 653 l 317 649 l 314 479 l 314 122 b 407 13 314 40 361 17 l 407 0 "},"į":{"ha":426,"x_min":0,"x_max":0,"o":"m 103 860 b 217 974 103 924 154 974 b 333 860 282 974 333 924 b 217 747 333 799 282 747 b 103 860 154 747 103 799 m 351 -269 b 221 -337 322 -311 279 -337 b 85 -201 133 -337 85 -278 b 243 0 85 -118 144 -37 l 35 0 l 35 13 b 125 122 79 17 125 40 l 125 456 b 24 561 125 542 78 564 l 24 574 l 306 653 l 317 649 l 314 479 l 314 122 b 407 13 314 40 361 17 l 407 0 l 281 0 b 196 -161 229 -22 196 -79 b 279 -285 196 -244 231 -285 b 340 -261 301 -285 324 -278 l 351 -269 "},"ĩ":{"ha":432,"x_min":0,"x_max":0,"o":"m 313 763 b 106 814 235 763 179 814 b 22 753 67 814 38 794 l 11 756 b 143 919 22 854 74 919 b 347 867 211 919 281 867 b 431 931 383 867 413 883 l 443 928 b 313 763 431 825 378 763 m 35 0 l 35 13 b 125 122 79 17 125 40 l 125 456 b 24 561 125 542 78 564 l 24 574 l 306 653 l 317 649 l 314 479 l 314 122 b 407 13 314 40 361 17 l 407 0 "},"ĵ":{"ha":401,"x_min":0,"x_max":0,"o":"m 213 826 l 4 719 l -12 719 l 169 931 l 258 931 l 435 719 l 413 719 m 32 -333 b -149 -214 -72 -333 -149 -286 b -62 -128 -149 -165 -112 -128 b 19 -208 -15 -128 19 -158 b 7 -281 19 -236 7 -261 b 43 -310 7 -301 21 -310 b 119 -167 97 -310 119 -268 b 117 93 119 -121 117 29 l 117 456 b 15 561 117 542 69 564 l 15 574 l 297 653 l 308 649 l 306 479 l 306 24 b 32 -333 306 -203 188 -333 "},"ķ":{"ha":804,"x_min":0,"x_max":0,"o":"m 308 121 b 397 11 308 49 346 15 l 397 0 l 31 0 l 31 13 b 119 121 75 17 119 39 l 119 851 b 21 956 119 938 74 958 l 21 969 l 297 1046 l 308 1042 m 535 0 l 342 293 l 342 297 l 467 435 b 472 618 557 533 540 610 l 472 631 l 772 631 l 772 618 b 501 431 675 610 606 547 l 483 410 l 661 146 b 792 13 729 44 756 19 l 792 0 m 483 -346 b 424 -292 483 -314 458 -306 b 357 -204 385 -278 357 -244 b 454 -111 357 -153 396 -111 b 554 -231 508 -111 554 -150 b 389 -468 554 -337 496 -444 l 383 -451 b 483 -346 436 -437 483 -385 "},"ĸ":{"ha":810,"x_min":0,"x_max":0,"o":"m 314 122 b 396 11 314 47 346 15 l 396 0 l 35 0 l 35 13 b 125 122 79 17 125 40 l 125 456 b 24 561 125 542 78 564 l 24 574 l 303 653 l 314 649 m 542 0 l 347 293 l 347 297 l 472 435 b 479 618 563 533 546 610 l 479 631 l 778 631 l 778 618 b 507 431 681 610 611 547 l 489 410 l 667 146 b 799 13 735 44 761 19 l 799 0 "},"ĺ":{"ha":428,"x_min":0,"x_max":0,"o":"m 253 1263 b 311 1289 272 1281 292 1289 b 374 1226 346 1289 374 1261 b 307 1153 374 1196 350 1165 l 94 1090 l 75 1090 m 308 122 b 401 13 308 40 356 17 l 401 0 l 29 0 l 29 13 b 119 122 74 17 119 40 l 119 851 b 21 956 119 938 74 958 l 21 969 l 297 1046 l 308 1042 "},"ľ":{"ha":583,"x_min":0,"x_max":0,"o":"m 425 685 l 421 963 b 497 1051 421 1024 456 1051 b 567 979 532 1051 567 1026 b 550 915 567 963 563 940 l 436 685 m 308 122 b 401 13 308 40 356 17 l 401 0 l 29 0 l 29 13 b 119 122 74 17 119 40 l 119 851 b 21 956 119 938 74 958 l 21 969 l 297 1046 l 308 1042 "},"ļ":{"ha":428,"x_min":0,"x_max":0,"o":"m 308 122 b 401 13 308 40 356 17 l 401 0 l 29 0 l 29 13 b 119 122 74 17 119 40 l 119 851 b 21 956 119 938 74 958 l 21 969 l 297 1046 l 308 1042 m 244 -346 b 185 -292 244 -314 219 -306 b 118 -204 146 -278 118 -244 b 215 -111 118 -153 157 -111 b 315 -231 269 -111 315 -150 b 150 -468 315 -337 257 -444 l 144 -451 b 244 -346 197 -437 244 -385 "},"ŀ":{"ha":622,"x_min":0,"x_max":0,"o":"m 308 122 b 401 13 308 40 356 17 l 401 0 l 29 0 l 29 13 b 119 122 74 17 119 40 l 119 851 b 21 956 119 938 74 958 l 21 969 l 297 1046 l 308 1042 m 421 531 b 521 628 421 583 467 628 b 619 531 575 628 619 583 b 521 432 619 476 575 432 b 421 531 467 432 421 476 "},"ł":{"ha":457,"x_min":0,"x_max":0,"o":"m 44 0 l 44 13 b 135 122 89 17 135 40 l 135 315 l 7 196 l 7 238 l 135 357 l 135 851 b 36 956 135 938 89 958 l 36 969 l 313 1046 l 324 1042 l 324 533 l 451 653 l 451 611 l 324 492 l 324 122 b 417 13 324 40 371 17 l 417 0 "},"ń":{"ha":824,"x_min":0,"x_max":0,"o":"m 326 726 l 483 928 b 549 963 503 953 526 963 b 610 900 582 963 610 938 b 554 824 610 874 596 843 l 342 726 m 388 0 l 35 0 l 35 13 b 125 122 79 17 125 40 l 125 456 b 24 561 125 542 78 564 l 24 574 l 300 653 l 311 649 l 311 539 b 542 656 369 603 454 656 b 708 481 643 656 708 596 l 708 122 b 800 13 708 40 753 17 l 800 0 l 446 0 l 446 11 b 519 125 493 15 519 43 l 519 443 b 433 571 519 533 489 571 b 314 510 393 571 349 546 l 314 125 b 388 11 314 43 343 15 "},"ň":{"ha":824,"x_min":0,"x_max":0,"o":"m 639 946 l 460 733 l 369 733 l 192 946 l 210 946 l 414 838 l 619 946 m 388 0 l 35 0 l 35 13 b 125 122 79 17 125 40 l 125 456 b 24 561 125 542 78 564 l 24 574 l 300 653 l 311 649 l 311 539 b 542 656 369 603 454 656 b 708 481 643 656 708 596 l 708 122 b 800 13 708 40 753 17 l 800 0 l 446 0 l 446 11 b 519 125 493 15 519 43 l 519 443 b 433 571 519 533 489 571 b 314 510 393 571 349 546 l 314 125 b 388 11 314 43 343 15 "},"ņ":{"ha":824,"x_min":0,"x_max":0,"o":"m 388 0 l 35 0 l 35 13 b 125 122 79 17 125 40 l 125 456 b 24 561 125 542 78 564 l 24 574 l 300 653 l 311 649 l 311 539 b 542 656 369 603 454 656 b 708 481 643 656 708 596 l 708 122 b 800 13 708 40 753 17 l 800 0 l 446 0 l 446 11 b 519 125 493 15 519 43 l 519 443 b 433 571 519 533 489 571 b 314 510 393 571 349 546 l 314 125 b 388 11 314 43 343 15 m 446 -346 b 386 -292 446 -314 421 -306 b 319 -204 347 -278 319 -244 b 417 -111 319 -153 358 -111 b 517 -231 471 -111 517 -150 b 351 -468 517 -337 458 -444 l 346 -451 b 446 -346 399 -437 446 -385 "},"ñ":{"ha":824,"x_min":0,"x_max":0,"o":"m 511 763 b 304 814 433 763 378 814 b 221 753 265 814 236 794 l 210 756 b 342 919 221 854 272 919 b 546 867 410 919 479 867 b 629 931 582 867 611 883 l 642 928 b 511 763 629 825 576 763 m 388 0 l 35 0 l 35 13 b 125 122 79 17 125 40 l 125 456 b 24 561 125 542 78 564 l 24 574 l 300 653 l 311 649 l 311 539 b 542 656 369 603 454 656 b 708 481 643 656 708 596 l 708 122 b 800 13 708 40 753 17 l 800 0 l 446 0 l 446 11 b 519 125 493 15 519 43 l 519 443 b 433 571 519 533 489 571 b 314 510 393 571 349 546 l 314 125 b 388 11 314 43 343 15 "},"ó":{"ha":744,"x_min":0,"x_max":0,"o":"m 278 726 l 435 928 b 500 963 454 953 478 963 b 561 900 533 963 561 938 b 506 824 561 874 547 843 l 293 726 m 372 -22 b 40 314 181 -22 40 125 b 372 656 40 501 190 656 b 706 318 571 656 706 507 b 372 -22 706 133 563 -22 m 244 319 b 372 0 244 128 293 0 b 499 314 436 0 499 68 b 367 633 499 510 449 633 b 244 319 304 633 244 560 "},"ŏ":{"ha":744,"x_min":0,"x_max":0,"o":"m 369 753 b 176 936 267 753 176 817 l 196 936 b 369 846 207 879 271 846 b 543 936 468 846 531 879 l 561 936 b 369 753 561 817 471 753 m 372 -22 b 40 314 181 -22 40 125 b 372 656 40 501 190 656 b 706 318 571 656 706 507 b 372 -22 706 133 563 -22 m 244 319 b 372 0 244 128 293 0 b 499 314 436 0 499 68 b 367 633 499 510 449 633 b 244 319 304 633 244 560 "},"ô":{"ha":744,"x_min":0,"x_max":0,"o":"m 371 832 l 163 725 l 146 725 l 328 936 l 417 936 l 593 725 l 571 725 m 372 -22 b 40 314 181 -22 40 125 b 372 656 40 501 190 656 b 706 318 571 656 706 507 b 372 -22 706 133 563 -22 m 244 319 b 372 0 244 128 293 0 b 499 314 436 0 499 68 b 367 633 499 510 449 633 b 244 319 304 633 244 560 "},"ö":{"ha":744,"x_min":0,"x_max":0,"o":"m 400 857 b 500 954 400 910 444 954 b 599 857 554 954 599 910 b 500 758 599 803 554 758 b 400 857 444 758 400 803 m 142 857 b 240 954 142 910 186 954 b 340 857 296 954 340 910 b 240 758 340 803 296 758 b 142 857 186 758 142 803 m 372 -22 b 40 314 181 -22 40 125 b 372 656 40 501 190 656 b 706 318 571 656 706 507 b 372 -22 706 133 563 -22 m 244 319 b 372 0 244 128 293 0 b 499 314 436 0 499 68 b 367 633 499 510 449 633 b 244 319 304 633 244 560 "},"œ":{"ha":1149,"x_min":0,"x_max":0,"o":"m 1108 201 b 833 -22 1065 51 960 -22 b 607 85 742 -22 661 18 b 372 -22 549 19 465 -22 b 40 314 181 -22 40 125 b 372 656 40 501 190 656 b 617 543 472 656 558 613 b 846 656 675 614 760 656 b 1114 381 990 656 1107 553 l 704 381 b 921 108 707 213 794 108 b 1093 208 994 108 1056 146 l 1108 201 m 244 319 b 372 -1 244 126 293 -1 b 499 313 436 -1 499 67 b 367 632 499 508 449 633 b 244 319 304 632 244 558 m 835 631 b 704 408 767 631 711 547 l 933 408 b 835 631 932 569 893 631 "},"ò":{"ha":744,"x_min":0,"x_max":0,"o":"m 438 726 l 225 825 b 168 900 183 843 168 874 b 231 964 168 936 196 964 b 296 928 253 964 275 954 l 453 726 m 372 -22 b 40 314 181 -22 40 125 b 372 656 40 501 190 656 b 706 318 571 656 706 507 b 372 -22 706 133 563 -22 m 244 319 b 372 0 244 128 293 0 b 499 314 436 0 499 68 b 367 633 499 510 449 633 b 244 319 304 633 244 560 "},"ő":{"ha":744,"x_min":0,"x_max":0,"o":"m 432 725 l 551 914 b 621 960 571 946 597 960 b 678 906 653 960 678 936 b 619 826 678 878 658 850 l 447 725 m 206 725 l 325 914 b 396 960 344 946 372 960 b 451 906 426 960 451 936 b 393 826 451 878 432 850 l 221 725 m 372 -22 b 40 314 181 -22 40 125 b 372 656 40 501 190 656 b 706 318 571 656 706 507 b 372 -22 706 133 563 -22 m 244 319 b 372 0 244 128 293 0 b 499 314 436 0 499 68 b 367 633 499 510 449 633 b 244 319 304 633 244 560 "},"ō":{"ha":744,"x_min":0,"x_max":0,"o":"m 565 872 l 565 831 l 175 831 l 175 872 m 372 -22 b 40 314 181 -22 40 125 b 372 656 40 501 190 656 b 706 318 571 656 706 507 b 372 -22 706 133 563 -22 m 244 319 b 372 0 244 128 293 0 b 499 314 436 0 499 68 b 367 633 499 510 449 633 b 244 319 304 633 244 560 "},"ø":{"ha":744,"x_min":0,"x_max":0,"o":"m 372 -22 b 164 49 292 -22 219 4 l 115 -7 l 79 -7 l 143 67 b 40 314 79 128 40 215 b 372 656 40 501 190 656 b 586 583 457 656 529 629 l 632 638 l 669 638 l 607 564 b 706 318 669 503 706 417 b 372 -22 706 133 563 -22 m 244 319 b 253 194 244 274 247 232 l 486 467 b 367 633 467 572 425 633 b 244 319 304 633 244 560 m 372 0 b 499 314 436 0 499 68 b 492 431 499 357 496 396 l 258 160 b 372 0 278 60 318 0 "},"õ":{"ha":744,"x_min":0,"x_max":0,"o":"m 461 763 b 254 814 383 763 328 814 b 171 753 215 814 186 794 l 160 756 b 292 919 171 854 222 919 b 496 867 360 919 429 867 b 579 931 532 867 561 883 l 592 928 b 461 763 579 825 526 763 m 372 -22 b 40 314 181 -22 40 125 b 372 656 40 501 190 656 b 706 318 571 656 706 507 b 372 -22 706 133 563 -22 m 244 319 b 372 0 244 128 293 0 b 499 314 436 0 499 68 b 367 633 499 510 449 633 b 244 319 304 633 244 560 "},"ŕ":{"ha":621,"x_min":0,"x_max":0,"o":"m 292 726 l 449 928 b 514 963 468 953 492 963 b 575 900 547 963 575 938 b 519 824 575 874 561 843 l 307 726 m 400 0 l 33 0 l 33 13 b 125 121 79 17 125 39 l 125 456 b 24 561 125 540 79 564 l 24 574 l 300 653 l 311 649 l 311 486 b 507 664 358 600 440 664 b 599 572 565 664 599 622 b 511 481 599 521 563 481 b 392 536 453 481 432 536 b 314 442 358 536 333 500 l 314 125 b 400 11 314 43 353 15 "},"ř":{"ha":621,"x_min":0,"x_max":0,"o":"m 597 946 l 418 733 l 328 733 l 150 946 l 168 946 l 372 838 l 578 946 m 400 0 l 33 0 l 33 13 b 125 121 79 17 125 39 l 125 456 b 24 561 125 540 79 564 l 24 574 l 300 653 l 311 649 l 311 486 b 507 664 358 600 440 664 b 599 572 565 664 599 622 b 511 481 599 521 563 481 b 392 536 453 481 432 536 b 314 442 358 536 333 500 l 314 125 b 400 11 314 43 353 15 "},"ŗ":{"ha":621,"x_min":0,"x_max":0,"o":"m 400 0 l 33 0 l 33 13 b 125 121 79 17 125 39 l 125 456 b 24 561 125 540 79 564 l 24 574 l 300 653 l 311 649 l 311 486 b 507 664 358 600 440 664 b 599 572 565 664 599 622 b 511 481 599 521 563 481 b 392 536 453 481 432 536 b 314 442 358 536 333 500 l 314 125 b 400 11 314 43 353 15 m 250 -346 b 190 -292 250 -314 225 -306 b 124 -204 151 -278 124 -244 b 221 -111 124 -153 163 -111 b 321 -231 275 -111 321 -150 b 156 -468 321 -337 263 -444 l 150 -451 b 250 -346 203 -437 250 -385 "},"ś":{"ha":576,"x_min":0,"x_max":0,"o":"m 194 726 l 351 928 b 417 963 371 953 394 963 b 478 900 450 963 478 938 b 422 824 478 874 464 843 l 210 726 m 285 1 b 399 94 357 1 399 40 b 282 214 399 153 346 183 b 53 450 182 263 53 308 b 303 656 53 560 138 656 b 517 603 383 656 461 636 l 469 442 l 457 443 b 281 628 432 561 356 628 b 172 542 213 628 172 592 b 332 400 172 471 249 438 b 535 182 429 354 535 304 b 272 -22 535 61 440 -22 b 33 31 183 -22 85 1 l 86 213 l 101 211 b 285 1 118 82 192 1 "},"š":{"ha":576,"x_min":0,"x_max":0,"o":"m 507 946 l 328 733 l 238 733 l 60 946 l 78 946 l 282 838 l 488 946 m 285 1 b 399 94 357 1 399 40 b 282 214 399 153 346 183 b 53 450 182 263 53 308 b 303 656 53 560 138 656 b 517 603 383 656 461 636 l 469 442 l 457 443 b 281 628 432 561 356 628 b 172 542 213 628 172 592 b 332 400 172 471 249 438 b 535 182 429 354 535 304 b 272 -22 535 61 440 -22 b 33 31 183 -22 85 1 l 86 213 l 101 211 b 285 1 118 82 192 1 "},"ş":{"ha":569,"x_min":0,"x_max":0,"o":"m 261 -368 b 111 -324 197 -368 147 -350 l 118 -307 b 226 -339 150 -331 189 -339 b 356 -243 299 -339 356 -312 b 199 -165 356 -178 307 -150 l 194 -160 l 267 -22 b 33 31 179 -21 83 1 l 86 213 l 101 211 b 285 1 118 82 192 1 b 399 94 357 1 399 40 b 53 450 399 243 53 218 b 303 656 53 560 138 656 b 517 603 383 656 461 636 l 469 442 l 457 443 b 281 628 432 561 356 628 b 172 542 213 628 172 592 b 535 182 172 389 535 408 b 294 -22 535 67 449 -15 l 256 -97 b 311 -92 272 -94 290 -92 b 465 -218 399 -92 465 -137 b 261 -368 465 -304 385 -368 "},"ŝ":{"ha":576,"x_min":0,"x_max":0,"o":"m 288 832 l 79 725 l 63 725 l 244 936 l 333 936 l 510 725 l 488 725 m 285 1 b 399 94 357 1 399 40 b 282 214 399 153 346 183 b 53 450 182 263 53 308 b 303 656 53 560 138 656 b 517 603 383 656 461 636 l 469 442 l 457 443 b 281 628 432 561 356 628 b 172 542 213 628 172 592 b 332 400 172 471 249 438 b 535 182 429 354 535 304 b 272 -22 535 61 440 -22 b 33 31 183 -22 85 1 l 86 213 l 101 211 b 285 1 118 82 192 1 "},"ș":{"ha":576,"x_min":0,"x_max":0,"o":"m 285 1 b 399 94 357 1 399 40 b 282 214 399 153 346 183 b 53 450 182 263 53 308 b 303 656 53 560 138 656 b 517 603 383 656 461 636 l 469 442 l 457 443 b 281 628 432 561 356 628 b 172 542 213 628 172 592 b 332 400 172 471 249 438 b 535 182 429 354 535 304 b 272 -22 535 61 440 -22 b 33 31 183 -22 85 1 l 86 213 l 101 211 b 285 1 118 82 192 1 m 315 -346 b 256 -292 315 -314 290 -306 b 189 -204 217 -278 189 -244 b 286 -111 189 -153 228 -111 b 386 -231 340 -111 386 -150 b 221 -468 386 -337 328 -444 l 215 -451 b 315 -346 268 -437 315 -385 "},"ŧ":{"ha":478,"x_min":0,"x_max":0,"o":"m 458 135 b 243 -21 400 32 321 -21 b 99 139 154 -21 99 49 l 99 415 l 10 415 l 10 442 l 99 442 l 99 603 l 10 603 l 10 618 b 268 910 119 649 228 769 l 288 910 l 288 631 l 442 631 l 442 604 l 288 604 l 288 442 l 444 442 l 444 415 l 288 415 l 288 181 b 357 88 288 117 315 88 b 444 144 389 88 417 104 l 458 135 "},"ť":{"ha":493,"x_min":0,"x_max":0,"o":"m 374 726 l 369 1004 b 446 1093 369 1065 404 1093 b 515 1021 481 1093 515 1068 b 499 957 515 1004 511 982 l 385 726 m 288 604 l 288 181 b 357 88 288 117 315 88 b 444 144 389 88 417 104 l 458 135 b 243 -21 400 32 321 -21 b 99 139 154 -21 99 49 l 99 603 l 10 603 l 10 618 b 268 910 119 649 228 769 l 288 910 l 288 631 l 442 631 l 442 604 "},"ţ":{"ha":469,"x_min":0,"x_max":0,"o":"m 288 604 l 288 181 b 357 88 288 117 315 88 b 444 144 389 88 417 104 l 458 135 b 243 -21 400 32 321 -21 b 99 139 154 -21 99 49 l 99 603 l 10 603 l 10 618 b 268 910 119 649 228 769 l 288 910 l 288 631 l 442 631 l 442 604 m 258 -368 b 108 -324 194 -368 144 -350 l 115 -307 b 224 -339 147 -331 186 -339 b 353 -243 296 -339 353 -312 b 196 -165 353 -178 304 -150 l 192 -160 l 268 -14 l 296 -14 l 253 -97 b 308 -92 269 -94 288 -92 b 463 -218 396 -92 463 -137 b 258 -368 463 -304 382 -368 "},"ț":{"ha":469,"x_min":0,"x_max":0,"o":"m 288 604 l 288 181 b 357 88 288 117 315 88 b 444 144 389 88 417 104 l 458 135 b 243 -21 400 32 321 -21 b 99 139 154 -21 99 49 l 99 603 l 10 603 l 10 618 b 268 910 119 649 228 769 l 288 910 l 288 631 l 442 631 l 442 604 m 313 -346 b 253 -292 313 -314 288 -306 b 186 -204 214 -278 186 -244 b 283 -111 186 -153 225 -111 b 383 -231 338 -111 383 -150 b 218 -468 383 -337 325 -444 l 213 -451 b 313 -346 265 -437 313 -385 "},"þ":{"ha":763,"x_min":0,"x_max":0,"o":"m 390 0 b 529 285 461 0 529 104 b 383 540 529 460 468 540 b 288 494 344 540 311 524 l 288 117 b 390 0 304 33 349 0 m 383 -321 l 7 -321 l 7 -307 b 99 -199 53 -303 99 -281 l 99 851 b 0 956 99 938 53 958 l 0 969 l 276 1046 l 288 1042 l 288 531 b 490 656 326 593 396 656 b 722 357 633 656 722 519 b 389 -22 722 135 553 -22 b 288 4 350 -22 315 -12 l 288 -199 b 383 -307 288 -281 336 -303 "},"ú":{"ha":801,"x_min":0,"x_max":0,"o":"m 310 726 l 467 928 b 532 963 486 953 510 963 b 593 900 565 963 593 938 b 538 824 593 874 579 843 l 325 726 m 500 86 b 281 -22 433 14 354 -22 b 118 157 182 -22 118 40 l 118 456 b 19 561 118 542 72 564 l 19 574 l 296 653 l 307 649 l 307 181 b 392 60 307 96 339 60 b 496 111 424 60 461 76 l 496 457 b 404 561 496 543 454 564 l 404 574 l 675 653 l 686 649 l 686 143 b 778 31 686 56 724 28 l 778 17 l 511 -18 l 500 -14 "},"ŭ":{"ha":801,"x_min":0,"x_max":0,"o":"m 400 753 b 207 936 297 753 207 817 l 226 936 b 400 846 238 879 301 846 b 574 936 499 846 561 879 l 592 936 b 400 753 592 817 501 753 m 500 86 b 281 -22 433 14 354 -22 b 118 157 182 -22 118 40 l 118 456 b 19 561 118 542 72 564 l 19 574 l 296 653 l 307 649 l 307 181 b 392 60 307 96 339 60 b 496 111 424 60 461 76 l 496 457 b 404 561 496 543 454 564 l 404 574 l 675 653 l 686 649 l 686 143 b 778 31 686 56 724 28 l 778 17 l 511 -18 l 500 -14 "},"û":{"ha":801,"x_min":0,"x_max":0,"o":"m 403 832 l 194 725 l 178 725 l 360 936 l 449 936 l 625 725 l 603 725 m 500 86 b 281 -22 433 14 354 -22 b 118 157 182 -22 118 40 l 118 456 b 19 561 118 542 72 564 l 19 574 l 296 653 l 307 649 l 307 181 b 392 60 307 96 339 60 b 496 111 424 60 461 76 l 496 457 b 404 561 496 543 454 564 l 404 574 l 675 653 l 686 649 l 686 143 b 778 31 686 56 724 28 l 778 17 l 511 -18 l 500 -14 "},"ü":{"ha":801,"x_min":0,"x_max":0,"o":"m 431 857 b 531 954 431 910 475 954 b 629 857 585 954 629 910 b 531 758 629 803 585 758 b 431 857 475 758 431 803 m 172 857 b 271 954 172 910 217 954 b 371 857 326 954 371 910 b 271 758 371 803 326 758 b 172 857 217 758 172 803 m 500 86 b 281 -22 433 14 354 -22 b 118 157 182 -22 118 40 l 118 456 b 19 561 118 542 72 564 l 19 574 l 296 653 l 307 649 l 307 181 b 392 60 307 96 339 60 b 496 111 424 60 461 76 l 496 457 b 404 561 496 543 454 564 l 404 574 l 675 653 l 686 649 l 686 143 b 778 31 686 56 724 28 l 778 17 l 511 -18 l 500 -14 "},"ù":{"ha":801,"x_min":0,"x_max":0,"o":"m 468 726 l 256 825 b 199 900 214 843 199 874 b 261 964 199 936 226 964 b 326 928 283 964 306 954 l 483 726 m 500 86 b 281 -22 433 14 354 -22 b 118 157 182 -22 118 40 l 118 456 b 19 561 118 542 72 564 l 19 574 l 296 653 l 307 649 l 307 181 b 392 60 307 96 339 60 b 496 111 424 60 461 76 l 496 457 b 404 561 496 543 454 564 l 404 574 l 675 653 l 686 649 l 686 143 b 778 31 686 56 724 28 l 778 17 l 511 -18 l 500 -14 "},"ű":{"ha":801,"x_min":0,"x_max":0,"o":"m 463 725 l 582 914 b 651 960 601 946 628 960 b 708 906 683 960 708 936 b 650 826 708 878 689 850 l 478 725 m 236 725 l 356 914 b 426 960 375 946 403 960 b 482 906 457 960 482 936 b 424 826 482 878 463 850 l 251 725 m 500 86 b 281 -22 433 14 354 -22 b 118 157 182 -22 118 40 l 118 456 b 19 561 118 542 72 564 l 19 574 l 296 653 l 307 649 l 307 181 b 392 60 307 96 339 60 b 496 111 424 60 461 76 l 496 457 b 404 561 496 543 454 564 l 404 574 l 675 653 l 686 649 l 686 143 b 778 31 686 56 724 28 l 778 17 l 511 -18 l 500 -14 "},"ū":{"ha":801,"x_min":0,"x_max":0,"o":"m 596 872 l 596 831 l 206 831 l 206 872 m 500 86 b 281 -22 433 14 354 -22 b 118 157 182 -22 118 40 l 118 456 b 19 561 118 542 72 564 l 19 574 l 296 653 l 307 649 l 307 181 b 392 60 307 96 339 60 b 496 111 424 60 461 76 l 496 457 b 404 561 496 543 454 564 l 404 574 l 675 653 l 686 649 l 686 143 b 778 31 686 56 724 28 l 778 17 l 511 -18 l 500 -14 "},"ų":{"ha":801,"x_min":0,"x_max":0,"o":"m 506 -337 b 369 -201 418 -337 369 -278 b 500 -12 369 -126 418 -53 l 500 86 b 281 -22 433 14 354 -22 b 118 157 182 -22 118 40 l 118 456 b 19 561 118 542 72 564 l 19 574 l 296 653 l 307 649 l 307 181 b 392 60 307 96 339 60 b 496 111 424 60 461 76 l 496 457 b 404 561 496 543 454 564 l 404 574 l 675 653 l 686 649 l 686 143 b 778 31 686 56 724 28 l 778 17 l 540 -14 b 481 -161 504 -42 481 -93 b 564 -285 481 -244 515 -285 b 625 -261 586 -285 608 -278 l 636 -269 b 506 -337 607 -311 564 -337 "},"ů":{"ha":801,"x_min":0,"x_max":0,"o":"m 399 986 b 535 850 474 986 535 924 b 399 714 535 774 474 714 b 264 850 324 714 264 774 b 399 986 264 924 324 986 m 399 957 b 299 850 343 957 299 908 b 399 743 299 790 343 743 b 500 850 454 743 500 790 b 399 957 500 908 454 957 m 500 86 b 281 -22 433 14 354 -22 b 118 157 182 -22 118 40 l 118 456 b 19 561 118 542 72 564 l 19 574 l 296 653 l 307 649 l 307 181 b 392 60 307 96 339 60 b 496 111 424 60 461 76 l 496 457 b 404 561 496 543 454 564 l 404 574 l 675 653 l 686 649 l 686 143 b 778 31 686 56 724 28 l 778 17 l 511 -18 l 500 -14 "},"ũ":{"ha":801,"x_min":0,"x_max":0,"o":"m 493 763 b 286 814 415 763 360 814 b 203 753 247 814 218 794 l 192 756 b 324 919 203 854 254 919 b 528 867 392 919 461 867 b 611 931 564 867 593 883 l 624 928 b 493 763 611 825 558 763 m 500 86 b 281 -22 433 14 354 -22 b 118 157 182 -22 118 40 l 118 456 b 19 561 118 542 72 564 l 19 574 l 296 653 l 307 649 l 307 181 b 392 60 307 96 339 60 b 496 111 424 60 461 76 l 496 457 b 404 561 496 543 454 564 l 404 574 l 675 653 l 686 649 l 686 143 b 778 31 686 56 724 28 l 778 17 l 511 -18 l 500 -14 "},"ẃ":{"ha":1075,"x_min":0,"x_max":0,"o":"m 457 726 l 614 928 b 679 963 633 953 657 963 b 740 900 713 963 740 938 b 685 824 740 874 726 843 l 472 726 m 533 404 l 374 -11 l 328 -11 l 111 483 b 6 618 72 571 49 607 l 6 631 l 336 631 l 336 618 b 314 483 290 614 278 568 l 429 214 l 518 446 l 503 483 b 393 618 464 582 431 611 l 393 631 l 738 631 l 738 618 b 694 506 679 614 668 574 l 800 217 l 865 382 b 807 618 921 522 894 607 l 807 631 l 1069 631 l 1069 618 b 907 404 1018 613 971 564 l 739 -11 l 694 -11 "},"ẅ":{"ha":1075,"x_min":0,"x_max":0,"o":"m 578 857 b 678 954 578 910 622 954 b 776 857 732 954 776 910 b 678 758 776 803 732 758 b 578 857 622 758 578 803 m 319 857 b 418 954 319 910 364 954 b 518 857 474 954 518 910 b 418 758 518 803 474 758 b 319 857 364 758 319 803 m 533 404 l 374 -11 l 328 -11 l 111 483 b 6 618 72 571 49 607 l 6 631 l 336 631 l 336 618 b 314 483 290 614 278 568 l 429 214 l 518 446 l 503 483 b 393 618 464 582 431 611 l 393 631 l 738 631 l 738 618 b 694 506 679 614 668 574 l 800 217 l 865 382 b 807 618 921 522 894 607 l 807 631 l 1069 631 l 1069 618 b 907 404 1018 613 971 564 l 739 -11 l 694 -11 "},"ẁ":{"ha":1075,"x_min":0,"x_max":0,"o":"m 615 726 l 403 825 b 346 900 361 843 346 874 b 408 964 346 936 374 964 b 474 928 431 964 453 954 l 631 726 m 533 404 l 374 -11 l 328 -11 l 111 483 b 6 618 72 571 49 607 l 6 631 l 336 631 l 336 618 b 314 483 290 614 278 568 l 429 214 l 518 446 l 503 483 b 393 618 464 582 431 611 l 393 631 l 738 631 l 738 618 b 694 506 679 614 668 574 l 800 217 l 865 382 b 807 618 921 522 894 607 l 807 631 l 1069 631 l 1069 618 b 907 404 1018 613 971 564 l 739 -11 l 694 -11 "},"ŵ":{"ha":1075,"x_min":0,"x_max":0,"o":"m 550 832 l 342 725 l 325 725 l 507 936 l 596 936 l 772 725 l 750 725 m 533 404 l 374 -11 l 328 -11 l 111 483 b 6 618 72 571 49 607 l 6 631 l 336 631 l 336 618 b 314 483 290 614 278 568 l 429 214 l 518 446 l 503 483 b 393 618 464 582 431 611 l 393 631 l 738 631 l 738 618 b 694 506 679 614 668 574 l 800 217 l 865 382 b 807 618 921 522 894 607 l 807 631 l 1069 631 l 1069 618 b 907 404 1018 613 971 564 l 739 -11 l 694 -11 "},"ý":{"ha":749,"x_min":0,"x_max":0,"o":"m 324 726 l 481 928 b 546 963 500 953 524 963 b 607 900 579 963 607 938 b 551 824 607 874 593 843 l 339 726 m 96 -331 b -35 -224 25 -331 -35 -293 b 54 -132 -35 -169 6 -132 b 136 -192 96 -132 121 -157 b 189 -260 153 -225 160 -260 b 294 -140 224 -260 265 -207 l 347 -19 l 121 482 b 6 619 82 568 49 610 l 6 631 l 385 631 l 385 619 b 333 472 322 615 294 561 l 449 207 l 526 386 b 472 619 585 517 567 610 l 472 631 l 739 631 l 739 619 b 560 383 676 610 633 549 l 322 -151 b 96 -331 267 -276 182 -331 "},"ŷ":{"ha":749,"x_min":0,"x_max":0,"o":"m 424 826 l 215 719 l 199 719 l 381 931 l 469 931 l 646 719 l 624 719 m 96 -331 b -35 -224 25 -331 -35 -293 b 54 -132 -35 -169 6 -132 b 136 -192 96 -132 121 -157 b 189 -260 153 -225 160 -260 b 294 -140 224 -260 265 -207 l 347 -19 l 121 482 b 6 619 82 568 49 610 l 6 631 l 385 631 l 385 619 b 333 472 322 615 294 561 l 449 207 l 526 386 b 472 619 585 517 567 610 l 472 631 l 739 631 l 739 619 b 560 383 676 610 633 549 l 322 -151 b 96 -331 267 -276 182 -331 "},"ÿ":{"ha":749,"x_min":0,"x_max":0,"o":"m 453 851 b 553 949 453 904 497 949 b 651 851 607 949 651 904 b 553 753 651 797 607 753 b 453 851 497 753 453 797 m 194 851 b 293 949 194 904 239 949 b 393 851 349 949 393 904 b 293 753 393 797 349 753 b 194 851 239 753 194 797 m 96 -331 b -35 -224 25 -331 -35 -293 b 54 -132 -35 -169 6 -132 b 136 -192 96 -132 121 -157 b 189 -260 153 -225 160 -260 b 294 -140 224 -260 265 -207 l 347 -19 l 121 482 b 6 619 82 568 49 610 l 6 631 l 385 631 l 385 619 b 333 472 322 615 294 561 l 449 207 l 526 386 b 472 619 585 517 567 610 l 472 631 l 739 631 l 739 619 b 560 383 676 610 633 549 l 322 -151 b 96 -331 267 -276 182 -331 "},"ỳ":{"ha":749,"x_min":0,"x_max":0,"o":"m 490 721 l 278 819 b 221 894 236 838 221 868 b 283 958 221 931 249 958 b 349 922 306 958 328 949 l 506 721 m 96 -331 b -35 -224 25 -331 -35 -293 b 54 -132 -35 -169 6 -132 b 136 -192 96 -132 121 -157 b 189 -260 153 -225 160 -260 b 294 -140 224 -260 265 -207 l 347 -19 l 121 482 b 6 619 82 568 49 610 l 6 631 l 385 631 l 385 619 b 333 472 322 615 294 561 l 449 207 l 526 386 b 472 619 585 517 567 610 l 472 631 l 739 631 l 739 619 b 560 383 676 610 633 549 l 322 -151 b 96 -331 267 -276 182 -331 "},"ź":{"ha":686,"x_min":0,"x_max":0,"o":"m 276 726 l 433 928 b 499 963 453 953 476 963 b 560 900 532 963 560 938 b 504 824 560 874 546 843 l 292 726 m 36 15 l 425 608 l 331 608 b 78 414 229 608 135 536 l 57 414 l 103 631 l 628 631 l 631 615 l 250 22 l 357 22 b 618 256 468 22 571 114 l 638 256 l 606 0 l 39 0 "},"ž":{"ha":686,"x_min":0,"x_max":0,"o":"m 589 946 l 410 733 l 319 733 l 142 946 l 160 946 l 364 838 l 569 946 m 36 15 l 425 608 l 331 608 b 78 414 229 608 135 536 l 57 414 l 103 631 l 628 631 l 631 615 l 250 22 l 357 22 b 618 256 468 22 571 114 l 638 256 l 606 0 l 39 0 "},"ż":{"ha":686,"x_min":0,"x_max":0,"o":"m 267 857 b 367 954 267 910 313 954 b 465 857 421 954 465 910 b 367 758 465 803 421 758 b 267 857 313 758 267 803 m 36 15 l 425 608 l 331 608 b 78 414 229 608 135 536 l 57 414 l 103 631 l 628 631 l 631 615 l 250 22 l 357 22 b 618 256 468 22 571 114 l 638 256 l 606 0 l 39 0 "},"ª":{"ha":458,"x_min":0,"x_max":0,"o":"m 201 618 b 250 640 217 618 233 625 b 249 664 249 647 249 656 l 249 806 b 151 685 167 771 151 725 b 201 618 151 636 175 618 m 335 568 b 254 624 296 568 267 586 b 135 565 217 582 178 565 b 32 660 68 565 32 608 b 249 824 32 718 68 769 l 249 889 b 206 971 249 949 235 971 b 176 951 190 971 181 964 b 163 893 171 936 169 915 b 104 843 154 864 136 843 b 51 894 74 843 51 865 b 210 989 51 939 93 989 b 371 853 321 989 371 939 l 371 667 b 396 621 371 638 379 621 b 435 649 410 621 424 629 l 446 642 b 335 568 415 592 381 568 "},"º":{"ha":475,"x_min":0,"x_max":0,"o":"m 446 779 b 238 567 446 664 357 567 b 31 775 119 567 31 658 b 238 989 31 893 125 989 b 446 779 361 989 446 897 m 235 969 b 163 779 196 969 163 922 b 238 586 163 665 190 586 b 314 775 278 586 314 629 b 235 969 314 892 285 969 "},"":{"ha":415,"x_min":0,"x_max":0,"o":"m 222 567 b 32 769 121 567 32 646 b 238 989 32 890 110 989 b 383 900 335 989 383 942 b 328 846 383 871 360 846 b 272 888 304 846 282 858 b 218 968 263 917 261 968 b 143 832 171 968 143 910 b 279 653 143 729 193 653 b 382 717 322 653 357 674 l 396 711 b 222 567 369 617 308 567 "},"ﬀ":{"ha":897,"x_min":0,"x_max":0,"o":"m 403 0 l 28 0 l 28 13 b 118 125 76 17 118 43 l 118 604 l 13 604 l 13 631 l 118 631 l 118 674 b 369 993 118 900 254 993 b 528 874 471 993 528 940 b 446 788 528 824 492 788 b 364 867 406 788 364 813 b 378 939 364 893 378 918 b 344 967 378 956 364 967 b 283 840 308 967 283 926 b 307 631 283 775 300 703 l 556 631 l 556 671 b 807 993 556 897 692 993 b 968 874 910 993 968 940 b 886 788 968 824 932 788 b 804 867 846 788 804 813 b 817 939 804 893 817 918 b 785 967 817 956 804 967 b 721 840 746 967 721 926 b 744 631 721 775 738 703 l 883 631 l 883 604 l 746 604 l 746 125 b 840 13 746 43 789 17 l 840 0 l 465 0 l 465 13 b 556 125 514 17 556 43 l 556 604 l 308 604 l 308 125 b 403 13 308 43 351 17 "},"":{"ha":861,"x_min":0,"x_max":0,"o":"m 403 0 l 28 0 l 28 13 b 118 125 76 17 118 43 l 118 604 l 13 604 l 13 631 l 118 631 l 118 651 b 400 997 118 888 269 997 b 592 861 515 997 592 939 b 500 767 592 808 556 767 b 410 853 454 767 410 796 b 422 931 410 879 422 904 b 375 974 422 957 407 974 b 286 824 321 974 286 918 b 307 631 286 761 301 697 l 453 631 l 735 649 l 746 644 l 743 476 l 743 121 b 836 13 743 40 790 17 l 836 0 l 465 0 l 465 13 b 554 121 510 17 554 39 l 554 475 b 457 604 554 576 510 603 l 308 604 l 308 125 b 403 13 308 43 351 17 "},"":{"ha":865,"x_min":0,"x_max":0,"o":"m 403 0 l 28 0 l 28 13 b 118 125 76 17 118 43 l 118 604 l 13 604 l 13 631 l 118 631 l 118 651 b 436 1001 118 889 281 1001 b 550 986 474 1001 514 996 l 735 1046 l 746 1042 l 746 121 b 839 13 746 39 793 17 l 839 0 l 468 0 l 468 13 b 556 121 513 17 556 39 l 556 810 b 413 968 556 900 492 968 b 290 824 342 968 290 919 b 307 631 290 756 303 697 l 447 631 l 447 604 l 308 604 l 308 125 b 403 13 308 43 351 17 "},"ﬃ":{"ha":1300,"x_min":0,"x_max":0,"o":"m 403 0 l 28 0 l 28 13 b 118 125 76 17 118 43 l 118 604 l 13 604 l 13 631 l 118 631 l 118 674 b 369 993 118 900 256 993 b 531 874 472 993 531 940 b 449 788 531 824 494 788 b 367 867 408 788 367 813 b 381 939 367 893 381 918 b 347 967 381 956 367 967 b 283 840 313 967 283 926 b 307 631 283 775 300 703 l 556 631 l 556 651 b 838 999 556 885 707 999 b 1029 861 953 999 1029 940 b 938 767 1029 808 993 767 b 849 853 893 767 849 796 b 860 931 849 879 860 904 b 813 972 860 956 844 972 b 728 824 760 972 728 918 b 744 631 728 761 739 697 l 892 631 l 1175 649 l 1186 644 l 1183 476 l 1183 121 b 1276 13 1183 40 1229 17 l 1276 0 l 906 0 l 906 13 b 994 121 950 17 994 39 l 994 475 b 897 604 994 576 950 603 l 746 604 l 746 125 b 840 13 746 43 789 17 l 840 0 l 465 0 l 465 13 b 556 125 514 17 556 43 l 556 604 l 308 604 l 308 125 b 403 13 308 43 351 17 "},"ﬄ":{"ha":1303,"x_min":0,"x_max":0,"o":"m 403 0 l 28 0 l 28 13 b 118 125 76 17 118 43 l 118 604 l 13 604 l 13 631 l 118 631 l 118 674 b 369 993 118 900 256 993 b 531 874 472 993 531 940 b 449 788 531 824 494 788 b 367 867 408 788 367 813 b 381 939 367 893 381 918 b 347 967 381 956 367 967 b 283 840 313 967 283 926 b 307 631 283 775 300 703 l 556 631 l 556 651 b 876 1001 556 889 719 1001 b 988 988 913 1001 953 996 l 1172 1046 l 1183 1042 l 1183 121 b 1276 13 1183 39 1229 17 l 1276 0 l 906 0 l 906 13 b 994 121 949 17 994 39 l 994 810 b 851 968 994 900 929 968 b 728 824 779 968 728 919 b 744 631 728 756 740 697 l 883 631 l 883 604 l 746 604 l 746 125 b 840 13 746 43 789 17 l 840 0 l 465 0 l 465 13 b 556 125 514 17 556 43 l 556 604 l 308 604 l 308 125 b 403 13 308 43 351 17 "},"":{"ha":889,"x_min":0,"x_max":0,"o":"m 504 768 b 768 718 606 768 699 749 l 713 508 l 694 511 b 472 743 668 654 581 743 b 257 381 353 743 257 618 b 467 1 257 113 349 1 b 600 128 542 1 600 42 l 600 228 b 496 343 600 317 547 339 l 496 356 l 871 356 l 871 343 b 788 228 831 339 788 317 l 788 68 b 461 -22 701 14 571 -22 b 42 372 228 -22 42 151 b 504 768 42 592 213 768 m 494 -346 b 435 -292 494 -314 469 -306 b 368 -204 396 -278 368 -244 b 465 -111 368 -153 407 -111 b 565 -231 519 -111 565 -150 b 400 -468 565 -337 507 -444 l 394 -451 b 494 -346 447 -437 494 -385 "},"":{"ha":868,"x_min":0,"x_max":0,"o":"m 424 732 b 324 613 372 726 324 706 l 324 132 b 426 13 324 40 374 17 l 426 0 l 29 0 l 29 13 b 128 132 78 17 128 40 l 128 613 b 29 732 128 706 78 726 l 29 744 l 424 744 m 576 0 l 357 328 l 357 340 l 532 554 b 517 733 619 663 588 722 l 517 744 l 831 744 l 831 732 b 565 557 740 724 654 664 l 493 468 l 700 160 b 856 13 768 56 814 24 l 856 0 m 501 -346 b 442 -292 501 -314 476 -306 b 375 -204 403 -278 375 -244 b 472 -111 375 -153 414 -111 b 572 -231 526 -111 572 -150 b 407 -468 572 -337 514 -444 l 401 -451 b 501 -346 454 -437 501 -385 "},"":{"ha":749,"x_min":0,"x_max":0,"o":"m 324 24 l 404 24 b 703 261 531 24 654 122 l 722 261 l 686 0 l 29 0 l 29 13 b 128 132 79 18 128 39 l 128 611 b 29 732 128 704 79 728 l 29 744 l 426 744 l 426 732 b 324 611 374 728 324 704 m 436 -346 b 376 -292 436 -314 411 -306 b 310 -204 338 -278 310 -244 b 407 -111 310 -153 349 -111 b 507 -231 461 -111 507 -150 b 342 -468 507 -337 449 -444 l 336 -451 b 436 -346 389 -437 436 -385 "},"":{"ha":874,"x_min":0,"x_max":0,"o":"m 685 -14 l 186 572 l 186 207 b 342 13 186 97 238 18 l 342 0 l 13 0 l 13 13 b 153 215 90 17 150 67 l 157 513 b 21 733 158 639 108 721 l 21 744 l 301 744 l 692 292 l 689 531 b 547 733 688 649 647 728 l 547 744 l 858 744 l 858 733 b 722 531 771 728 724 664 l 719 -14 m 465 -346 b 406 -292 465 -314 440 -306 b 339 -204 367 -278 339 -244 b 436 -111 339 -153 378 -111 b 536 -231 490 -111 536 -150 b 371 -468 536 -337 478 -444 l 365 -451 b 465 -346 418 -437 465 -385 "},"":{"ha":831,"x_min":0,"x_max":0,"o":"m 324 335 l 357 335 b 526 532 469 335 526 410 b 368 724 526 658 474 724 l 324 724 m 419 0 l 29 0 l 29 13 b 128 133 79 17 128 42 l 128 611 b 29 732 128 704 79 726 l 29 744 l 411 744 b 724 536 617 744 724 651 b 574 342 724 451 668 379 l 694 128 b 818 13 735 57 774 22 l 818 0 l 553 0 l 383 310 l 324 310 l 324 133 b 419 13 324 42 371 17 m 479 -346 b 419 -292 479 -314 454 -306 b 353 -204 381 -278 353 -244 b 450 -111 353 -153 392 -111 b 550 -231 504 -111 550 -150 b 385 -468 550 -337 492 -444 l 379 -451 b 479 -346 432 -437 479 -385 "},"":{"ha":664,"x_min":0,"x_max":0,"o":"m 297 -368 b 147 -324 233 -368 183 -350 l 154 -307 b 263 -339 186 -331 225 -339 b 392 -243 335 -339 392 -312 b 235 -165 392 -178 343 -150 l 231 -160 l 301 -24 b 43 38 208 -22 108 1 l 94 249 l 113 246 b 322 0 139 94 208 0 b 467 119 414 0 467 56 b 63 532 467 303 63 261 b 344 768 63 658 153 768 b 588 713 438 768 528 747 l 533 529 l 517 532 b 324 746 494 674 419 746 b 186 636 243 746 186 704 b 611 226 186 453 611 489 b 331 -24 611 89 503 -17 l 292 -97 b 347 -92 308 -94 326 -92 b 501 -218 435 -92 501 -137 b 297 -368 501 -304 421 -368 "},"":{"ha":664,"x_min":0,"x_max":0,"o":"m 113 246 b 322 0 139 94 208 0 b 467 119 414 0 467 56 b 293 279 467 203 385 239 b 63 532 183 329 63 383 b 344 768 63 658 153 768 b 588 713 438 768 528 747 l 533 529 l 517 532 b 324 746 494 674 419 746 b 186 636 243 746 186 704 b 350 482 186 558 263 519 b 611 226 469 429 611 378 b 313 -24 611 85 496 -24 b 43 38 215 -24 111 0 l 94 249 l 113 246 m 358 -346 b 299 -292 358 -314 333 -306 b 232 -204 260 -278 232 -244 b 329 -111 232 -153 271 -111 b 429 -231 383 -111 429 -150 b 264 -468 429 -337 371 -444 l 258 -451 b 358 -346 311 -437 358 -385 "},"":{"ha":749,"x_min":0,"x_max":0,"o":"m 704 744 l 735 514 l 719 514 l 688 574 b 500 721 626 685 571 721 l 472 721 l 472 129 b 576 13 472 39 524 17 l 576 0 l 175 0 l 175 13 b 276 129 228 17 276 39 l 276 721 l 256 721 b 57 567 178 721 115 682 l 29 514 l 15 514 l 46 744 m 351 -354 b 201 -310 288 -354 238 -336 l 208 -293 b 317 -325 240 -317 279 -325 b 446 -229 389 -325 446 -299 b 289 -151 446 -164 397 -136 l 285 -146 l 361 0 l 389 0 l 346 -83 b 401 -78 363 -81 381 -78 b 556 -204 489 -78 556 -124 b 351 -354 556 -290 475 -354 "},"&":{"ha":1031,"x_min":0,"x_max":0,"o":"m 329 865 b 444 632 329 804 360 742 b 514 814 499 689 514 753 b 417 976 514 917 474 976 b 329 865 372 976 329 936 m 410 61 b 585 132 469 61 526 82 l 304 496 b 221 288 244 436 221 365 b 410 61 221 154 289 61 m 606 106 b 319 -24 514 14 421 -24 b 42 217 144 -24 42 82 b 283 525 42 361 163 453 b 163 788 192 646 163 722 b 421 997 163 917 282 997 b 650 828 549 997 650 932 b 464 607 650 747 589 685 l 713 294 b 782 422 735 332 758 375 b 707 617 838 538 797 600 l 707 631 l 1003 631 l 1003 615 b 824 442 925 603 875 551 b 732 271 793 376 763 319 l 833 143 b 983 13 904 56 942 25 l 983 0 l 686 0 "},"`":{"ha":694,"x_min":0,"x_max":0,"o":"m 474 726 l 261 825 b 204 900 219 843 204 874 b 267 964 204 936 232 964 b 332 928 289 964 311 954 l 489 726 "},"´":{"ha":694,"x_min":0,"x_max":0,"o":"m 206 726 l 363 928 b 428 963 382 953 406 963 b 489 900 461 963 489 938 b 433 824 489 874 475 843 l 221 726 "},"ˆ":{"ha":693,"x_min":0,"x_max":0,"o":"m 349 832 l 140 725 l 124 725 l 306 936 l 394 936 l 571 725 l 549 725 "},"˜":{"ha":694,"x_min":0,"x_max":0,"o":"m 433 764 b 226 815 356 764 300 815 b 143 754 188 815 158 796 l 132 757 b 264 921 143 856 194 921 b 468 868 332 921 401 868 b 551 932 504 868 533 885 l 564 929 b 433 764 551 826 499 764 "},"¯":{"ha":693,"x_min":0,"x_max":0,"o":"m 542 872 l 542 831 l 151 831 l 151 872 "},"˘":{"ha":694,"x_min":0,"x_max":0,"o":"m 347 753 b 154 936 244 753 154 817 l 174 936 b 347 846 185 879 249 846 b 521 936 446 846 508 879 l 539 936 b 347 753 539 817 449 753 "},"˙":{"ha":694,"x_min":0,"x_max":0,"o":"m 247 857 b 347 954 247 910 293 954 b 446 857 401 954 446 910 b 347 758 446 803 401 758 b 247 857 293 758 247 803 "},"¨":{"ha":693,"x_min":0,"x_max":0,"o":"m 376 857 b 476 954 376 910 421 954 b 575 857 531 954 575 910 b 476 758 575 803 531 758 b 376 857 421 758 376 803 m 118 857 b 217 954 118 910 163 954 b 317 857 272 954 317 910 b 217 758 317 803 272 758 b 118 857 163 758 118 803 "},"˚":{"ha":693,"x_min":0,"x_max":0,"o":"m 346 986 b 482 850 421 986 482 924 b 346 714 482 774 421 714 b 211 850 271 714 211 774 b 346 986 211 924 271 986 m 346 957 b 246 850 290 957 246 908 b 346 743 246 790 290 743 b 447 850 401 743 447 790 b 346 957 447 908 401 957 "},"˝":{"ha":694,"x_min":0,"x_max":0,"o":"m 344 725 l 464 914 b 533 960 483 946 510 960 b 590 906 565 960 590 936 b 532 826 590 878 571 850 l 360 725 m 118 725 l 238 914 b 308 960 257 946 285 960 b 364 906 339 960 364 936 b 306 826 364 878 344 850 l 133 725 "},"ˇ":{"ha":693,"x_min":0,"x_max":0,"o":"m 571 946 l 392 733 l 301 733 l 124 946 l 142 946 l 346 838 l 551 946 "},"":{"ha":571,"x_min":0,"x_max":0,"o":"m 269 639 l 265 917 b 342 1006 265 978 300 1006 b 411 933 376 1006 411 981 b 394 869 411 917 407 894 l 281 639 "},"":{"ha":694,"x_min":0,"x_max":0,"o":"m 382 -346 b 322 -292 382 -314 357 -306 b 256 -204 283 -278 256 -244 b 353 -111 256 -153 294 -111 b 453 -231 407 -111 453 -150 b 288 -468 453 -337 394 -444 l 282 -451 b 382 -346 335 -437 382 -385 "},"¸":{"ha":694,"x_min":0,"x_max":0,"o":"m 321 -368 b 171 -324 257 -368 207 -350 l 178 -307 b 286 -339 210 -331 249 -339 b 415 -243 358 -339 415 -312 b 258 -165 415 -178 367 -150 l 254 -160 l 331 -14 l 358 -14 l 315 -97 b 371 -92 332 -94 350 -92 b 525 -218 458 -92 525 -137 b 321 -368 525 -304 444 -368 "},"˛":{"ha":694,"x_min":0,"x_max":0,"o":"m 485 -269 b 354 -337 456 -311 413 -337 b 218 -201 267 -337 218 -278 b 406 10 218 -110 290 -22 l 414 0 b 329 -161 363 -22 329 -79 b 413 -285 329 -244 364 -285 b 474 -261 435 -285 457 -278 "},"":{"ha":694,"x_min":0,"x_max":0,"o":"m 474 1076 l 261 1139 b 194 1213 218 1151 194 1182 b 257 1275 194 1247 222 1275 b 315 1249 276 1275 296 1267 l 493 1076 "},"":{"ha":694,"x_min":0,"x_max":0,"o":"m 379 1249 b 438 1275 399 1267 418 1275 b 500 1213 472 1275 500 1247 b 433 1139 500 1182 476 1151 l 221 1076 l 201 1076 "},"":{"ha":694,"x_min":0,"x_max":0,"o":"m 349 1163 l 147 1081 l 131 1081 l 303 1258 l 397 1258 l 564 1081 l 543 1081 "},"":{"ha":694,"x_min":0,"x_max":0,"o":"m 558 1249 b 432 1089 546 1149 496 1089 b 231 1143 357 1089 301 1143 b 151 1088 193 1143 165 1126 l 139 1090 b 268 1247 150 1185 201 1247 b 467 1192 333 1247 403 1192 b 546 1251 500 1192 529 1207 l 558 1249 "},"":{"ha":693,"x_min":0,"x_max":0,"o":"m 542 1172 l 542 1132 l 151 1132 l 151 1172 "},"":{"ha":694,"x_min":0,"x_max":0,"o":"m 347 1086 b 154 1264 244 1086 154 1146 l 174 1264 b 347 1179 185 1208 249 1179 b 521 1264 446 1179 510 1208 l 539 1264 b 347 1086 539 1146 449 1086 "},"":{"ha":694,"x_min":0,"x_max":0,"o":"m 347 1081 b 247 1179 293 1081 247 1125 b 347 1276 247 1231 293 1276 b 446 1179 401 1276 446 1232 b 347 1081 446 1125 401 1081 "},"":{"ha":693,"x_min":0,"x_max":0,"o":"m 217 1081 b 118 1179 163 1081 118 1125 b 217 1276 118 1231 163 1276 b 317 1179 272 1276 317 1232 b 217 1081 317 1125 272 1081 m 476 1081 b 376 1179 421 1081 376 1125 b 476 1276 376 1231 421 1276 b 575 1179 531 1276 575 1232 b 476 1081 575 1125 531 1081 "},"":{"ha":693,"x_min":0,"x_max":0,"o":"m 346 1332 b 482 1196 421 1332 482 1271 b 346 1060 482 1121 421 1060 b 211 1196 271 1060 211 1121 b 346 1332 211 1271 271 1332 m 346 1304 b 246 1196 290 1304 246 1254 b 346 1089 246 1136 290 1089 b 447 1196 401 1089 447 1136 b 346 1304 447 1254 401 1304 "},"":{"ha":694,"x_min":0,"x_max":0,"o":"m 451 1224 b 517 1265 469 1250 493 1265 b 567 1218 546 1265 567 1244 b 508 1149 567 1194 549 1168 l 364 1078 l 350 1078 m 236 1224 b 303 1265 254 1250 278 1265 b 353 1218 331 1265 353 1244 b 294 1149 353 1194 335 1168 l 149 1078 l 135 1078 "},"":{"ha":694,"x_min":0,"x_max":0,"o":"m 346 1176 l 547 1258 l 564 1258 l 392 1081 l 297 1081 l 131 1258 l 151 1258 "},".":{"ha":369,"x_min":0,"x_max":0,"o":"m 185 -15 b 72 96 124 -15 72 35 b 185 207 72 157 124 207 b 297 96 246 207 297 157 b 185 -15 297 35 246 -15 "},",":{"ha":371,"x_min":0,"x_max":0,"o":"m 219 -67 b 150 -4 219 -29 190 -19 b 72 97 104 13 72 50 b 185 206 72 157 118 206 b 300 67 247 206 300 161 b 108 -207 300 -57 232 -179 l 103 -189 b 219 -67 164 -174 219 -112 "},":":{"ha":369,"x_min":0,"x_max":0,"o":"m 185 425 b 72 536 124 425 72 475 b 185 647 72 597 124 647 b 297 536 246 647 297 597 b 185 425 297 475 246 425 m 185 -15 b 72 96 124 -15 72 35 b 185 207 72 157 124 207 b 297 96 246 207 297 157 b 185 -15 297 35 246 -15 "},";":{"ha":369,"x_min":0,"x_max":0,"o":"m 185 425 b 72 536 124 425 72 475 b 185 647 72 597 124 647 b 297 536 246 647 297 597 b 185 425 297 475 246 425 m 219 -67 b 150 -4 219 -29 190 -19 b 72 97 104 13 72 50 b 185 206 72 157 118 206 b 300 67 247 206 300 161 b 108 -207 300 -57 232 -179 l 103 -189 b 219 -67 164 -174 219 -112 "},"…":{"ha":1108,"x_min":0,"x_max":0,"o":"m 924 -15 b 811 96 863 -15 811 35 b 924 207 811 157 863 207 b 1036 96 985 207 1036 157 b 924 -15 1036 35 985 -15 m 554 -15 b 442 96 493 -15 442 35 b 554 207 442 157 493 207 b 667 96 615 207 667 157 b 554 -15 667 35 615 -15 m 185 -15 b 72 96 124 -15 72 35 b 185 207 72 157 124 207 b 297 96 246 207 297 157 b 185 -15 297 35 246 -15 "},"!":{"ha":364,"x_min":0,"x_max":0,"o":"m 168 299 b 64 865 150 556 64 749 b 181 1001 64 954 117 1001 b 299 865 247 1001 299 954 b 194 299 299 749 213 556 m 71 94 b 181 201 71 153 121 201 b 289 94 240 201 289 153 b 181 -15 289 33 240 -15 b 71 94 121 -15 71 33 "},"¡":{"ha":364,"x_min":0,"x_max":0,"o":"m 181 440 b 71 547 121 440 71 489 b 181 657 71 608 121 657 b 289 547 240 657 289 608 b 181 440 289 489 240 440 m 194 343 b 299 -224 213 86 299 -107 b 181 -360 299 -312 247 -360 b 64 -224 117 -360 64 -312 b 168 343 64 -107 150 86 "},"":{"ha":364,"x_min":0,"x_max":0,"o":"m 181 774 b 71 881 121 774 71 822 b 181 990 71 942 121 990 b 289 881 240 990 289 942 b 181 774 289 822 240 774 m 194 676 b 299 110 213 419 299 226 b 181 -26 299 21 247 -26 b 64 110 117 -26 64 21 b 168 676 64 226 150 419 "},"?":{"ha":681,"x_min":0,"x_max":0,"o":"m 307 307 b 301 353 303 324 301 338 b 443 749 301 517 443 529 b 293 968 443 878 390 968 b 172 833 224 968 172 914 b 208 714 172 769 208 754 b 122 638 208 674 175 638 b 25 753 67 638 25 683 b 332 996 25 874 139 996 b 644 771 507 996 644 926 b 468 524 644 660 574 599 b 340 307 383 464 329 415 m 221 94 b 331 201 221 153 271 201 b 440 94 390 201 440 153 b 331 -15 440 33 390 -15 b 221 94 271 -15 221 33 "},"¿":{"ha":681,"x_min":0,"x_max":0,"o":"m 450 546 b 340 439 450 488 400 439 b 231 546 281 439 231 488 b 340 656 231 607 281 656 b 450 546 400 656 450 607 m 364 333 b 369 288 368 317 369 303 b 228 -108 369 124 228 111 b 378 -328 228 -237 281 -328 b 499 -193 447 -328 499 -274 b 463 -74 499 -129 463 -114 b 549 3 463 -33 496 3 b 646 -112 604 3 646 -43 b 339 -356 646 -233 532 -356 b 26 -131 164 -356 26 -286 b 203 117 26 -19 97 42 b 331 333 288 176 342 225 "},"":{"ha":681,"x_min":0,"x_max":0,"o":"m 453 881 b 343 774 453 822 403 774 b 233 881 283 774 233 822 b 343 990 233 942 283 990 b 453 881 403 990 453 942 m 367 668 b 372 622 371 651 372 638 b 231 226 372 458 231 446 b 381 7 231 97 283 7 b 501 142 450 7 501 61 b 465 261 501 206 465 221 b 551 338 465 301 499 338 b 649 222 607 338 649 292 b 342 -21 649 101 535 -21 b 29 204 167 -21 29 49 b 206 451 29 315 100 376 b 333 668 290 511 344 560 "},"‘":{"ha":351,"x_min":0,"x_max":0,"o":"m 142 875 b 211 813 142 838 171 828 b 289 711 257 796 289 758 b 176 603 289 651 243 603 b 61 742 114 603 61 647 b 253 1015 61 865 129 988 l 258 997 b 142 875 197 982 142 921 "},"’":{"ha":351,"x_min":0,"x_max":0,"o":"m 210 740 b 140 803 210 778 181 788 b 63 904 94 819 63 857 b 175 1013 63 964 108 1013 b 290 874 238 1013 290 968 b 99 600 290 750 222 628 l 93 618 b 210 740 154 633 210 694 "},"“":{"ha":628,"x_min":0,"x_max":0,"o":"m 142 876 b 211 814 142 839 171 829 b 289 713 257 797 289 760 b 176 604 289 653 243 604 b 61 743 114 604 61 649 b 253 1017 61 867 129 989 l 258 999 b 142 876 197 983 142 922 m 418 876 b 488 814 418 839 447 829 b 565 713 533 797 565 760 b 453 604 565 653 519 604 b 338 743 390 604 338 649 b 529 1017 338 867 406 989 l 535 999 b 418 876 474 983 418 922 "},"”":{"ha":628,"x_min":0,"x_max":0,"o":"m 486 740 b 417 803 486 778 457 788 b 339 904 371 819 339 857 b 451 1013 339 964 385 1013 b 567 874 514 1013 567 968 b 375 600 567 750 499 628 l 369 618 b 486 740 431 633 486 694 m 210 740 b 140 803 210 778 181 788 b 63 904 94 819 63 857 b 175 1013 63 964 108 1013 b 290 874 238 1013 290 968 b 99 600 290 750 222 628 l 93 618 b 210 740 154 633 210 694 "},"‚":{"ha":371,"x_min":0,"x_max":0,"o":"m 219 -67 b 150 -4 219 -29 190 -19 b 72 97 104 13 72 50 b 185 206 72 157 118 206 b 300 67 247 206 300 161 b 108 -207 300 -57 232 -179 l 103 -189 b 219 -67 164 -174 219 -112 "},"„":{"ha":649,"x_min":0,"x_max":0,"o":"m 219 -67 b 150 -4 219 -29 190 -19 b 72 97 104 13 72 50 b 185 206 72 157 118 206 b 300 67 247 206 300 161 b 108 -207 300 -57 232 -179 l 103 -189 b 219 -67 164 -174 219 -112 m 496 -67 b 426 -4 496 -29 467 -19 b 349 97 381 13 349 50 b 461 206 349 157 394 206 b 576 67 524 206 576 161 b 385 -207 576 -57 508 -179 l 379 -189 b 496 -67 440 -174 496 -112 "},"‛":{"ha":351,"x_min":0,"x_max":0,"o":"m 211 803 b 142 740 171 788 142 778 b 258 618 142 694 197 633 l 253 600 b 61 874 129 628 61 750 b 176 1013 61 968 114 1013 b 289 904 243 1013 289 964 b 211 803 289 857 257 819 "},"‟":{"ha":625,"x_min":0,"x_max":0,"o":"m 211 804 b 142 742 171 789 142 779 b 258 619 142 696 197 635 l 253 601 b 61 875 129 629 61 751 b 176 1014 61 969 114 1014 b 289 906 243 1014 289 965 b 211 804 289 858 257 821 m 485 804 b 415 742 444 789 415 779 b 532 619 415 696 471 635 l 526 601 b 335 875 403 629 335 751 b 450 1014 335 969 388 1014 b 563 906 517 1014 563 965 b 485 804 563 858 531 821 "},"‹":{"ha":458,"x_min":0,"x_max":0,"o":"m 240 315 l 400 0 l 381 0 l 69 308 l 69 321 l 381 624 l 400 624 "},"›":{"ha":458,"x_min":0,"x_max":0,"o":"m 218 300 l 58 615 l 78 615 l 389 307 l 389 294 l 78 -8 l 58 -8 "},"«":{"ha":738,"x_min":0,"x_max":0,"o":"m 240 315 l 400 0 l 381 0 l 69 308 l 69 321 l 381 624 l 400 624 m 522 315 l 679 0 l 658 0 l 351 308 l 351 321 l 658 624 l 679 624 "},"»":{"ha":738,"x_min":0,"x_max":0,"o":"m 497 300 l 338 615 l 357 615 l 668 307 l 668 294 l 357 -8 l 338 -8 m 215 300 l 58 615 l 79 615 l 386 307 l 386 294 l 79 -8 l 58 -8 "},"/":{"ha":551,"x_min":0,"x_max":0,"o":"m 538 972 l 51 0 l 14 0 l 501 972 "},"\\":{"ha":558,"x_min":0,"x_max":0,"o":"m 53 972 l 544 0 l 507 0 l 14 972 "},"|":{"ha":314,"x_min":0,"x_max":0,"o":"m 175 -346 l 139 -346 l 139 972 l 175 972 "},"‖":{"ha":439,"x_min":0,"x_max":0,"o":"m 300 -346 l 264 -346 l 264 972 l 300 972 m 175 -346 l 139 -346 l 139 972 l 175 972 "},"¦":{"ha":314,"x_min":0,"x_max":0,"o":"m 175 358 l 139 358 l 139 972 l 175 972 m 175 -346 l 139 -346 l 139 269 l 175 269 "},"•":{"ha":443,"x_min":0,"x_max":0,"o":"m 64 489 b 222 649 64 578 135 649 b 379 489 308 649 379 578 b 222 331 379 400 308 331 b 64 489 135 331 64 400 "}," ":{"ha":842,"x_min":0,"x_max":0,"o":""}," ":{"ha":1119,"x_min":0,"x_max":0,"o":""}," ":{"ha":208,"x_min":0,"x_max":0,"o":""}," ":{"ha":139,"x_min":0,"x_max":0,"o":""},"​":{"ha":0,"x_min":0,"x_max":0,"o":""},"·":{"ha":369,"x_min":0,"x_max":0,"o":"m 185 307 b 72 418 124 307 72 357 b 185 529 72 479 124 529 b 297 418 246 529 297 479 b 185 307 297 357 246 307 "},"-":{"ha":529,"x_min":0,"x_max":0,"o":"m 460 442 l 460 390 l 69 390 l 69 442 "},"­":{"ha":529,"x_min":0,"x_max":0,"o":"m 69 442 l 69 390 l 460 390 l 460 442 "},"–":{"ha":842,"x_min":0,"x_max":0,"o":"m 772 442 l 772 390 l 69 390 l 69 442 "},"—":{"ha":1119,"x_min":0,"x_max":0,"o":"m 1050 442 l 1050 390 l 69 390 l 69 442 "},"":{"ha":369,"x_min":0,"x_max":0,"o":"m 185 399 b 72 510 124 399 72 449 b 185 621 72 571 124 621 b 297 510 246 621 297 571 b 185 399 297 449 246 399 "},"":{"ha":529,"x_min":0,"x_max":0,"o":"m 460 532 l 460 481 l 69 481 l 69 532 "},"":{"ha":842,"x_min":0,"x_max":0,"o":"m 772 532 l 772 481 l 69 481 l 69 532 "},"":{"ha":1119,"x_min":0,"x_max":0,"o":"m 1050 532 l 1050 481 l 69 481 l 69 532 "},"(":{"ha":496,"x_min":0,"x_max":0,"o":"m 33 364 b 464 979 33 682 242 917 l 468 967 b 236 364 329 903 236 696 b 468 -239 236 32 329 -175 l 464 -251 b 33 364 242 -189 33 46 "},")":{"ha":496,"x_min":0,"x_max":0,"o":"m 32 979 b 463 364 254 917 463 682 b 32 -251 463 46 254 -189 l 28 -239 b 260 364 167 -175 260 32 b 28 967 260 696 167 903 l 32 979 "},"[":{"ha":446,"x_min":0,"x_max":0,"o":"m 69 972 l 422 972 l 422 950 l 263 950 l 263 -226 l 422 -226 l 422 -249 l 69 -249 "},"]":{"ha":446,"x_min":0,"x_max":0,"o":"m 376 -249 l 24 -249 l 24 -226 l 183 -226 l 183 950 l 24 950 l 24 972 l 376 972 "},"{":{"ha":479,"x_min":0,"x_max":0,"o":"m 454 -247 b 360 -254 421 -253 389 -254 b 129 -69 192 -254 129 -162 b 176 213 129 29 176 108 b 49 351 176 315 143 351 l 0 351 l 0 376 l 49 376 b 176 511 143 376 176 413 b 129 789 176 617 129 694 b 361 983 129 885 192 983 b 454 975 389 983 421 981 l 454 957 b 410 961 438 958 424 961 b 303 854 332 961 303 917 b 351 557 303 782 351 651 b 132 364 351 453 269 383 b 351 175 257 346 351 283 b 303 -131 351 60 303 -58 b 410 -233 303 -189 332 -233 b 454 -229 424 -233 438 -231 l 454 -247 "},"}":{"ha":479,"x_min":0,"x_max":0,"o":"m 119 -254 b 25 -247 90 -254 58 -253 l 25 -229 b 69 -233 42 -231 56 -233 b 176 -131 147 -233 176 -189 b 128 175 176 -58 128 60 b 347 364 128 283 222 346 b 128 557 210 383 128 453 b 176 854 128 651 176 782 b 69 961 176 917 147 961 b 25 957 56 961 42 958 l 25 975 b 118 983 58 981 90 983 b 350 789 288 983 350 885 b 303 511 350 694 303 617 b 431 376 303 413 336 376 l 479 376 l 479 351 l 431 351 b 303 213 336 351 303 315 b 350 -69 303 108 350 29 b 119 -254 350 -162 288 -254 "},"":{"ha":476,"x_min":0,"x_max":0,"o":"m 449 965 b 243 431 319 915 243 725 b 449 -106 242 140 319 -54 l 444 -118 b 47 431 239 -68 47 144 b 444 978 47 717 239 928 l 449 965 "},"":{"ha":476,"x_min":0,"x_max":0,"o":"m 233 431 b 28 965 233 725 157 915 l 32 978 b 429 431 238 928 429 717 b 32 -118 429 144 238 -68 l 28 -106 b 233 431 157 -54 235 140 "},"":{"ha":450,"x_min":0,"x_max":0,"o":"m 69 972 l 425 972 l 425 950 l 263 950 l 263 -85 l 425 -85 l 425 -107 l 69 -107 "},"":{"ha":450,"x_min":0,"x_max":0,"o":"m 381 -107 l 25 -107 l 25 -85 l 188 -85 l 188 950 l 25 950 l 25 972 l 381 972 "},"":{"ha":461,"x_min":0,"x_max":0,"o":"m 438 -115 b 343 -122 403 -121 371 -122 b 129 42 188 -122 129 -39 b 178 296 129 131 178 201 b 53 418 178 386 146 418 l 3 418 l 3 443 l 53 443 b 178 565 146 443 178 474 b 129 813 178 656 129 726 b 343 983 129 894 188 983 b 438 975 371 983 403 981 l 438 957 b 396 960 422 960 408 960 b 303 881 328 960 303 926 b 350 608 303 815 350 711 b 135 431 350 507 257 447 b 350 251 257 413 350 353 b 303 -19 350 149 303 44 b 394 -100 303 -65 328 -100 b 438 -97 408 -100 421 -100 l 438 -115 "},"":{"ha":461,"x_min":0,"x_max":0,"o":"m 118 -122 b 24 -115 90 -122 58 -121 l 24 -97 b 67 -100 40 -100 53 -100 b 158 -19 133 -100 158 -65 b 111 251 158 44 111 149 b 326 431 111 353 204 413 b 111 608 204 447 111 507 b 158 881 111 711 158 815 b 65 960 158 926 133 960 b 24 957 53 960 39 960 l 24 975 b 118 983 58 981 90 983 b 332 813 274 983 332 894 b 283 565 332 726 283 656 b 408 443 283 474 315 443 l 458 443 l 458 418 l 408 418 b 283 296 315 418 283 386 b 332 42 283 201 332 131 b 118 -122 332 -39 274 -122 "},"*":{"ha":724,"x_min":0,"x_max":0,"o":"m 361 350 b 290 431 322 350 290 386 b 349 651 290 507 343 556 l 350 674 l 336 664 b 178 503 258 610 242 540 b 72 525 139 481 92 492 b 106 625 53 558 68 603 b 324 682 171 663 236 633 l 339 690 l 322 699 b 106 757 238 742 171 719 b 72 857 68 778 53 825 b 176 878 93 892 138 900 b 335 718 242 842 250 772 l 350 708 l 349 732 b 290 951 343 828 290 875 b 361 1032 290 996 322 1032 b 432 951 401 1032 432 996 b 372 732 432 875 378 833 l 371 708 l 389 719 b 546 878 475 772 482 843 b 650 858 586 900 629 892 b 617 757 669 825 654 778 b 400 699 551 719 486 739 l 382 690 l 399 682 b 617 625 489 638 551 663 b 650 524 654 603 671 557 b 544 503 631 490 585 481 b 388 663 481 539 467 610 l 371 674 l 372 650 b 432 431 378 550 432 507 b 361 350 432 386 401 350 "},"†":{"ha":650,"x_min":0,"x_max":0,"o":"m 340 -108 l 311 -108 l 311 81 b 221 406 311 260 301 338 b 311 626 301 469 310 538 l 310 626 b 108 575 222 626 178 575 b 35 639 69 575 35 606 b 108 704 35 676 69 704 b 310 651 178 704 217 651 l 311 651 l 311 728 b 254 951 311 832 254 875 b 325 1033 254 996 285 1033 b 397 951 364 1033 397 996 b 339 728 397 875 339 825 l 339 651 l 342 651 b 542 704 435 651 472 704 b 615 639 582 704 615 676 b 542 575 615 606 582 575 b 342 626 472 575 429 626 l 339 626 b 431 406 342 536 349 469 b 340 81 349 338 340 260 "},"‡":{"ha":650,"x_min":0,"x_max":0,"o":"m 397 -140 b 325 -222 397 -185 367 -222 b 254 -140 286 -222 254 -185 b 311 85 254 -64 311 -14 l 311 160 l 310 160 b 108 108 217 160 178 108 b 35 172 69 108 35 136 b 108 236 35 207 69 236 b 310 186 178 236 222 186 l 311 186 b 221 406 310 275 300 343 b 311 626 301 469 310 538 l 310 626 b 108 575 222 626 178 575 b 35 639 69 575 35 606 b 108 704 35 676 69 704 b 310 651 178 704 217 651 l 311 651 l 311 728 b 254 951 311 832 254 875 b 325 1033 254 996 285 1033 b 397 951 364 1033 397 996 b 339 728 397 875 339 825 l 339 651 l 342 651 b 542 704 435 651 472 704 b 615 639 582 704 615 676 b 542 575 615 606 582 575 b 342 626 472 575 429 626 l 339 626 b 431 406 342 536 349 469 b 339 186 349 342 342 274 l 342 186 b 542 236 429 186 472 236 b 615 172 582 236 615 207 b 542 108 615 136 582 108 b 342 160 472 108 435 160 l 339 160 l 339 85 b 397 -140 339 -19 397 -64 "},"§":{"ha":657,"x_min":0,"x_max":0,"o":"m 361 417 b 132 760 250 531 132 631 b 393 1001 132 899 233 1001 b 597 871 532 1001 597 935 b 514 788 597 826 565 788 b 424 863 474 788 438 810 b 357 974 410 913 407 974 b 232 818 285 974 232 903 b 617 217 232 594 617 488 b 574 111 617 168 596 124 l 572 111 b 458 319 567 176 531 247 m 297 356 b 526 14 408 243 526 142 b 265 -229 526 -125 426 -229 b 60 -99 125 -229 60 -161 b 142 -14 60 -54 92 -14 b 233 -90 183 -14 219 -36 b 301 -201 247 -139 251 -201 b 426 -46 375 -201 426 -131 b 42 556 426 178 42 285 b 85 663 42 606 63 650 l 86 661 b 200 454 92 596 128 526 l 297 356 "},"¶":{"ha":979,"x_min":0,"x_max":0,"o":"m 354 -240 l 354 -226 b 469 -92 413 -221 469 -196 l 469 331 l 431 331 b 60 653 186 331 60 471 b 428 972 60 835 178 972 l 958 972 l 958 960 b 843 828 900 954 843 932 l 843 -92 b 958 -226 843 -196 900 -221 l 958 -240 l 706 -240 l 706 947 l 606 947 l 606 -240 "},"^":{"ha":633,"x_min":0,"x_max":0,"o":"m 319 654 l 63 404 l 49 411 l 265 789 l 374 789 l 585 411 l 567 404 "},"~":{"ha":775,"x_min":0,"x_max":0,"o":"m 721 667 b 519 456 686 533 619 457 b 204 556 411 457 306 556 b 72 450 156 556 111 536 l 54 456 b 256 665 89 589 157 665 b 571 565 351 665 488 565 b 704 671 619 565 664 586 l 721 667 "},"_":{"ha":675,"x_min":0,"x_max":0,"o":"m 689 -85 l 689 -136 l -14 -136 l -14 -85 "},"'":{"ha":260,"x_min":0,"x_max":0,"o":"m 124 599 b 35 892 93 726 35 831 b 131 996 35 961 83 996 b 225 892 176 996 225 961 b 136 599 225 831 167 726 "},"\"":{"ha":499,"x_min":0,"x_max":0,"o":"m 363 599 b 274 892 332 726 274 831 b 369 996 274 961 322 996 b 464 892 415 996 464 961 b 376 599 464 831 406 726 m 124 599 b 35 892 93 726 35 831 b 131 996 35 961 83 996 b 225 892 176 996 225 961 b 136 599 225 831 167 726 "},"@":{"ha":1114,"x_min":0,"x_max":0,"o":"m 510 -218 b 68 229 257 -218 68 -26 b 629 831 68 563 314 831 b 1038 449 865 831 1038 686 b 746 47 1038 233 929 47 b 599 172 658 47 601 93 b 390 35 507 63 438 35 b 279 181 326 35 279 85 b 632 594 279 375 482 594 b 754 525 686 594 731 565 l 843 588 l 854 586 l 751 210 b 800 89 731 131 749 89 b 1008 449 910 89 1008 253 b 628 807 1008 668 846 807 b 97 233 338 807 97 554 b 513 -194 97 -6 269 -194 b 847 -89 642 -194 758 -156 l 860 -111 b 510 -218 765 -179 646 -218 m 485 125 b 600 206 514 125 554 146 b 608 242 603 218 604 229 l 663 436 b 628 569 688 525 663 569 b 431 217 551 569 431 368 b 485 125 431 150 453 125 "},"":{"ha":1114,"x_min":0,"x_max":0,"o":"m 510 -54 b 68 393 257 -54 68 138 b 629 994 68 726 314 994 b 1038 613 865 994 1038 850 b 746 211 1038 397 929 211 b 599 336 658 211 601 257 b 390 199 507 226 438 199 b 279 344 326 199 279 249 b 632 758 279 539 482 758 b 754 689 686 758 731 729 l 843 751 l 854 750 l 751 374 b 800 253 731 294 749 253 b 1008 613 910 253 1008 417 b 628 971 1008 832 846 971 b 97 397 338 971 97 718 b 513 -31 97 158 269 -31 b 847 75 642 -31 758 8 l 860 53 b 510 -54 765 -15 646 -54 m 485 289 b 600 369 514 289 554 310 b 608 406 603 382 604 393 l 663 600 b 628 733 688 689 663 733 b 431 381 551 733 431 532 b 485 289 431 314 453 289 "},"©":{"ha":1131,"x_min":0,"x_max":0,"o":"m 565 -24 b 68 483 274 -24 68 200 b 565 990 68 767 274 990 b 1063 483 857 990 1063 767 b 565 -24 1063 200 857 -24 m 567 1 b 1033 483 842 1 1033 211 b 564 965 1033 753 839 965 b 97 483 289 965 97 756 b 567 1 97 214 292 1 m 713 589 b 636 647 679 589 649 611 b 557 764 621 700 613 764 b 443 565 483 764 443 681 b 640 297 443 410 517 297 b 790 386 703 297 756 322 l 804 381 b 571 181 765 250 682 181 b 289 474 422 181 289 290 b 576 789 289 635 397 789 b 788 664 732 789 788 711 b 713 589 788 624 756 589 "},"®":{"ha":554,"x_min":0,"x_max":0,"o":"m 278 540 b 51 771 144 540 51 642 b 278 1001 51 900 144 1001 b 503 771 411 1001 503 900 b 278 540 503 642 411 540 m 276 982 b 75 771 157 982 75 890 b 278 560 75 653 158 560 b 481 771 397 560 481 651 b 276 982 481 889 396 982 m 254 765 l 265 765 b 311 819 297 767 311 783 b 271 874 311 857 299 874 l 254 874 m 279 664 l 157 664 l 157 669 b 188 704 171 671 188 676 l 188 843 b 157 878 188 872 171 876 l 157 885 l 288 885 b 378 821 350 885 378 857 b 339 765 378 799 364 778 l 367 710 b 403 669 379 685 393 674 l 403 664 l 315 664 l 274 754 l 254 754 l 254 704 b 279 669 254 676 267 671 "},"™":{"ha":1179,"x_min":0,"x_max":0,"o":"m 143 504 b 200 571 172 507 200 518 l 200 957 l 185 957 b 67 863 140 957 97 933 l 47 818 l 38 818 l 58 972 l 471 972 l 486 821 l 475 821 l 453 864 b 347 957 421 928 390 957 l 328 957 l 328 571 b 385 504 328 518 356 507 l 385 494 l 143 494 m 889 907 l 758 486 l 747 486 l 626 892 l 588 653 b 654 504 572 561 585 507 l 654 494 l 457 494 l 457 504 b 567 657 508 507 549 551 l 599 857 b 528 964 607 915 588 961 l 528 972 l 732 972 l 810 715 l 889 972 l 1096 972 l 1096 964 b 1025 857 1033 961 1015 915 l 1068 590 b 1150 504 1078 525 1113 506 l 1150 494 l 871 494 l 871 504 b 929 611 924 507 936 558 "},"€":{"ha":864,"x_min":0,"x_max":0,"o":"m 817 215 b 506 -19 772 83 674 -19 b 117 339 310 -19 147 129 l 14 339 l 14 367 l 114 367 b 114 446 111 393 111 419 l 14 446 l 14 472 l 117 472 b 551 843 144 685 310 843 b 818 788 646 843 747 822 l 781 560 l 763 561 b 542 819 733 718 646 819 b 328 472 429 819 333 714 l 579 472 l 568 446 l 328 446 b 332 367 328 415 329 390 l 538 367 l 526 339 l 336 339 b 585 89 367 154 476 89 b 799 221 668 89 751 129 l 817 215 "},"$":{"ha":646,"x_min":0,"x_max":0,"o":"m 157 686 b 290 542 157 618 215 578 l 290 806 b 157 686 208 800 157 749 m 456 150 b 319 310 456 228 394 271 l 319 18 b 456 150 406 24 456 82 m 290 -104 l 290 -6 b 35 129 110 -6 35 65 b 115 206 35 172 68 206 b 197 143 149 206 182 185 b 290 19 211 97 215 28 l 290 324 b 36 594 174 379 36 435 b 290 826 36 714 126 814 l 290 921 l 319 921 l 319 828 l 321 828 b 563 704 494 829 563 764 b 485 628 563 663 529 628 b 401 689 449 628 415 647 b 319 804 390 729 385 796 l 319 528 b 603 243 447 468 603 408 b 319 -4 603 108 482 7 l 319 -104 "},"¢":{"ha":635,"x_min":0,"x_max":0,"o":"m 208 425 b 294 190 208 324 239 239 l 389 606 b 332 639 376 625 360 639 b 208 425 247 639 208 535 m 346 19 b 288 25 326 19 307 21 l 263 -86 l 232 -86 l 258 32 b 43 335 138 67 43 174 b 353 664 43 503 157 664 b 401 661 369 664 386 663 l 428 778 l 457 778 l 431 657 b 582 532 542 638 582 575 b 503 451 582 490 550 451 b 421 514 467 451 433 475 b 408 560 417 528 413 544 l 321 171 b 421 143 349 153 383 143 b 588 238 490 143 550 171 l 600 232 b 346 19 557 85 460 19 "},"£":{"ha":751,"x_min":0,"x_max":0,"o":"m 196 10 b 303 92 251 10 293 42 b 183 139 264 118 228 139 b 113 78 142 139 113 113 b 196 10 113 43 138 10 m 538 -14 b 344 63 456 -14 397 24 b 185 -17 310 10 250 -17 b 26 106 92 -17 26 35 b 192 240 26 182 94 240 b 264 229 217 240 242 236 b 182 351 240 268 211 308 l 64 351 l 64 378 l 164 378 b 82 593 119 444 82 517 b 389 843 82 739 204 843 b 625 715 532 843 625 779 b 546 639 625 676 592 639 b 458 714 503 639 476 672 b 357 819 438 763 411 819 b 265 646 311 819 265 775 b 322 378 265 540 294 456 l 525 378 l 525 351 l 332 351 b 374 176 353 292 372 236 b 567 104 435 142 496 104 b 717 207 635 104 689 140 l 733 203 b 538 -14 700 76 644 -15 "},"ƒ":{"ha":650,"x_min":0,"x_max":0,"o":"m -96 -314 b -211 -232 -176 -314 -211 -278 b -132 -154 -211 -187 -175 -154 b -10 -264 -58 -154 -46 -264 b 126 158 65 -264 69 -68 l 178 372 l 58 372 l 67 399 l 185 399 l 189 418 b 528 765 251 661 400 765 b 661 685 611 765 661 728 b 582 603 661 636 624 603 b 464 714 504 603 501 714 b 363 399 404 714 397 576 l 525 399 l 519 372 l 357 372 b 338 283 351 343 346 314 l 276 33 b -96 -314 215 -210 28 -314 "},"¥":{"ha":843,"x_min":0,"x_max":0,"o":"m 617 0 l 201 0 l 201 13 b 307 138 254 18 307 42 l 307 242 l 126 242 l 126 269 l 307 269 l 307 349 l 126 349 l 126 375 l 296 375 l 129 692 b 10 813 88 769 54 801 l 10 825 l 406 825 l 406 813 b 357 686 346 806 321 758 l 497 399 l 601 596 b 547 813 675 738 621 803 l 547 825 l 833 825 l 833 813 b 633 604 776 807 710 753 l 517 375 l 699 375 l 699 349 l 511 349 l 511 269 l 699 269 l 699 242 l 511 242 l 511 138 b 617 13 511 42 564 18 "},"":{"ha":990,"x_min":0,"x_max":0,"o":"m 932 249 b 583 -22 879 97 772 -22 b 136 406 358 -22 169 156 l 19 406 l 19 433 l 133 433 b 132 531 131 464 129 497 l 19 531 l 19 558 l 135 558 b 628 997 165 814 356 997 b 929 936 735 997 851 975 l 890 669 l 869 672 b 615 968 838 854 736 968 b 364 558 481 968 372 838 l 651 558 l 639 531 l 364 531 b 369 433 364 494 365 463 l 603 433 l 590 406 l 372 406 b 661 99 406 175 536 99 b 911 254 750 99 849 136 l 932 249 "},"":{"ha":721,"x_min":0,"x_max":0,"o":"m 168 806 b 325 629 168 722 238 674 l 325 950 b 168 806 226 942 168 878 m 521 181 b 357 376 521 276 447 329 l 357 19 b 521 181 467 26 521 97 m 325 -115 l 325 -7 b 39 149 118 -7 39 76 b 125 238 39 197 76 238 b 214 168 161 238 197 217 b 325 21 233 111 238 29 l 325 392 b 39 703 192 458 39 525 b 325 974 39 849 146 961 l 325 1078 l 357 1078 l 357 975 b 632 829 557 976 632 897 b 547 742 632 782 594 742 b 458 813 511 742 474 764 b 357 949 444 863 438 942 l 357 613 b 679 288 503 542 679 474 b 357 -6 679 125 539 6 l 357 -115 "},"":{"ha":828,"x_min":0,"x_max":0,"o":"m 604 -21 b 379 58 508 -21 438 18 b 210 -21 340 7 278 -21 b 25 119 111 -21 25 31 b 217 274 25 207 106 274 b 306 257 249 274 278 267 b 204 415 278 308 240 360 l 75 415 l 75 443 l 186 443 b 92 707 136 524 92 611 b 438 996 92 861 225 996 b 706 847 596 996 706 924 b 622 765 706 803 672 765 b 521 851 569 765 543 804 b 400 965 500 903 468 965 b 293 765 350 965 293 922 b 361 443 293 639 328 536 l 600 443 l 600 415 l 371 415 b 421 194 397 340 421 269 b 640 106 489 151 557 106 b 811 224 719 106 782 153 l 828 219 b 604 -21 785 78 733 -21 m 218 7 b 336 92 278 7 321 39 b 192 163 286 129 242 163 b 113 90 142 163 113 131 b 218 7 113 42 156 7 "},"":{"ha":950,"x_min":0,"x_max":0,"o":"m 683 0 l 239 0 l 239 13 b 354 147 297 18 354 44 l 354 297 l 140 297 l 140 325 l 354 325 l 354 421 l 353 422 l 140 422 l 140 450 l 339 450 l 143 825 b 10 960 97 911 60 947 l 10 972 l 438 972 l 438 960 b 381 819 363 951 342 896 l 553 467 l 672 697 b 614 960 756 858 725 944 l 614 972 l 942 972 l 942 960 b 731 743 881 954 808 890 l 578 450 l 779 450 l 779 422 l 568 422 l 568 325 l 779 325 l 779 297 l 568 297 l 568 147 b 683 13 568 44 625 18 "},"#":{"ha":822,"x_min":0,"x_max":0,"o":"m 568 611 l 321 611 l 244 375 l 492 375 m 482 347 l 235 347 l 121 0 l 90 0 l 204 347 l 42 347 l 50 375 l 214 375 l 290 611 l 115 611 l 125 639 l 300 639 l 410 974 l 440 974 l 331 639 l 578 639 l 688 974 l 718 974 l 608 639 l 790 639 l 781 611 l 599 611 l 522 375 l 715 375 l 707 347 l 513 347 l 399 0 l 368 0 "},"":{"ha":874,"x_min":0,"x_max":0,"o":"m 53 489 b 435 997 53 774 211 997 b 821 489 660 997 821 774 b 435 -25 821 201 660 -25 b 53 489 211 -25 53 201 m 278 508 b 442 -3 278 133 357 -3 b 590 469 521 -3 590 119 b 425 975 590 838 511 975 b 278 508 347 975 278 853 "},"":{"ha":479,"x_min":0,"x_max":0,"o":"m 36 13 b 149 142 101 17 149 46 l 149 735 b 6 847 149 828 126 857 l 6 860 l 321 1003 l 338 999 l 338 147 b 450 13 338 51 386 17 l 450 0 l 36 0 "},"":{"ha":743,"x_min":0,"x_max":0,"o":"m 33 0 l 24 25 l 243 275 b 449 671 418 483 449 572 b 267 883 449 811 379 883 b 64 761 179 883 113 842 l 44 768 b 379 997 83 890 196 997 b 657 776 563 997 657 899 b 493 488 657 693 614 614 l 197 172 l 458 172 b 679 313 575 172 633 208 l 703 313 l 631 0 "},"":{"ha":721,"x_min":0,"x_max":0,"o":"m 283 -25 b 11 121 89 -25 11 56 b 93 207 11 169 44 207 b 185 131 136 207 171 179 b 303 1 214 46 242 1 b 476 246 392 1 476 97 b 242 489 476 399 390 489 l 174 489 l 174 518 b 424 729 324 525 424 604 b 251 889 424 822 358 889 b 67 785 178 889 111 863 l 46 793 b 356 997 83 910 192 997 b 626 785 526 997 626 908 b 447 556 626 694 563 606 b 679 294 569 531 679 439 b 283 -25 679 101 504 -25 "},"":{"ha":835,"x_min":0,"x_max":0,"o":"m 724 0 l 311 0 l 311 13 b 425 140 375 17 425 43 l 425 258 l 26 258 l 14 299 l 461 990 l 614 990 l 614 408 b 778 531 701 415 750 453 l 799 531 l 750 258 l 614 258 l 614 146 b 724 13 614 49 660 17 m 425 407 l 425 881 l 121 407 "},"":{"ha":733,"x_min":0,"x_max":0,"o":"m 300 -25 b 19 121 100 -25 19 50 b 101 207 19 169 54 207 b 193 129 144 207 179 178 b 311 1 221 42 242 1 b 492 244 413 1 492 101 b 276 471 492 389 410 471 b 94 419 204 471 142 450 l 63 442 l 133 972 l 525 972 b 632 1029 578 972 617 990 l 651 1029 l 599 807 l 140 807 l 110 578 b 340 633 174 615 250 633 b 692 321 549 633 692 510 b 300 -25 692 136 543 -25 "},"":{"ha":811,"x_min":0,"x_max":0,"o":"m 421 -25 b 53 408 225 -25 53 138 b 661 992 53 729 353 986 l 661 971 b 275 504 435 944 303 782 b 514 639 332 582 417 639 b 765 342 663 639 765 515 b 421 -25 765 128 597 -25 m 424 -1 b 563 261 504 -1 563 92 b 399 528 563 429 500 528 b 272 465 356 528 310 508 b 269 389 271 442 269 415 b 424 -1 269 128 332 -1 "},"":{"ha":744,"x_min":0,"x_max":0,"o":"m 188 0 l 188 15 b 622 807 225 276 356 549 l 275 807 b 64 678 150 807 90 758 l 43 678 l 111 972 l 718 972 l 718 911 b 425 0 501 608 397 361 "},"":{"ha":776,"x_min":0,"x_max":0,"o":"m 378 -26 b 43 231 167 -26 43 93 b 251 492 43 350 132 449 b 100 751 168 560 100 642 b 400 997 100 890 228 997 b 676 789 572 997 676 896 b 490 569 676 703 608 621 b 733 258 613 488 733 401 b 378 -26 733 103 583 -26 m 251 844 b 464 588 251 735 353 663 b 524 765 508 629 524 696 b 375 974 524 893 468 974 b 251 844 303 974 251 924 m 400 -1 b 567 150 489 -1 567 60 b 283 468 567 303 394 386 b 204 256 235 426 204 357 b 400 -1 204 93 285 -1 "},"":{"ha":814,"x_min":0,"x_max":0,"o":"m 150 1 b 532 457 339 24 499 149 b 304 333 478 385 397 333 b 47 631 151 333 47 457 b 390 997 47 844 215 997 b 760 564 586 997 760 835 b 150 -19 760 199 417 -14 m 414 444 b 536 499 457 444 500 463 b 539 583 538 526 539 554 b 388 974 539 844 478 974 b 246 711 306 974 246 879 b 414 444 246 540 310 444 "},"⁰":{"ha":513,"x_min":0,"x_max":0,"o":"m 38 731 b 256 994 38 878 131 994 b 475 731 382 994 475 878 b 256 465 475 582 382 465 b 38 731 131 465 38 582 m 182 740 b 258 482 182 551 221 482 b 329 721 293 482 329 544 b 251 978 329 908 289 978 b 182 740 215 978 182 915 "},"¹":{"ha":286,"x_min":0,"x_max":0,"o":"m 36 489 b 89 558 72 492 89 507 l 89 850 b 11 913 89 897 78 918 l 11 919 l 203 1003 l 217 1000 l 217 565 b 271 489 217 514 233 492 l 271 479 l 36 479 "},"²":{"ha":438,"x_min":0,"x_max":0,"o":"m 32 479 l 28 492 l 178 650 b 249 817 229 703 249 758 b 153 925 249 893 210 925 b 43 858 104 925 67 901 l 32 863 b 231 994 51 922 114 994 b 383 874 324 994 383 949 b 279 710 383 826 364 788 l 150 588 l 276 588 b 393 660 349 588 379 611 l 408 660 l 368 479 "},"³":{"ha":429,"x_min":0,"x_max":0,"o":"m 181 465 b 24 554 72 465 25 513 b 76 608 24 585 46 608 b 133 558 103 608 128 593 b 185 483 140 507 153 482 b 265 600 225 483 265 524 b 157 725 265 665 235 725 l 118 725 l 118 744 b 238 849 183 749 238 786 b 151 932 238 899 203 932 b 54 872 114 932 81 915 l 43 875 b 224 993 60 935 121 993 b 369 886 307 993 369 953 b 271 764 369 833 332 786 b 400 633 344 751 400 704 b 181 465 400 543 313 465 "},"⁴":{"ha":494,"x_min":0,"x_max":0,"o":"m 413 479 l 192 479 l 192 489 b 240 561 222 492 240 511 l 240 606 l 21 606 l 17 628 l 264 989 l 364 989 l 364 703 b 456 772 415 708 439 728 l 467 772 l 435 606 l 364 606 l 364 567 b 413 489 364 518 378 492 m 240 701 l 240 918 l 94 701 "},"⁵":{"ha":428,"x_min":0,"x_max":0,"o":"m 182 465 b 25 553 72 465 25 513 b 75 607 24 583 44 607 b 132 557 101 607 125 593 b 185 482 140 506 149 482 b 269 593 226 482 269 517 b 165 706 269 668 229 706 b 72 676 126 706 93 693 l 49 692 l 83 981 l 293 981 b 361 1010 328 981 353 989 l 372 1010 l 343 876 l 92 876 l 79 779 b 210 810 111 797 157 810 b 400 647 336 810 400 736 b 182 465 400 556 326 465 "},"⁶":{"ha":457,"x_min":0,"x_max":0,"o":"m 235 465 b 36 688 129 465 36 547 b 376 989 36 875 214 989 l 376 975 b 188 768 278 967 211 893 b 299 821 221 801 258 821 b 428 669 376 821 428 754 b 235 465 428 549 331 465 m 239 482 b 296 622 272 482 297 532 b 224 753 293 710 265 753 b 183 738 208 753 196 747 b 179 665 181 715 179 690 b 239 482 179 529 204 482 "},"⁷":{"ha":418,"x_min":0,"x_max":0,"o":"m 106 479 l 106 486 b 325 872 131 625 192 758 l 158 872 b 44 806 97 872 61 851 l 31 806 l 69 981 l 389 981 l 389 933 b 272 479 286 810 253 675 "},"⁸":{"ha":458,"x_min":0,"x_max":0,"o":"m 228 464 b 36 597 88 464 36 535 b 139 725 36 656 81 701 b 61 861 96 763 61 806 b 232 994 61 940 138 994 b 390 888 328 994 390 944 b 296 781 390 839 347 801 b 424 613 360 736 424 686 b 228 464 424 529 339 464 m 164 926 b 274 796 164 875 217 836 b 292 869 286 813 292 838 b 222 978 292 933 268 978 b 164 926 189 978 164 957 m 235 481 b 310 543 278 481 310 503 b 164 706 310 607 232 653 b 139 613 149 685 139 653 b 235 481 139 529 176 481 "},"⁹":{"ha":461,"x_min":0,"x_max":0,"o":"m 85 483 b 274 690 182 492 250 564 b 164 639 242 657 204 639 b 35 790 86 639 35 704 b 228 994 35 911 132 994 b 426 771 333 994 426 911 b 85 471 426 583 249 471 m 238 707 b 278 721 251 707 265 711 b 282 794 281 743 282 768 b 224 978 282 929 257 978 b 165 838 189 978 164 928 b 238 707 167 749 196 707 "},"₀":{"ha":513,"x_min":0,"x_max":0,"o":"m 38 251 b 256 515 38 399 131 515 b 475 251 382 515 475 399 b 256 -14 475 103 382 -14 b 38 251 131 -14 38 103 m 182 261 b 258 3 182 72 221 3 b 329 242 293 3 329 65 b 251 499 329 429 289 499 b 182 261 215 499 182 436 "},"₁":{"ha":285,"x_min":0,"x_max":0,"o":"m 35 10 b 88 79 71 13 88 28 l 88 371 b 10 433 88 418 76 439 l 10 440 l 201 524 l 215 521 l 215 86 b 269 10 215 35 232 13 l 269 0 l 35 0 "},"₂":{"ha":438,"x_min":0,"x_max":0,"o":"m 32 0 l 28 13 l 178 171 b 249 338 229 224 249 279 b 153 446 249 414 210 446 b 43 379 104 446 67 422 l 32 383 b 231 515 51 443 114 515 b 383 394 324 515 383 469 b 279 231 383 347 364 308 l 150 108 l 276 108 b 393 181 349 108 379 132 l 408 181 l 368 0 "},"₃":{"ha":429,"x_min":0,"x_max":0,"o":"m 181 -14 b 24 75 72 -14 25 33 b 76 129 24 106 46 129 b 133 79 103 129 128 114 b 185 4 140 28 153 3 b 265 121 225 4 265 44 b 157 246 265 186 235 246 l 118 246 l 118 265 b 238 369 183 269 238 307 b 151 453 238 419 203 453 b 54 393 114 453 81 436 l 43 396 b 224 514 60 456 121 514 b 369 407 307 514 369 474 b 271 285 369 354 332 307 b 400 154 344 272 400 225 b 181 -14 400 64 313 -14 "},"₄":{"ha":496,"x_min":0,"x_max":0,"o":"m 413 0 l 192 0 l 192 10 b 240 82 222 13 240 32 l 240 126 l 21 126 l 17 149 l 264 510 l 364 510 l 364 224 b 456 293 415 229 439 249 l 467 293 l 435 126 l 364 126 l 364 88 b 413 10 364 39 378 13 m 240 222 l 240 439 l 94 222 "},"₅":{"ha":429,"x_min":0,"x_max":0,"o":"m 182 -14 b 25 74 72 -14 25 33 b 75 128 24 104 44 128 b 132 78 101 128 125 114 b 185 3 140 26 149 3 b 269 114 226 3 269 38 b 165 226 269 189 229 226 b 72 197 126 226 93 214 l 49 213 l 83 501 l 293 501 b 361 531 328 501 353 510 l 372 531 l 343 397 l 92 397 l 79 300 b 210 331 111 318 157 331 b 400 168 336 331 400 257 b 182 -14 400 76 326 -14 "},"₆":{"ha":457,"x_min":0,"x_max":0,"o":"m 235 -14 b 36 208 129 -14 36 68 b 376 510 36 396 214 510 l 376 496 b 188 289 278 488 211 414 b 299 342 221 322 258 342 b 428 190 376 342 428 275 b 235 -14 428 69 331 -14 m 239 3 b 296 143 272 3 297 53 b 224 274 293 231 265 274 b 183 258 208 274 196 268 b 179 186 181 236 179 211 b 239 3 179 50 204 3 "},"₇":{"ha":418,"x_min":0,"x_max":0,"o":"m 106 0 l 106 7 b 325 393 131 146 192 279 l 158 393 b 44 326 97 393 61 372 l 31 326 l 69 501 l 389 501 l 389 454 b 272 0 286 331 253 196 "},"₈":{"ha":458,"x_min":0,"x_max":0,"o":"m 228 -15 b 36 118 88 -15 36 56 b 139 246 36 176 81 222 b 61 382 96 283 61 326 b 232 515 61 461 138 515 b 390 408 328 515 390 465 b 296 301 390 360 347 322 b 424 133 360 257 424 207 b 228 -15 424 50 339 -15 m 164 447 b 274 317 164 396 217 357 b 292 390 286 333 292 358 b 222 499 292 454 268 499 b 164 447 189 499 164 478 m 235 1 b 310 64 278 1 310 24 b 164 226 310 128 232 174 b 139 133 149 206 139 174 b 235 1 139 50 176 1 "},"₉":{"ha":461,"x_min":0,"x_max":0,"o":"m 85 4 b 274 211 182 13 250 85 b 164 160 242 178 204 160 b 35 311 86 160 35 225 b 228 515 35 432 132 515 b 426 292 333 515 426 432 b 85 -8 426 104 249 -8 m 238 228 b 278 242 251 228 265 232 b 282 315 281 264 282 289 b 224 499 282 450 257 499 b 165 358 189 499 164 449 b 238 228 167 269 196 228 "},"":{"ha":513,"x_min":0,"x_max":0,"o":"m 38 71 b 256 335 38 218 131 335 b 475 71 382 335 475 218 b 256 -194 475 -78 382 -194 b 38 71 131 -194 38 -78 m 182 81 b 258 -178 182 -108 221 -178 b 329 61 293 -178 329 -115 b 251 318 329 249 289 318 b 182 81 215 318 182 256 "},"":{"ha":285,"x_min":0,"x_max":0,"o":"m 35 -171 b 88 -101 71 -168 88 -153 l 88 190 b 10 253 88 238 76 258 l 10 260 l 201 343 l 215 340 l 215 -94 b 269 -171 215 -146 232 -168 l 269 -181 l 35 -181 "},"":{"ha":438,"x_min":0,"x_max":0,"o":"m 33 -181 l 29 -168 l 179 -10 b 250 157 231 43 250 99 b 154 265 250 233 211 265 b 44 199 106 265 68 242 l 33 203 b 232 335 53 263 115 335 b 385 214 325 335 385 289 b 281 50 385 167 365 128 l 151 -72 l 278 -72 b 394 0 350 -72 381 -49 l 410 0 l 369 -181 "},"":{"ha":429,"x_min":0,"x_max":0,"o":"m 181 -194 b 24 -106 72 -194 25 -147 b 76 -51 24 -75 46 -51 b 133 -101 103 -51 128 -67 b 185 -176 140 -153 153 -178 b 265 -60 225 -176 265 -136 b 157 65 265 6 235 65 l 118 65 l 118 85 b 238 189 183 89 238 126 b 151 272 238 239 203 272 b 54 213 114 272 81 256 l 43 215 b 224 333 60 275 121 333 b 369 226 307 333 369 293 b 271 104 369 174 332 126 b 400 -26 344 92 400 44 b 181 -194 400 -117 313 -194 "},"":{"ha":494,"x_min":0,"x_max":0,"o":"m 413 -181 l 192 -181 l 192 -171 b 240 -99 222 -168 240 -149 l 240 -54 l 21 -54 l 17 -32 l 264 329 l 364 329 l 364 43 b 456 113 415 49 439 68 l 467 113 l 435 -54 l 364 -54 l 364 -93 b 413 -171 364 -142 378 -168 m 240 42 l 240 258 l 94 42 "},"":{"ha":428,"x_min":0,"x_max":0,"o":"m 182 -194 b 25 -107 72 -194 25 -147 b 75 -53 24 -76 44 -53 b 132 -103 101 -53 125 -67 b 185 -178 140 -154 149 -178 b 269 -67 226 -178 269 -143 b 165 46 269 8 229 46 b 72 17 126 46 93 33 l 49 32 l 83 321 l 293 321 b 361 350 328 321 353 329 l 372 350 l 343 217 l 92 217 l 79 119 b 210 150 111 138 157 150 b 400 -12 336 150 400 76 b 182 -194 400 -104 326 -194 "},"":{"ha":457,"x_min":0,"x_max":0,"o":"m 235 -194 b 36 28 129 -194 36 -112 b 376 329 36 215 214 329 l 376 315 b 188 108 278 307 211 233 b 299 161 221 142 258 161 b 428 10 376 161 428 94 b 235 -194 428 -111 331 -194 m 239 -178 b 296 -37 272 -178 297 -128 b 224 93 293 50 265 93 b 183 78 208 93 196 88 b 179 6 181 56 179 31 b 239 -178 179 -131 204 -178 "},"":{"ha":418,"x_min":0,"x_max":0,"o":"m 106 -181 l 106 -174 b 325 213 131 -35 192 99 l 158 213 b 44 146 97 213 61 192 l 31 146 l 69 321 l 389 321 l 389 274 b 272 -181 286 150 253 15 "},"":{"ha":458,"x_min":0,"x_max":0,"o":"m 228 -196 b 36 -62 88 -196 36 -125 b 139 65 36 -4 81 42 b 61 201 96 103 61 146 b 232 335 61 281 138 335 b 390 228 328 335 390 285 b 296 121 390 179 347 142 b 424 -47 360 76 424 26 b 228 -196 424 -131 339 -196 m 164 267 b 274 136 164 215 217 176 b 292 210 286 153 292 178 b 222 318 292 274 268 318 b 164 267 189 318 164 297 m 235 -179 b 310 -117 278 -179 310 -157 b 164 46 310 -53 232 -7 b 139 -47 149 25 139 -7 b 235 -179 139 -131 176 -179 "},"":{"ha":461,"x_min":0,"x_max":0,"o":"m 85 -176 b 274 31 182 -168 250 -96 b 164 -21 242 -3 204 -21 b 35 131 86 -21 35 44 b 228 335 35 251 132 335 b 426 111 333 335 426 251 b 85 -189 426 -76 249 -189 m 238 47 b 278 61 251 47 265 51 b 282 135 281 83 282 108 b 224 318 282 269 257 318 b 165 178 189 318 164 268 b 238 47 167 89 196 47 "},"⁄":{"ha":664,"x_min":0,"x_max":0,"o":"m 671 972 l 33 0 l -1 0 l 635 972 "},"⅟":{"ha":808,"x_min":0,"x_max":0,"o":"m 36 489 b 89 558 72 492 89 507 l 89 850 b 11 913 89 897 78 918 l 11 919 l 203 1003 l 217 1000 l 217 565 b 271 489 217 514 233 492 l 271 479 l 36 479 m 740 972 l 103 0 l 68 0 l 704 972 "},"½":{"ha":886,"x_min":0,"x_max":0,"o":"m 36 489 b 89 558 72 492 89 507 l 89 850 b 11 913 89 897 78 918 l 11 919 l 203 1003 l 217 1000 l 217 565 b 271 489 217 514 233 492 l 271 479 l 36 479 m 740 972 l 103 0 l 68 0 l 704 972 m 482 0 l 478 13 l 628 171 b 699 338 679 224 699 279 b 603 446 699 414 660 446 b 493 379 554 446 517 422 l 482 383 b 681 515 501 443 564 515 b 833 394 774 515 833 469 b 729 231 833 347 814 308 l 600 108 l 726 108 b 843 181 799 108 829 132 l 858 181 l 818 0 "},"⅓":{"ha":878,"x_min":0,"x_max":0,"o":"m 36 489 b 89 558 72 492 89 507 l 89 850 b 11 913 89 897 78 918 l 11 919 l 203 1003 l 217 1000 l 217 565 b 271 489 217 514 233 492 l 271 479 l 36 479 m 740 972 l 103 0 l 68 0 l 704 972 m 631 -14 b 474 75 522 -14 475 33 b 526 129 474 106 496 129 b 583 79 553 129 578 114 b 635 4 590 28 603 3 b 715 121 675 4 715 44 b 607 246 715 186 685 246 l 568 246 l 568 265 b 688 369 633 269 688 307 b 601 453 688 419 653 453 b 504 393 564 453 531 436 l 493 396 b 674 514 510 456 571 514 b 819 407 757 514 819 474 b 721 285 819 354 782 307 b 850 154 794 272 850 225 b 631 -14 850 64 763 -14 "},"⅔":{"ha":971,"x_min":0,"x_max":0,"o":"m 32 479 l 28 492 l 178 650 b 249 817 229 703 249 758 b 153 925 249 893 210 925 b 43 858 104 925 67 901 l 32 863 b 231 994 51 922 114 994 b 383 874 324 994 383 949 b 279 710 383 826 364 788 l 150 588 l 276 588 b 393 660 349 588 379 611 l 408 660 l 368 479 m 832 972 l 194 0 l 160 0 l 796 972 m 722 -14 b 565 75 614 -14 567 33 b 618 129 565 106 588 129 b 675 79 644 129 669 114 b 726 4 682 28 694 3 b 807 121 767 4 807 44 b 699 246 807 186 776 246 l 660 246 l 660 265 b 779 369 725 269 779 307 b 693 453 779 419 744 453 b 596 393 656 453 622 436 l 585 396 b 765 514 601 456 663 514 b 911 407 849 514 911 474 b 813 285 911 354 874 307 b 942 154 886 272 942 225 b 722 -14 942 64 854 -14 "},"¼":{"ha":871,"x_min":0,"x_max":0,"o":"m 36 489 b 89 558 72 492 89 507 l 89 850 b 11 913 89 897 78 918 l 11 919 l 203 1003 l 217 1000 l 217 565 b 271 489 217 514 233 492 l 271 479 l 36 479 m 740 972 l 103 0 l 68 0 l 704 972 m 788 0 l 567 0 l 567 10 b 615 82 597 13 615 32 l 615 126 l 396 126 l 392 149 l 639 510 l 739 510 l 739 224 b 831 293 790 229 814 249 l 842 293 l 810 126 l 739 126 l 739 88 b 788 10 739 39 753 13 m 615 222 l 615 439 l 469 222 "},"¾":{"ha":943,"x_min":0,"x_max":0,"o":"m 817 972 l 179 0 l 144 0 l 781 972 m 181 465 b 24 554 72 465 25 513 b 76 608 24 585 46 608 b 133 558 103 608 128 593 b 185 483 140 507 153 482 b 265 600 225 483 265 524 b 157 725 265 665 235 725 l 118 725 l 118 744 b 238 849 183 749 238 786 b 151 932 238 899 203 932 b 54 872 114 932 81 915 l 43 875 b 224 993 60 935 121 993 b 369 886 307 993 369 953 b 271 764 369 833 332 786 b 400 633 344 751 400 704 b 181 465 400 543 313 465 m 861 0 l 640 0 l 640 10 b 689 82 671 13 689 32 l 689 126 l 469 126 l 465 149 l 713 510 l 813 510 l 813 224 b 904 293 864 229 888 249 l 915 293 l 883 126 l 813 126 l 813 88 b 861 10 813 39 826 13 m 689 222 l 689 439 l 543 222 "},"⅕":{"ha":889,"x_min":0,"x_max":0,"o":"m 36 489 b 89 558 72 492 89 507 l 89 850 b 11 913 89 897 78 918 l 11 919 l 203 1003 l 217 1000 l 217 565 b 271 489 217 514 233 492 l 271 479 l 36 479 m 740 972 l 103 0 l 68 0 l 704 972 m 643 -14 b 486 74 533 -14 486 33 b 536 128 485 104 506 128 b 593 78 563 128 586 114 b 646 3 601 26 610 3 b 731 114 688 3 731 38 b 626 226 731 189 690 226 b 533 197 588 226 554 214 l 510 213 l 544 501 l 754 501 b 822 531 789 501 814 510 l 833 531 l 804 397 l 553 397 l 540 300 b 671 331 572 318 618 331 b 861 168 797 331 861 257 b 643 -14 861 76 788 -14 "},"⅖":{"ha":982,"x_min":0,"x_max":0,"o":"m 32 479 l 28 492 l 178 650 b 249 817 229 703 249 758 b 153 925 249 893 210 925 b 43 858 104 925 67 901 l 32 863 b 231 994 51 922 114 994 b 383 874 324 994 383 949 b 279 710 383 826 364 788 l 150 588 l 276 588 b 393 660 349 588 379 611 l 408 660 l 368 479 m 832 972 l 194 0 l 160 0 l 796 972 m 736 -14 b 579 74 626 -14 579 33 b 629 128 578 104 599 128 b 686 78 656 128 679 114 b 739 3 694 26 703 3 b 824 114 781 3 824 38 b 719 226 824 189 783 226 b 626 197 681 226 647 214 l 603 213 l 638 501 l 847 501 b 915 531 882 501 907 510 l 926 531 l 897 397 l 646 397 l 633 300 b 764 331 665 318 711 331 b 954 168 890 331 954 257 b 736 -14 954 76 881 -14 "},"⅗":{"ha":965,"x_min":0,"x_max":0,"o":"m 815 972 l 178 0 l 143 0 l 779 972 m 181 465 b 24 554 72 465 25 513 b 76 608 24 585 46 608 b 133 558 103 608 128 593 b 185 483 140 507 153 482 b 265 600 225 483 265 524 b 157 725 265 665 235 725 l 118 725 l 118 744 b 238 849 183 749 238 786 b 151 932 238 899 203 932 b 54 872 114 932 81 915 l 43 875 b 224 993 60 935 121 993 b 369 886 307 993 369 953 b 271 764 369 833 332 786 b 400 633 344 751 400 704 b 181 465 400 543 313 465 m 718 -14 b 561 74 608 -14 561 33 b 611 128 560 104 581 128 b 668 78 638 128 661 114 b 721 3 676 26 685 3 b 806 114 763 3 806 38 b 701 226 806 189 765 226 b 608 197 663 226 629 214 l 585 213 l 619 501 l 829 501 b 897 531 864 501 889 510 l 908 531 l 879 397 l 628 397 l 615 300 b 746 331 647 318 693 331 b 936 168 872 331 936 257 b 718 -14 936 76 863 -14 "},"⅘":{"ha":1024,"x_min":0,"x_max":0,"o":"m 413 479 l 192 479 l 192 489 b 240 561 222 492 240 511 l 240 606 l 21 606 l 17 628 l 264 989 l 364 989 l 364 703 b 456 772 415 708 439 728 l 467 772 l 435 606 l 364 606 l 364 567 b 413 489 364 518 378 492 m 875 972 l 238 0 l 203 0 l 839 972 m 240 701 l 240 918 l 94 701 m 778 -14 b 621 74 668 -14 621 33 b 671 128 619 104 640 128 b 728 78 697 128 721 114 b 781 3 736 26 744 3 b 865 114 822 3 865 38 b 761 226 865 189 825 226 b 668 197 722 226 689 214 l 644 213 l 679 501 l 889 501 b 957 531 924 501 949 510 l 968 531 l 939 397 l 688 397 l 675 300 b 806 331 707 318 753 331 b 996 168 932 331 996 257 b 778 -14 996 76 922 -14 "},"⅙":{"ha":886,"x_min":0,"x_max":0,"o":"m 36 489 b 89 558 72 492 89 507 l 89 850 b 11 913 89 897 78 918 l 11 919 l 203 1003 l 217 1000 l 217 565 b 271 489 217 514 233 492 l 271 479 l 36 479 m 740 972 l 103 0 l 68 0 l 704 972 m 664 -14 b 465 208 558 -14 465 68 b 806 510 465 396 643 510 l 806 496 b 617 289 707 488 640 414 b 728 342 650 322 688 342 b 857 190 806 342 857 275 b 664 -14 857 69 760 -14 m 668 3 b 725 143 701 3 726 53 b 653 274 722 231 694 274 b 613 258 638 274 625 268 b 608 186 610 236 608 211 b 668 3 608 50 633 3 "},"⅚":{"ha":961,"x_min":0,"x_max":0,"o":"m 822 972 l 185 0 l 150 0 l 786 972 m 182 465 b 25 553 72 465 25 513 b 75 607 24 583 44 607 b 132 557 101 607 125 593 b 185 482 140 506 149 482 b 269 593 226 482 269 517 b 165 706 269 668 229 706 b 72 676 126 706 93 693 l 49 692 l 83 981 l 293 981 b 361 1010 328 981 353 989 l 372 1010 l 343 876 l 92 876 l 79 779 b 210 810 111 797 157 810 b 400 647 336 810 400 736 b 182 465 400 556 326 465 m 739 -14 b 540 208 633 -14 540 68 b 881 510 540 396 718 510 l 881 496 b 692 289 782 488 715 414 b 803 342 725 322 763 342 b 932 190 881 342 932 275 b 739 -14 932 69 835 -14 m 743 3 b 800 143 776 3 801 53 b 728 274 797 231 769 274 b 688 258 713 274 700 268 b 683 186 685 236 683 211 b 743 3 683 50 708 3 "},"⅛":{"ha":901,"x_min":0,"x_max":0,"o":"m 36 489 b 89 558 72 492 89 507 l 89 850 b 11 913 89 897 78 918 l 11 919 l 203 1003 l 217 1000 l 217 565 b 271 489 217 514 233 492 l 271 479 l 36 479 m 740 972 l 103 0 l 68 0 l 704 972 m 671 -15 b 479 118 531 -15 479 56 b 582 246 479 176 524 222 b 504 382 539 283 504 326 b 675 515 504 461 581 515 b 833 408 771 515 833 465 b 739 301 833 360 790 322 b 867 133 803 257 867 207 b 671 -15 867 50 782 -15 m 607 447 b 717 317 607 396 660 357 b 735 390 729 333 735 358 b 665 499 735 454 711 499 b 607 447 632 499 607 478 m 678 1 b 753 64 721 1 753 24 b 607 226 753 128 675 174 b 582 133 592 206 582 174 b 678 1 582 50 619 1 "},"⅜":{"ha":976,"x_min":0,"x_max":0,"o":"m 815 972 l 178 0 l 143 0 l 779 972 m 181 465 b 24 554 72 465 25 513 b 76 608 24 585 46 608 b 133 558 103 608 128 593 b 185 483 140 507 153 482 b 265 600 225 483 265 524 b 157 725 265 665 235 725 l 118 725 l 118 744 b 238 849 183 749 238 786 b 151 932 238 899 203 932 b 54 872 114 932 81 915 l 43 875 b 224 993 60 935 121 993 b 369 886 307 993 369 953 b 271 764 369 833 332 786 b 400 633 344 751 400 704 b 181 465 400 543 313 465 m 746 -15 b 554 118 606 -15 554 56 b 657 246 554 176 599 222 b 579 382 614 283 579 326 b 750 515 579 461 656 515 b 908 408 846 515 908 465 b 814 301 908 360 865 322 b 942 133 878 257 942 207 b 746 -15 942 50 857 -15 m 682 447 b 792 317 682 396 735 357 b 810 390 804 333 810 358 b 740 499 810 454 786 499 b 682 447 707 499 682 478 m 753 1 b 828 64 796 1 828 24 b 682 226 828 128 750 174 b 657 133 667 206 657 174 b 753 1 657 50 694 1 "},"⅝":{"ha":974,"x_min":0,"x_max":0,"o":"m 811 972 l 174 0 l 139 0 l 775 972 m 182 465 b 25 553 72 465 25 513 b 75 607 24 583 44 607 b 132 557 101 607 125 593 b 185 482 140 506 149 482 b 269 593 226 482 269 517 b 165 706 269 668 229 706 b 72 676 126 706 93 693 l 49 692 l 83 981 l 293 981 b 361 1010 328 981 353 989 l 372 1010 l 343 876 l 92 876 l 79 779 b 210 810 111 797 157 810 b 400 647 336 810 400 736 b 182 465 400 556 326 465 m 743 -15 b 551 118 603 -15 551 56 b 654 246 551 176 596 222 b 576 382 611 283 576 326 b 747 515 576 461 653 515 b 906 408 843 515 906 465 b 811 301 906 360 863 322 b 939 133 875 257 939 207 b 743 -15 939 50 854 -15 m 679 447 b 789 317 679 396 732 357 b 807 390 801 333 807 358 b 738 499 807 454 783 499 b 679 447 704 499 679 478 m 750 1 b 825 64 793 1 825 24 b 679 226 825 128 747 174 b 654 133 664 206 654 174 b 750 1 654 50 692 1 "},"⅞":{"ha":933,"x_min":0,"x_max":0,"o":"m 106 479 l 106 486 b 325 872 131 625 192 758 l 158 872 b 44 806 97 872 61 851 l 31 806 l 69 981 l 389 981 l 389 933 b 272 479 286 810 253 675 m 771 972 l 133 0 l 99 0 l 735 972 m 703 -15 b 511 118 563 -15 511 56 b 614 246 511 176 556 222 b 536 382 571 283 536 326 b 707 515 536 461 613 515 b 865 408 803 515 865 465 b 771 301 865 360 822 322 b 899 133 835 257 899 207 b 703 -15 899 50 814 -15 m 639 447 b 749 317 639 396 692 357 b 767 390 761 333 767 358 b 697 499 767 454 743 499 b 639 447 664 499 639 478 m 710 1 b 785 64 753 1 785 24 b 639 226 785 128 707 174 b 614 133 624 206 614 174 b 710 1 614 50 651 1 "},"%":{"ha":1065,"x_min":0,"x_max":0,"o":"m 38 731 b 256 994 38 878 131 994 b 475 731 382 994 475 878 b 256 465 475 582 382 465 b 38 731 131 465 38 582 m 182 740 b 258 482 182 551 221 482 b 329 721 293 482 329 544 b 251 978 329 908 289 978 b 182 740 215 978 182 915 m 865 972 l 228 0 l 193 0 l 829 972 m 592 251 b 810 515 592 399 685 515 b 1029 251 936 515 1029 399 b 810 -14 1029 103 936 -14 b 592 251 685 -14 592 103 m 736 261 b 813 3 736 72 775 3 b 883 242 847 3 883 65 b 806 499 883 429 843 499 b 736 261 769 499 736 436 "},"‰":{"ha":1560,"x_min":0,"x_max":0,"o":"m 38 731 b 256 994 38 878 131 994 b 475 731 382 994 475 878 b 256 465 475 582 382 465 b 38 731 131 465 38 582 m 182 740 b 258 482 182 551 221 482 b 329 721 293 482 329 544 b 251 978 329 908 289 978 b 182 740 215 978 182 915 m 867 972 l 229 0 l 194 0 l 831 972 m 592 251 b 810 515 592 399 685 515 b 1029 251 936 515 1029 399 b 810 -14 1029 103 936 -14 b 592 251 685 -14 592 103 m 1085 251 b 1303 515 1085 399 1178 515 b 1522 251 1429 515 1522 399 b 1303 -14 1522 103 1429 -14 b 1085 251 1178 -14 1085 103 m 736 261 b 813 3 736 72 775 3 b 883 242 847 3 883 65 b 806 499 883 429 843 499 b 736 261 769 499 736 436 m 1229 261 b 1306 3 1229 72 1268 3 b 1376 242 1340 3 1376 65 b 1299 499 1376 429 1336 499 b 1229 261 1263 499 1229 436 "},"←":{"ha":1181,"x_min":0,"x_max":0,"o":"m 599 178 l 78 539 l 78 543 l 599 904 l 606 892 l 399 557 l 1076 581 l 1076 501 l 400 524 l 606 192 "},"→":{"ha":1181,"x_min":0,"x_max":0,"o":"m 574 192 l 779 524 l 103 501 l 103 581 l 781 557 l 574 892 l 581 904 l 1101 543 l 1101 539 l 581 178 "},"↑":{"ha":1181,"x_min":0,"x_max":0,"o":"m 606 669 l 629 -8 l 550 -8 l 572 668 l 240 463 l 226 469 l 588 992 l 592 992 l 953 469 l 940 463 "},"↓":{"ha":1181,"x_min":0,"x_max":0,"o":"m 940 503 l 953 496 l 592 -26 l 588 -26 l 226 496 l 240 503 l 572 297 l 550 974 l 629 974 l 606 296 "},"↖":{"ha":1181,"x_min":0,"x_max":0,"o":"m 350 365 l 336 361 l 224 983 l 228 988 l 853 874 l 849 858 l 468 769 l 960 307 l 904 251 l 442 744 "},"↗":{"ha":1181,"x_min":0,"x_max":0,"o":"m 743 744 l 281 251 l 225 307 l 717 769 l 336 858 l 332 874 l 957 988 l 961 983 l 849 361 l 835 365 "},"↘":{"ha":1181,"x_min":0,"x_max":0,"o":"m 832 614 l 846 618 l 958 -4 l 954 -8 l 329 106 l 333 121 l 714 210 l 222 672 l 278 728 l 740 235 "},"↙":{"ha":1181,"x_min":0,"x_max":0,"o":"m 435 235 l 897 728 l 953 672 l 461 210 l 842 121 l 846 106 l 221 -8 l 217 -4 l 329 618 l 343 614 "},"●":{"ha":1268,"x_min":0,"x_max":0,"o":"m 135 485 b 633 983 135 760 360 983 b 1133 485 910 983 1133 760 b 633 -14 1133 210 910 -14 b 135 485 360 -14 135 210 "},"○":{"ha":1268,"x_min":0,"x_max":0,"o":"m 135 485 b 633 983 135 760 360 983 b 1133 485 910 983 1133 760 b 633 -14 1133 210 910 -14 b 135 485 360 -14 135 210 m 186 485 b 633 28 186 229 379 28 b 1083 485 890 28 1083 229 b 633 942 1083 739 890 942 b 186 485 378 942 186 739 "},"■":{"ha":1265,"x_min":0,"x_max":0,"o":"m 1118 0 l 147 0 l 147 971 l 1118 971 "},"□":{"ha":1265,"x_min":0,"x_max":0,"o":"m 147 971 l 1118 971 l 1118 0 l 147 0 m 197 929 l 197 42 l 1068 42 l 1068 929 "},"▪":{"ha":1011,"x_min":0,"x_max":0,"o":"m 135 742 l 876 742 l 876 0 l 135 0 "},"▫":{"ha":1011,"x_min":0,"x_max":0,"o":"m 135 742 l 876 742 l 876 0 l 135 0 m 183 700 l 183 42 l 828 42 l 828 700 "},"▲":{"ha":1069,"x_min":0,"x_max":0,"o":"m 49 0 l 535 842 l 1019 0 "},"▼":{"ha":1069,"x_min":0,"x_max":0,"o":"m 1019 972 l 535 131 l 49 972 "},"◄":{"ha":1069,"x_min":0,"x_max":0,"o":"m 932 0 l 92 486 l 932 971 "},"►":{"ha":1069,"x_min":0,"x_max":0,"o":"m 138 971 l 978 486 l 138 0 "},"◤":{"ha":1000,"x_min":0,"x_max":0,"o":"m 283 35 l 32 974 l 971 722 "},"◥":{"ha":1000,"x_min":0,"x_max":0,"o":"m 33 722 l 972 974 l 721 35 "},"◢":{"ha":1000,"x_min":0,"x_max":0,"o":"m 717 939 l 968 0 l 29 251 "},"◣":{"ha":1000,"x_min":0,"x_max":0,"o":"m 967 251 l 28 0 l 279 939 "},"+":{"ha":842,"x_min":0,"x_max":0,"o":"m 440 400 l 440 64 l 403 64 l 403 400 l 68 400 l 68 435 l 403 435 l 403 769 l 440 769 l 440 435 l 774 435 l 774 400 "},"−":{"ha":842,"x_min":0,"x_max":0,"o":"m 774 435 l 774 400 l 68 400 l 68 435 "},"±":{"ha":842,"x_min":0,"x_max":0,"o":"m 440 435 l 440 136 l 403 136 l 403 435 l 68 435 l 68 469 l 403 469 l 403 767 l 440 767 l 440 469 l 774 469 l 774 435 m 774 36 l 774 0 l 68 0 l 68 36 "},"×":{"ha":826,"x_min":0,"x_max":0,"o":"m 413 392 l 124 103 l 99 128 l 389 417 l 99 708 l 126 732 l 414 443 l 703 731 l 728 707 l 439 418 l 726 129 l 701 101 "},"÷":{"ha":842,"x_min":0,"x_max":0,"o":"m 419 569 b 307 681 358 569 307 619 b 419 792 307 742 358 792 b 532 681 481 792 532 742 b 419 569 532 619 481 569 m 774 435 l 774 400 l 68 400 l 68 435 m 419 46 b 307 157 358 46 307 96 b 419 268 307 218 358 268 b 532 157 481 268 532 218 b 419 46 532 96 481 46 "},"=":{"ha":842,"x_min":0,"x_max":0,"o":"m 774 518 l 774 483 l 68 483 l 68 518 m 774 351 l 774 317 l 68 317 l 68 351 "},"≠":{"ha":843,"x_min":0,"x_max":0,"o":"m 351 317 l 115 65 l 71 65 l 307 317 l 68 317 l 68 351 l 339 351 l 463 483 l 68 483 l 68 518 l 494 518 l 729 768 l 774 768 l 539 518 l 774 518 l 774 483 l 507 483 l 383 351 l 774 351 l 774 317 "},"≈":{"ha":833,"x_min":0,"x_max":0,"o":"m 760 493 b 599 429 715 456 665 429 b 233 538 492 429 354 538 b 72 469 169 538 117 507 l 72 510 b 235 574 117 547 167 574 b 600 465 358 574 499 465 b 760 533 664 465 715 496 l 760 493 m 760 335 b 599 271 715 297 665 271 b 233 379 492 271 354 379 b 72 311 169 379 117 349 l 72 351 b 235 415 117 389 167 415 b 600 307 358 415 499 307 b 760 375 664 307 715 338 l 760 335 "},"<":{"ha":582,"x_min":0,"x_max":0,"o":"m 490 767 l 514 740 l 122 417 l 513 93 l 488 68 l 71 417 "},">":{"ha":582,"x_min":0,"x_max":0,"o":"m 92 68 l 68 94 l 460 418 l 69 742 l 94 767 l 511 418 "},"≤":{"ha":593,"x_min":0,"x_max":0,"o":"m 69 463 l 485 781 l 508 756 l 125 463 l 511 171 l 489 144 m 72 0 l 72 33 l 526 33 l 526 0 "},"≥":{"ha":596,"x_min":0,"x_max":0,"o":"m 88 169 l 471 463 l 85 754 l 108 781 l 528 463 l 113 144 m 69 0 l 69 33 l 522 33 l 522 0 "},"°":{"ha":507,"x_min":0,"x_max":0,"o":"m 467 774 b 253 563 467 657 371 563 b 40 774 138 563 40 657 b 253 986 40 892 138 986 b 467 774 371 986 467 892 m 71 774 b 253 589 71 671 151 589 b 436 774 354 589 436 671 b 253 960 436 878 354 960 b 71 774 151 960 71 878 "}}}
